G04 #@! TF.GenerationSoftware,KiCad,Pcbnew,9.0.1+1*
G04 #@! TF.CreationDate,2026-06-06T21:52:50+00:00*
G04 #@! TF.ProjectId,hw-charger,68772d63-6861-4726-9765-722e6b696361,v0.1.0*
G04 #@! TF.SameCoordinates,Original*
G04 #@! TF.FileFunction,Legend,Bot*
G04 #@! TF.FilePolarity,Positive*
%FSLAX46Y46*%
G04 Gerber Fmt 4.6, Leading zero omitted, Abs format (unit mm)*
G04 Created by KiCad (PCBNEW 9.0.1+1) date 2026-06-06 21:52:50*
%MOMM*%
%LPD*%
G01*
G04 APERTURE LIST*
%ADD10R,1.700000X1.700000*%
%ADD11C,1.700000*%
%ADD12O,1.700000X1.700000*%
%ADD13R,2.600000X2.600000*%
%ADD14C,2.600000*%
%ADD15C,4.000000*%
%ADD16C,3.800000*%
%ADD17C,0.900000*%
%ADD18C,8.600000*%
%ADD19C,2.000000*%
%ADD20R,2.000000X2.000000*%
%ADD21O,1.950000X1.700000*%
%ADD22O,2.400000X1.000000*%
%ADD23O,2.000000X1.700000*%
%ADD24O,1.000000X2.400000*%
G04 APERTURE END LIST*
%LPC*%
D10*
X106175000Y-152900000D03*
D11*
X103635000Y-152900000D03*
D10*
X114270000Y-159625000D03*
D12*
X114270000Y-162165000D03*
X111730000Y-159625000D03*
X111730000Y-162165000D03*
X109190000Y-159625000D03*
X109190000Y-162165000D03*
X106650000Y-159625000D03*
X106650000Y-162165000D03*
X104110000Y-159625000D03*
X104110000Y-162165000D03*
D13*
X69445000Y-139895000D03*
D14*
X64365000Y-139895000D03*
G36*
G01*
X98693333Y-136005000D02*
X100973333Y-136005000D01*
G75*
G02*
X101733333Y-136765000I0J-760000D01*
G01*
X101733333Y-139045000D01*
G75*
G02*
X100973333Y-139805000I-760000J0D01*
G01*
X98693333Y-139805000D01*
G75*
G02*
X97933333Y-139045000I0J760000D01*
G01*
X97933333Y-136765000D01*
G75*
G02*
X98693333Y-136005000I760000J0D01*
G01*
G37*
D15*
X99833333Y-142905000D03*
G36*
G01*
X46200000Y-164534000D02*
X46200000Y-162254000D01*
G75*
G02*
X46960000Y-161494000I760000J0D01*
G01*
X49240000Y-161494000D01*
G75*
G02*
X50000000Y-162254000I0J-760000D01*
G01*
X50000000Y-164534000D01*
G75*
G02*
X49240000Y-165294000I-760000J0D01*
G01*
X46960000Y-165294000D01*
G75*
G02*
X46200000Y-164534000I0J760000D01*
G01*
G37*
D16*
X53100000Y-163394000D03*
D13*
X90411667Y-139895000D03*
D14*
X85331667Y-139895000D03*
D10*
X61500000Y-194800000D03*
D11*
X58960000Y-194800000D03*
X56420000Y-194800000D03*
D13*
X111855000Y-194705000D03*
D14*
X116935000Y-194705000D03*
D17*
X136775000Y-194775000D03*
X137719581Y-192494581D03*
X137719581Y-197055419D03*
X140000000Y-191550000D03*
D18*
X140000000Y-194775000D03*
D17*
X140000000Y-198000000D03*
X142280419Y-192494581D03*
X142280419Y-197055419D03*
X143225000Y-194775000D03*
G36*
G01*
X77726667Y-136005000D02*
X80006667Y-136005000D01*
G75*
G02*
X80766667Y-136765000I0J-760000D01*
G01*
X80766667Y-139045000D01*
G75*
G02*
X80006667Y-139805000I-760000J0D01*
G01*
X77726667Y-139805000D01*
G75*
G02*
X76966667Y-139045000I0J760000D01*
G01*
X76966667Y-136765000D01*
G75*
G02*
X77726667Y-136005000I760000J0D01*
G01*
G37*
D15*
X78866667Y-142905000D03*
D13*
X132345000Y-139895000D03*
D14*
X127265000Y-139895000D03*
D17*
X136775000Y-139680419D03*
X137719581Y-137400000D03*
X137719581Y-141960838D03*
X140000000Y-136455419D03*
D18*
X140000000Y-139680419D03*
D17*
X140000000Y-142905419D03*
X142280419Y-137400000D03*
X142280419Y-141960838D03*
X143225000Y-139680419D03*
X46775000Y-194775000D03*
X47719581Y-192494581D03*
X47719581Y-197055419D03*
X50000000Y-191550000D03*
D18*
X50000000Y-194775000D03*
D17*
X50000000Y-198000000D03*
X52280419Y-192494581D03*
X52280419Y-197055419D03*
X53225000Y-194775000D03*
D13*
X50100000Y-170215000D03*
D14*
X50100000Y-175295000D03*
X50100000Y-180375000D03*
G36*
G01*
X56760000Y-136005000D02*
X59040000Y-136005000D01*
G75*
G02*
X59800000Y-136765000I0J-760000D01*
G01*
X59800000Y-139045000D01*
G75*
G02*
X59040000Y-139805000I-760000J0D01*
G01*
X56760000Y-139805000D01*
G75*
G02*
X56000000Y-139045000I0J760000D01*
G01*
X56000000Y-136765000D01*
G75*
G02*
X56760000Y-136005000I760000J0D01*
G01*
G37*
D15*
X57900000Y-142905000D03*
D10*
X68224400Y-187502800D03*
D12*
X68224400Y-184962800D03*
X70764400Y-187502800D03*
X70764400Y-184962800D03*
X73304400Y-187502800D03*
X73304400Y-184962800D03*
X75844400Y-187502800D03*
X75844400Y-184962800D03*
G36*
G01*
X124540000Y-198600000D02*
X122260000Y-198600000D01*
G75*
G02*
X121500000Y-197840000I0J760000D01*
G01*
X121500000Y-195560000D01*
G75*
G02*
X122260000Y-194800000I760000J0D01*
G01*
X124540000Y-194800000D01*
G75*
G02*
X125300000Y-195560000I0J-760000D01*
G01*
X125300000Y-197840000D01*
G75*
G02*
X124540000Y-198600000I-760000J0D01*
G01*
G37*
D16*
X123400000Y-191700000D03*
G36*
G01*
X131150000Y-176700000D02*
X129650000Y-176700000D01*
G75*
G02*
X129400000Y-176450000I0J250000D01*
G01*
X129400000Y-174950000D01*
G75*
G02*
X129650000Y-174700000I250000J0D01*
G01*
X131150000Y-174700000D01*
G75*
G02*
X131400000Y-174950000I0J-250000D01*
G01*
X131400000Y-176450000D01*
G75*
G02*
X131150000Y-176700000I-250000J0D01*
G01*
G37*
D19*
X130400000Y-170700000D03*
D20*
X87000000Y-176882323D03*
D19*
X87000000Y-181882323D03*
G36*
G01*
X141800000Y-162750000D02*
X140350000Y-162750000D01*
G75*
G02*
X140100000Y-162500000I0J250000D01*
G01*
X140100000Y-161300000D01*
G75*
G02*
X140350000Y-161050000I250000J0D01*
G01*
X141800000Y-161050000D01*
G75*
G02*
X142050000Y-161300000I0J-250000D01*
G01*
X142050000Y-162500000D01*
G75*
G02*
X141800000Y-162750000I-250000J0D01*
G01*
G37*
D21*
X141075000Y-159400000D03*
X141075000Y-156900000D03*
X141075000Y-154400000D03*
X141075000Y-151900000D03*
D10*
X53700000Y-150700000D03*
D11*
X53700000Y-153240000D03*
X53700000Y-155780000D03*
D13*
X111378333Y-139895000D03*
D14*
X106298333Y-139895000D03*
D22*
X62000000Y-173975000D03*
X62000000Y-168795000D03*
X62000000Y-159085000D03*
X62000000Y-153925000D03*
G36*
G01*
X102950000Y-189200000D02*
X101450000Y-189200000D01*
G75*
G02*
X101200000Y-188950000I0J250000D01*
G01*
X101200000Y-187450000D01*
G75*
G02*
X101450000Y-187200000I250000J0D01*
G01*
X102950000Y-187200000D01*
G75*
G02*
X103200000Y-187450000I0J-250000D01*
G01*
X103200000Y-188950000D01*
G75*
G02*
X102950000Y-189200000I-250000J0D01*
G01*
G37*
D19*
X102200000Y-183200000D03*
D20*
X74250000Y-171000000D03*
D19*
X69250000Y-171000000D03*
G36*
G01*
X48625000Y-155300000D02*
X47125000Y-155300000D01*
G75*
G02*
X46875000Y-155050000I0J250000D01*
G01*
X46875000Y-153850000D01*
G75*
G02*
X47125000Y-153600000I250000J0D01*
G01*
X48625000Y-153600000D01*
G75*
G02*
X48875000Y-153850000I0J-250000D01*
G01*
X48875000Y-155050000D01*
G75*
G02*
X48625000Y-155300000I-250000J0D01*
G01*
G37*
D23*
X47875000Y-151950000D03*
D24*
X105375000Y-195300000D03*
X100195000Y-195300000D03*
X90485000Y-195300000D03*
X85325000Y-195300000D03*
D17*
X46775000Y-139800000D03*
X47719581Y-137519581D03*
X47719581Y-142080419D03*
X50000000Y-136575000D03*
D18*
X50000000Y-139800000D03*
D17*
X50000000Y-143025000D03*
X52280419Y-137519581D03*
X52280419Y-142080419D03*
X53225000Y-139800000D03*
G36*
G01*
X119660000Y-136005000D02*
X121940000Y-136005000D01*
G75*
G02*
X122700000Y-136765000I0J-760000D01*
G01*
X122700000Y-139045000D01*
G75*
G02*
X121940000Y-139805000I-760000J0D01*
G01*
X119660000Y-139805000D01*
G75*
G02*
X118900000Y-139045000I0J760000D01*
G01*
X118900000Y-136765000D01*
G75*
G02*
X119660000Y-136005000I760000J0D01*
G01*
G37*
D15*
X120800000Y-142905000D03*
%LPD*%
M02*
