%TF.GenerationSoftware,KiCad,Pcbnew,9.0.1+1*%
%TF.CreationDate,2026-06-06T21:04:34+00:00*%
%TF.ProjectId,hw-charger,68772d63-6861-4726-9765-722e6b696361,v0.1.0*%
%TF.SameCoordinates,Original*%
%TF.FileFunction,Drillmap*%
%TF.FilePolarity,Positive*%
%FSLAX45Y45*%
G04 Gerber Fmt 4.5, Leading zero omitted, Abs format (unit mm)*
G04 Created by KiCad (PCBNEW 9.0.1+1) date 2026-06-06 21:04:34*
%MOMM*%
%LPD*%
G01*
G04 APERTURE LIST*
%ADD10C,0.050000*%
%ADD11C,0.200000*%
%ADD12C,0.100000*%
%ADD13C,0.130000*%
%ADD14C,0.270000*%
%ADD15C,0.430000*%
G04 APERTURE END LIST*
D10*
X4500000Y-13980000D02*
G75*
G02*
X5000000Y-13480000I500000J0D01*
G01*
X5000000Y-13480000D02*
X14000000Y-13480000D01*
X14500000Y-19480000D02*
G75*
G02*
X14000000Y-19980000I-500000J0D01*
G01*
X4500000Y-19480000D02*
X4500000Y-13980000D01*
X5000000Y-19980000D02*
G75*
G02*
X4500000Y-19480000I0J500000D01*
G01*
X14000000Y-13480000D02*
G75*
G02*
X14500000Y-13980000I0J-500000D01*
G01*
X14500000Y-13980000D02*
X14500000Y-19480000D01*
X14000000Y-19980000D02*
X5000000Y-19980000D01*
D11*
D12*
X5165000Y-15805000D02*
X5195000Y-15835000D01*
X5195000Y-15805000D02*
X5165000Y-15835000D01*
X5245000Y-18555000D02*
X5275000Y-18585000D01*
X5275000Y-18555000D02*
X5245000Y-18585000D01*
X5355000Y-18875000D02*
X5385000Y-18905000D01*
X5385000Y-18875000D02*
X5355000Y-18905000D01*
X5895000Y-16865000D02*
X5925000Y-16895000D01*
X5925000Y-16865000D02*
X5895000Y-16895000D01*
X6035000Y-17860000D02*
X6065000Y-17890000D01*
X6065000Y-17860000D02*
X6035000Y-17890000D01*
X6198000Y-19148000D02*
X6228000Y-19178000D01*
X6228000Y-19148000D02*
X6198000Y-19178000D01*
X6375000Y-19215000D02*
X6405000Y-19245000D01*
X6405000Y-19215000D02*
X6375000Y-19245000D01*
X6375000Y-19705000D02*
X6405000Y-19735000D01*
X6405000Y-19705000D02*
X6375000Y-19735000D01*
X6610000Y-17485000D02*
X6640000Y-17515000D01*
X6640000Y-17485000D02*
X6610000Y-17515000D01*
X6625000Y-18965000D02*
X6655000Y-18995000D01*
X6655000Y-18965000D02*
X6625000Y-18995000D01*
X6785000Y-16785000D02*
X6815000Y-16815000D01*
X6815000Y-16785000D02*
X6785000Y-16815000D01*
X6785000Y-16885000D02*
X6815000Y-16915000D01*
X6815000Y-16885000D02*
X6785000Y-16915000D01*
X6785000Y-17285000D02*
X6815000Y-17315000D01*
X6815000Y-17285000D02*
X6785000Y-17315000D01*
X6785000Y-17385000D02*
X6815000Y-17415000D01*
X6815000Y-17385000D02*
X6785000Y-17415000D01*
X6885000Y-16785000D02*
X6915000Y-16815000D01*
X6915000Y-16785000D02*
X6885000Y-16815000D01*
X6885000Y-16885000D02*
X6915000Y-16915000D01*
X6915000Y-16885000D02*
X6885000Y-16915000D01*
X6885000Y-17285000D02*
X6915000Y-17315000D01*
X6915000Y-17285000D02*
X6885000Y-17315000D01*
X6885000Y-17385000D02*
X6915000Y-17415000D01*
X6915000Y-17385000D02*
X6885000Y-17415000D01*
X6960000Y-17860000D02*
X6990000Y-17890000D01*
X6990000Y-17860000D02*
X6960000Y-17890000D01*
X6985000Y-16785000D02*
X7015000Y-16815000D01*
X7015000Y-16785000D02*
X6985000Y-16815000D01*
X6985000Y-16885000D02*
X7015000Y-16915000D01*
X7015000Y-16885000D02*
X6985000Y-16915000D01*
X6985000Y-17285000D02*
X7015000Y-17315000D01*
X7015000Y-17285000D02*
X6985000Y-17315000D01*
X6985000Y-17385000D02*
X7015000Y-17415000D01*
X7015000Y-17385000D02*
X6985000Y-17415000D01*
X7275000Y-17945000D02*
X7305000Y-17975000D01*
X7305000Y-17945000D02*
X7275000Y-17975000D01*
X7445000Y-15935000D02*
X7475000Y-15965000D01*
X7475000Y-15935000D02*
X7445000Y-15965000D01*
X7460000Y-17710000D02*
X7490000Y-17740000D01*
X7490000Y-17710000D02*
X7460000Y-17740000D01*
X7545000Y-15365000D02*
X7575000Y-15395000D01*
X7575000Y-15365000D02*
X7545000Y-15395000D01*
X7685000Y-15935000D02*
X7715000Y-15965000D01*
X7715000Y-15935000D02*
X7685000Y-15965000D01*
X7775000Y-14985000D02*
X7805000Y-15015000D01*
X7805000Y-14985000D02*
X7775000Y-15015000D01*
X7775000Y-15555000D02*
X7805000Y-15585000D01*
X7805000Y-15555000D02*
X7775000Y-15585000D01*
X7785000Y-15675000D02*
X7815000Y-15705000D01*
X7815000Y-15675000D02*
X7785000Y-15705000D01*
X7795000Y-15415000D02*
X7825000Y-15445000D01*
X7825000Y-15415000D02*
X7795000Y-15445000D01*
X7805000Y-15325000D02*
X7835000Y-15355000D01*
X7835000Y-15325000D02*
X7805000Y-15355000D01*
X7835000Y-16575000D02*
X7865000Y-16605000D01*
X7865000Y-16575000D02*
X7835000Y-16605000D01*
X7835000Y-17660000D02*
X7865000Y-17690000D01*
X7865000Y-17660000D02*
X7835000Y-17690000D01*
X7865000Y-15255000D02*
X7895000Y-15285000D01*
X7895000Y-15255000D02*
X7865000Y-15285000D01*
X7915000Y-15605000D02*
X7945000Y-15635000D01*
X7945000Y-15605000D02*
X7915000Y-15635000D01*
X7945000Y-16045000D02*
X7975000Y-16075000D01*
X7975000Y-16045000D02*
X7945000Y-16075000D01*
X7965000Y-15255000D02*
X7995000Y-15285000D01*
X7995000Y-15255000D02*
X7965000Y-15285000D01*
X8015000Y-18965000D02*
X8045000Y-18995000D01*
X8045000Y-18965000D02*
X8015000Y-18995000D01*
X8035000Y-15125000D02*
X8065000Y-15155000D01*
X8065000Y-15125000D02*
X8035000Y-15155000D01*
X8055000Y-15875000D02*
X8085000Y-15905000D01*
X8085000Y-15875000D02*
X8055000Y-15905000D01*
X8055000Y-16475000D02*
X8085000Y-16505000D01*
X8085000Y-16475000D02*
X8055000Y-16505000D01*
X8065000Y-15675000D02*
X8095000Y-15705000D01*
X8095000Y-15675000D02*
X8065000Y-15705000D01*
X8085000Y-16575000D02*
X8115000Y-16605000D01*
X8115000Y-16575000D02*
X8085000Y-16605000D01*
X8085000Y-17660000D02*
X8115000Y-17690000D01*
X8115000Y-17660000D02*
X8085000Y-17690000D01*
X8105000Y-15195000D02*
X8135000Y-15225000D01*
X8135000Y-15195000D02*
X8105000Y-15225000D01*
X8145000Y-15045000D02*
X8175000Y-15075000D01*
X8175000Y-15045000D02*
X8145000Y-15075000D01*
X8225147Y-15820000D02*
X8255147Y-15850000D01*
X8255147Y-15820000D02*
X8225147Y-15850000D01*
X8275000Y-16415000D02*
X8305000Y-16445000D01*
X8305000Y-16415000D02*
X8275000Y-16445000D01*
X8285000Y-16045000D02*
X8315000Y-16075000D01*
X8315000Y-16045000D02*
X8285000Y-16075000D01*
X8335000Y-16835000D02*
X8365000Y-16865000D01*
X8365000Y-16835000D02*
X8335000Y-16865000D01*
X8405000Y-17565000D02*
X8435000Y-17595000D01*
X8435000Y-17565000D02*
X8405000Y-17595000D01*
X8405000Y-17665000D02*
X8435000Y-17695000D01*
X8435000Y-17665000D02*
X8405000Y-17695000D01*
X8405000Y-17765000D02*
X8435000Y-17795000D01*
X8435000Y-17765000D02*
X8405000Y-17795000D01*
X8425000Y-15345000D02*
X8455000Y-15375000D01*
X8455000Y-15345000D02*
X8425000Y-15375000D01*
X8435000Y-16345000D02*
X8465000Y-16375000D01*
X8465000Y-16345000D02*
X8435000Y-16375000D01*
X8435000Y-18085000D02*
X8465000Y-18115000D01*
X8465000Y-18085000D02*
X8435000Y-18115000D01*
X8435000Y-18185000D02*
X8465000Y-18215000D01*
X8465000Y-18185000D02*
X8435000Y-18215000D01*
X8435000Y-18285000D02*
X8465000Y-18315000D01*
X8465000Y-18285000D02*
X8435000Y-18315000D01*
X8505000Y-17565000D02*
X8535000Y-17595000D01*
X8535000Y-17565000D02*
X8505000Y-17595000D01*
X8505000Y-17665000D02*
X8535000Y-17695000D01*
X8535000Y-17665000D02*
X8505000Y-17695000D01*
X8505000Y-17765000D02*
X8535000Y-17795000D01*
X8535000Y-17765000D02*
X8505000Y-17795000D01*
X8510000Y-16910000D02*
X8540000Y-16940000D01*
X8540000Y-16910000D02*
X8510000Y-16940000D01*
X8510000Y-17035000D02*
X8540000Y-17065000D01*
X8540000Y-17035000D02*
X8510000Y-17065000D01*
X8510000Y-17235000D02*
X8540000Y-17265000D01*
X8540000Y-17235000D02*
X8510000Y-17265000D01*
X8535000Y-14805000D02*
X8565000Y-14835000D01*
X8565000Y-14805000D02*
X8535000Y-14835000D01*
X8545000Y-15055000D02*
X8575000Y-15085000D01*
X8575000Y-15055000D02*
X8545000Y-15085000D01*
X8545000Y-15305000D02*
X8575000Y-15335000D01*
X8575000Y-15305000D02*
X8545000Y-15335000D01*
X8585000Y-18385000D02*
X8615000Y-18415000D01*
X8615000Y-18385000D02*
X8585000Y-18415000D01*
X8685000Y-18385000D02*
X8715000Y-18415000D01*
X8715000Y-18385000D02*
X8685000Y-18415000D01*
X8715000Y-16175000D02*
X8745000Y-16205000D01*
X8745000Y-16175000D02*
X8715000Y-16205000D01*
X8745000Y-15055000D02*
X8775000Y-15085000D01*
X8775000Y-15055000D02*
X8745000Y-15085000D01*
X8745000Y-15309900D02*
X8775000Y-15339900D01*
X8775000Y-15309900D02*
X8745000Y-15339900D01*
X8755000Y-17235000D02*
X8785000Y-17265000D01*
X8785000Y-17235000D02*
X8755000Y-17265000D01*
X8760000Y-16910000D02*
X8790000Y-16940000D01*
X8790000Y-16910000D02*
X8760000Y-16940000D01*
X8760000Y-17035000D02*
X8790000Y-17065000D01*
X8790000Y-17035000D02*
X8760000Y-17065000D01*
X8785000Y-18385000D02*
X8815000Y-18415000D01*
X8815000Y-18385000D02*
X8785000Y-18415000D01*
X8820000Y-16180000D02*
X8850000Y-16210000D01*
X8850000Y-16180000D02*
X8820000Y-16210000D01*
X8885000Y-17735000D02*
X8915000Y-17765000D01*
X8915000Y-17735000D02*
X8885000Y-17765000D01*
X8885000Y-17835000D02*
X8915000Y-17865000D01*
X8915000Y-17835000D02*
X8885000Y-17865000D01*
X8885000Y-17935000D02*
X8915000Y-17965000D01*
X8915000Y-17935000D02*
X8885000Y-17965000D01*
X8905000Y-16405000D02*
X8935000Y-16435000D01*
X8935000Y-16405000D02*
X8905000Y-16435000D01*
X8935000Y-15305000D02*
X8965000Y-15335000D01*
X8965000Y-15305000D02*
X8935000Y-15335000D01*
X8935000Y-16835000D02*
X8965000Y-16865000D01*
X8965000Y-16835000D02*
X8935000Y-16865000D01*
X8985000Y-15570000D02*
X9015000Y-15600000D01*
X9015000Y-15570000D02*
X8985000Y-15600000D01*
X8985000Y-17735000D02*
X9015000Y-17765000D01*
X9015000Y-17735000D02*
X8985000Y-17765000D01*
X8985000Y-17835000D02*
X9015000Y-17865000D01*
X9015000Y-17835000D02*
X8985000Y-17865000D01*
X8985000Y-17935000D02*
X9015000Y-17965000D01*
X9015000Y-17935000D02*
X8985000Y-17965000D01*
X8995000Y-16065000D02*
X9025000Y-16095000D01*
X9025000Y-16065000D02*
X8995000Y-16095000D01*
X9085000Y-15345000D02*
X9115000Y-15375000D01*
X9115000Y-15345000D02*
X9085000Y-15375000D01*
X9085000Y-17735000D02*
X9115000Y-17765000D01*
X9115000Y-17735000D02*
X9085000Y-17765000D01*
X9085000Y-17835000D02*
X9115000Y-17865000D01*
X9115000Y-17835000D02*
X9085000Y-17865000D01*
X9085000Y-17935000D02*
X9115000Y-17965000D01*
X9115000Y-17935000D02*
X9085000Y-17965000D01*
X9095000Y-15505000D02*
X9125000Y-15535000D01*
X9125000Y-15505000D02*
X9095000Y-15535000D01*
X9212427Y-15997573D02*
X9242427Y-16027573D01*
X9242427Y-15997573D02*
X9212427Y-16027573D01*
X9235000Y-14805000D02*
X9265000Y-14835000D01*
X9265000Y-14805000D02*
X9235000Y-14835000D01*
X9270000Y-16090000D02*
X9300000Y-16120000D01*
X9300000Y-16090000D02*
X9270000Y-16120000D01*
X9275000Y-17925000D02*
X9305000Y-17955000D01*
X9305000Y-17925000D02*
X9275000Y-17955000D01*
X9326896Y-15543104D02*
X9356896Y-15573104D01*
X9356896Y-15543104D02*
X9326896Y-15573104D01*
X9385000Y-18235000D02*
X9415000Y-18265000D01*
X9415000Y-18235000D02*
X9385000Y-18265000D01*
X9385000Y-18335000D02*
X9415000Y-18365000D01*
X9415000Y-18335000D02*
X9385000Y-18365000D01*
X9445000Y-15025000D02*
X9475000Y-15055000D01*
X9475000Y-15025000D02*
X9445000Y-15055000D01*
X9485000Y-18235000D02*
X9515000Y-18265000D01*
X9515000Y-18235000D02*
X9485000Y-18265000D01*
X9485000Y-18335000D02*
X9515000Y-18365000D01*
X9515000Y-18335000D02*
X9485000Y-18365000D01*
X9560795Y-16435000D02*
X9590795Y-16465000D01*
X9590795Y-16435000D02*
X9560795Y-16465000D01*
X9583934Y-15596066D02*
X9613934Y-15626066D01*
X9613934Y-15596066D02*
X9583934Y-15626066D01*
X9585000Y-18235000D02*
X9615000Y-18265000D01*
X9615000Y-18235000D02*
X9585000Y-18265000D01*
X9585000Y-18335000D02*
X9615000Y-18365000D01*
X9615000Y-18335000D02*
X9585000Y-18365000D01*
X9625000Y-15685000D02*
X9655000Y-15715000D01*
X9655000Y-15685000D02*
X9625000Y-15715000D01*
X9735000Y-16065000D02*
X9765000Y-16095000D01*
X9765000Y-16065000D02*
X9735000Y-16095000D01*
X9785000Y-18105000D02*
X9815000Y-18135000D01*
X9815000Y-18105000D02*
X9785000Y-18135000D01*
X9985000Y-15185000D02*
X10015000Y-15215000D01*
X10015000Y-15185000D02*
X9985000Y-15215000D01*
X10003000Y-18115000D02*
X10033000Y-18145000D01*
X10033000Y-18115000D02*
X10003000Y-18145000D01*
X10003000Y-18215000D02*
X10033000Y-18245000D01*
X10033000Y-18215000D02*
X10003000Y-18245000D01*
X10003000Y-18315000D02*
X10033000Y-18345000D01*
X10033000Y-18315000D02*
X10003000Y-18345000D01*
X10055000Y-15555000D02*
X10085000Y-15585000D01*
X10085000Y-15555000D02*
X10055000Y-15585000D01*
X10095000Y-16165000D02*
X10125000Y-16195000D01*
X10125000Y-16165000D02*
X10095000Y-16195000D01*
X10095000Y-16935000D02*
X10125000Y-16965000D01*
X10125000Y-16935000D02*
X10095000Y-16965000D01*
X10115000Y-18115000D02*
X10145000Y-18145000D01*
X10145000Y-18115000D02*
X10115000Y-18145000D01*
X10225000Y-18115000D02*
X10255000Y-18145000D01*
X10255000Y-18115000D02*
X10225000Y-18145000D01*
X10245000Y-16075000D02*
X10275000Y-16105000D01*
X10275000Y-16075000D02*
X10245000Y-16105000D01*
X10275000Y-15765000D02*
X10305000Y-15795000D01*
X10305000Y-15765000D02*
X10275000Y-15795000D01*
X10445000Y-16775000D02*
X10475000Y-16805000D01*
X10475000Y-16775000D02*
X10445000Y-16805000D01*
X10775000Y-16665000D02*
X10805000Y-16695000D01*
X10805000Y-16665000D02*
X10775000Y-16695000D01*
X10815000Y-15275000D02*
X10845000Y-15305000D01*
X10845000Y-15275000D02*
X10815000Y-15305000D01*
X10865000Y-18245000D02*
X10895000Y-18275000D01*
X10895000Y-18245000D02*
X10865000Y-18275000D01*
X10865000Y-18763750D02*
X10895000Y-18793750D01*
X10895000Y-18763750D02*
X10865000Y-18793750D01*
X11115000Y-18245000D02*
X11145000Y-18275000D01*
X11145000Y-18245000D02*
X11115000Y-18275000D01*
X11115000Y-18765000D02*
X11145000Y-18795000D01*
X11145000Y-18765000D02*
X11115000Y-18795000D01*
X11285000Y-14925000D02*
X11315000Y-14955000D01*
X11315000Y-14925000D02*
X11285000Y-14955000D01*
X11285000Y-16665000D02*
X11315000Y-16695000D01*
X11315000Y-16665000D02*
X11285000Y-16695000D01*
X11365000Y-18245000D02*
X11395000Y-18275000D01*
X11395000Y-18245000D02*
X11365000Y-18275000D01*
X11365000Y-18765000D02*
X11395000Y-18795000D01*
X11395000Y-18765000D02*
X11365000Y-18795000D01*
X11425000Y-14785000D02*
X11455000Y-14815000D01*
X11455000Y-14785000D02*
X11425000Y-14815000D01*
X11525000Y-17925000D02*
X11555000Y-17955000D01*
X11555000Y-17925000D02*
X11525000Y-17955000D01*
X11557497Y-15032503D02*
X11587497Y-15062503D01*
X11587497Y-15032503D02*
X11557497Y-15062503D01*
X11615000Y-18245000D02*
X11645000Y-18275000D01*
X11645000Y-18245000D02*
X11615000Y-18275000D01*
X11615000Y-18765000D02*
X11645000Y-18795000D01*
X11645000Y-18765000D02*
X11615000Y-18795000D01*
X11675000Y-14925000D02*
X11705000Y-14955000D01*
X11705000Y-14925000D02*
X11675000Y-14955000D01*
X11705000Y-14725000D02*
X11735000Y-14755000D01*
X11735000Y-14725000D02*
X11705000Y-14755000D01*
X11840000Y-16795000D02*
X11870000Y-16825000D01*
X11870000Y-16795000D02*
X11840000Y-16825000D01*
X11860000Y-18085000D02*
X11890000Y-18115000D01*
X11890000Y-18085000D02*
X11860000Y-18115000D01*
X11865000Y-16055000D02*
X11895000Y-16085000D01*
X11895000Y-16055000D02*
X11865000Y-16085000D01*
X11975000Y-16795000D02*
X12005000Y-16825000D01*
X12005000Y-16795000D02*
X11975000Y-16825000D01*
X11985000Y-18085000D02*
X12015000Y-18115000D01*
X12015000Y-18085000D02*
X11985000Y-18115000D01*
X12110000Y-18085000D02*
X12140000Y-18115000D01*
X12140000Y-18085000D02*
X12110000Y-18115000D01*
X12145000Y-18412500D02*
X12175000Y-18442500D01*
X12175000Y-18412500D02*
X12145000Y-18442500D01*
X12295000Y-18295000D02*
X12325000Y-18325000D01*
X12325000Y-18295000D02*
X12295000Y-18325000D01*
X12360000Y-17560000D02*
X12390000Y-17590000D01*
X12390000Y-17560000D02*
X12360000Y-17590000D01*
X12360000Y-17685000D02*
X12390000Y-17715000D01*
X12390000Y-17685000D02*
X12360000Y-17715000D01*
X12360000Y-17810000D02*
X12390000Y-17840000D01*
X12390000Y-17810000D02*
X12360000Y-17840000D01*
X12360000Y-17935000D02*
X12390000Y-17965000D01*
X12390000Y-17935000D02*
X12360000Y-17965000D01*
X12370000Y-17070000D02*
X12400000Y-17100000D01*
X12400000Y-17070000D02*
X12370000Y-17100000D01*
X12370000Y-17200000D02*
X12400000Y-17230000D01*
X12400000Y-17200000D02*
X12370000Y-17230000D01*
X12370000Y-17325000D02*
X12400000Y-17355000D01*
X12400000Y-17325000D02*
X12370000Y-17355000D01*
X12375000Y-16945000D02*
X12405000Y-16975000D01*
X12405000Y-16945000D02*
X12375000Y-16975000D01*
X12500000Y-16940000D02*
X12530000Y-16970000D01*
X12530000Y-16940000D02*
X12500000Y-16970000D01*
X12500000Y-17070000D02*
X12530000Y-17100000D01*
X12530000Y-17070000D02*
X12500000Y-17100000D01*
X12500000Y-17200000D02*
X12530000Y-17230000D01*
X12530000Y-17200000D02*
X12500000Y-17230000D01*
X12545000Y-18005000D02*
X12575000Y-18035000D01*
X12575000Y-18005000D02*
X12545000Y-18035000D01*
X12545000Y-18295000D02*
X12575000Y-18325000D01*
X12575000Y-18295000D02*
X12545000Y-18325000D01*
X12630000Y-16940000D02*
X12660000Y-16970000D01*
X12660000Y-16940000D02*
X12630000Y-16970000D01*
X12630000Y-17070000D02*
X12660000Y-17100000D01*
X12660000Y-17070000D02*
X12630000Y-17100000D01*
X12630000Y-17200000D02*
X12660000Y-17230000D01*
X12660000Y-17200000D02*
X12630000Y-17230000D01*
X12695000Y-18117500D02*
X12725000Y-18147500D01*
X12725000Y-18117500D02*
X12695000Y-18147500D01*
X12695000Y-18415000D02*
X12725000Y-18445000D01*
X12725000Y-18415000D02*
X12695000Y-18445000D01*
X12795000Y-17945000D02*
X12825000Y-17975000D01*
X12825000Y-17945000D02*
X12795000Y-17975000D01*
X12795000Y-18545000D02*
X12825000Y-18575000D01*
X12825000Y-18545000D02*
X12795000Y-18575000D01*
X12845000Y-16955000D02*
X12875000Y-16985000D01*
X12875000Y-16955000D02*
X12845000Y-16985000D01*
X12845000Y-17055000D02*
X12875000Y-17085000D01*
X12875000Y-17055000D02*
X12845000Y-17085000D01*
X12845000Y-17155000D02*
X12875000Y-17185000D01*
X12875000Y-17155000D02*
X12845000Y-17185000D01*
X12895000Y-17835000D02*
X12925000Y-17865000D01*
X12925000Y-17835000D02*
X12895000Y-17865000D01*
X12895000Y-18665000D02*
X12925000Y-18695000D01*
X12925000Y-18665000D02*
X12895000Y-18695000D01*
X12895000Y-19155000D02*
X12925000Y-19185000D01*
X12925000Y-19155000D02*
X12895000Y-19185000D01*
X12925000Y-18235000D02*
X12955000Y-18265000D01*
X12955000Y-18235000D02*
X12925000Y-18265000D01*
X12995000Y-15085000D02*
X13025000Y-15115000D01*
X13025000Y-15085000D02*
X12995000Y-15115000D01*
X12995000Y-15745000D02*
X13025000Y-15775000D01*
X13025000Y-15745000D02*
X12995000Y-15775000D01*
X13025000Y-17835000D02*
X13055000Y-17865000D01*
X13055000Y-17835000D02*
X13025000Y-17865000D01*
X13025000Y-18665000D02*
X13055000Y-18695000D01*
X13055000Y-18665000D02*
X13025000Y-18695000D01*
X13135000Y-18115000D02*
X13165000Y-18145000D01*
X13165000Y-18115000D02*
X13135000Y-18145000D01*
X13135000Y-18365000D02*
X13165000Y-18395000D01*
X13165000Y-18365000D02*
X13135000Y-18395000D01*
X13155000Y-17835000D02*
X13185000Y-17865000D01*
X13185000Y-17835000D02*
X13155000Y-17865000D01*
X13155000Y-18665000D02*
X13185000Y-18695000D01*
X13185000Y-18665000D02*
X13155000Y-18695000D01*
X13235000Y-16405000D02*
X13265000Y-16435000D01*
X13265000Y-16405000D02*
X13235000Y-16435000D01*
X13285000Y-18745000D02*
X13315000Y-18775000D01*
X13315000Y-18745000D02*
X13285000Y-18775000D01*
X13505000Y-15765000D02*
X13535000Y-15795000D01*
X13535000Y-15765000D02*
X13505000Y-15795000D01*
X13545000Y-17835000D02*
X13575000Y-17865000D01*
X13575000Y-17835000D02*
X13545000Y-17865000D01*
X13575000Y-15555000D02*
X13605000Y-15585000D01*
X13605000Y-15555000D02*
X13575000Y-15585000D01*
X13575000Y-16205000D02*
X13605000Y-16235000D01*
X13605000Y-16205000D02*
X13575000Y-16235000D01*
X13725000Y-15375000D02*
X13755000Y-15405000D01*
X13755000Y-15375000D02*
X13725000Y-15405000D01*
X13735000Y-16745000D02*
X13765000Y-16775000D01*
X13765000Y-16745000D02*
X13735000Y-16775000D01*
X13915000Y-17595000D02*
X13945000Y-17625000D01*
X13945000Y-17595000D02*
X13915000Y-17625000D01*
X14155000Y-16585000D02*
X14185000Y-16615000D01*
X14185000Y-16585000D02*
X14155000Y-16615000D01*
X14235000Y-16745000D02*
X14265000Y-16775000D01*
X14265000Y-16745000D02*
X14235000Y-16775000D01*
X8520000Y-15654000D02*
G75*
G02*
X8490000Y-15654000I-15000J0D01*
G01*
X8490000Y-15654000D02*
G75*
G02*
X8520000Y-15654000I15000J0D01*
G01*
X8520000Y-15770000D02*
G75*
G02*
X8490000Y-15770000I-15000J0D01*
G01*
X8490000Y-15770000D02*
G75*
G02*
X8520000Y-15770000I15000J0D01*
G01*
X8520000Y-15886000D02*
G75*
G02*
X8490000Y-15886000I-15000J0D01*
G01*
X8490000Y-15886000D02*
G75*
G02*
X8520000Y-15886000I15000J0D01*
G01*
X8613500Y-15565000D02*
G75*
G02*
X8583500Y-15565000I-15000J0D01*
G01*
X8583500Y-15565000D02*
G75*
G02*
X8613500Y-15565000I15000J0D01*
G01*
X8613500Y-15654000D02*
G75*
G02*
X8583500Y-15654000I-15000J0D01*
G01*
X8583500Y-15654000D02*
G75*
G02*
X8613500Y-15654000I15000J0D01*
G01*
X8613500Y-15770000D02*
G75*
G02*
X8583500Y-15770000I-15000J0D01*
G01*
X8583500Y-15770000D02*
G75*
G02*
X8613500Y-15770000I15000J0D01*
G01*
X8613500Y-15886000D02*
G75*
G02*
X8583500Y-15886000I-15000J0D01*
G01*
X8583500Y-15886000D02*
G75*
G02*
X8613500Y-15886000I15000J0D01*
G01*
X8613500Y-15975000D02*
G75*
G02*
X8583500Y-15975000I-15000J0D01*
G01*
X8583500Y-15975000D02*
G75*
G02*
X8613500Y-15975000I15000J0D01*
G01*
X8736500Y-15565000D02*
G75*
G02*
X8706500Y-15565000I-15000J0D01*
G01*
X8706500Y-15565000D02*
G75*
G02*
X8736500Y-15565000I15000J0D01*
G01*
X8736500Y-15654000D02*
G75*
G02*
X8706500Y-15654000I-15000J0D01*
G01*
X8706500Y-15654000D02*
G75*
G02*
X8736500Y-15654000I15000J0D01*
G01*
X8736500Y-15770000D02*
G75*
G02*
X8706500Y-15770000I-15000J0D01*
G01*
X8706500Y-15770000D02*
G75*
G02*
X8736500Y-15770000I15000J0D01*
G01*
X8736500Y-15886000D02*
G75*
G02*
X8706500Y-15886000I-15000J0D01*
G01*
X8706500Y-15886000D02*
G75*
G02*
X8736500Y-15886000I15000J0D01*
G01*
X8736500Y-15975000D02*
G75*
G02*
X8706500Y-15975000I-15000J0D01*
G01*
X8706500Y-15975000D02*
G75*
G02*
X8736500Y-15975000I15000J0D01*
G01*
X8830000Y-15654000D02*
G75*
G02*
X8800000Y-15654000I-15000J0D01*
G01*
X8800000Y-15654000D02*
G75*
G02*
X8830000Y-15654000I15000J0D01*
G01*
X8830000Y-15770000D02*
G75*
G02*
X8800000Y-15770000I-15000J0D01*
G01*
X8800000Y-15770000D02*
G75*
G02*
X8830000Y-15770000I15000J0D01*
G01*
X8830000Y-15886000D02*
G75*
G02*
X8800000Y-15886000I-15000J0D01*
G01*
X8800000Y-15886000D02*
G75*
G02*
X8830000Y-15886000I15000J0D01*
G01*
X6200000Y-15362503D02*
X6200000Y-15422497D01*
X6170003Y-15392500D02*
X6229997Y-15392500D01*
X6259944Y-15362503D02*
X6140056Y-15362503D01*
X6140056Y-15422497D02*
G75*
G02*
X6140056Y-15362503I0J29997D01*
G01*
X6140056Y-15422497D02*
X6259944Y-15422497D01*
X6259944Y-15422497D02*
G75*
G03*
X6259944Y-15362503I0J29997D01*
G01*
X6200000Y-15878503D02*
X6200000Y-15938497D01*
X6170003Y-15908500D02*
X6229997Y-15908500D01*
X6259995Y-15878503D02*
X6140005Y-15878503D01*
X6140005Y-15938497D02*
G75*
G02*
X6140005Y-15878503I0J29997D01*
G01*
X6140005Y-15938497D02*
X6259995Y-15938497D01*
X6259995Y-15938497D02*
G75*
G03*
X6259995Y-15878503I0J29997D01*
G01*
X6200000Y-16849503D02*
X6200000Y-16909497D01*
X6170003Y-16879500D02*
X6229997Y-16879500D01*
X6140005Y-16909497D02*
X6259995Y-16909497D01*
X6259995Y-16849503D02*
G75*
G02*
X6259995Y-16909497I0J-29997D01*
G01*
X6259995Y-16849503D02*
X6140005Y-16849503D01*
X6140005Y-16849503D02*
G75*
G03*
X6140005Y-16909497I0J-29997D01*
G01*
X6200000Y-17367503D02*
X6200000Y-17427497D01*
X6170003Y-17397500D02*
X6229997Y-17397500D01*
X6140056Y-17427497D02*
X6259944Y-17427497D01*
X6259944Y-17367503D02*
G75*
G02*
X6259944Y-17427497I0J-29997D01*
G01*
X6259944Y-17367503D02*
X6140056Y-17367503D01*
X6140056Y-17367503D02*
G75*
G03*
X6140056Y-17427497I0J-29997D01*
G01*
X8532500Y-19500003D02*
X8532500Y-19559997D01*
X8502503Y-19530000D02*
X8562497Y-19530000D01*
X8502503Y-19470056D02*
X8502503Y-19589944D01*
X8562497Y-19589944D02*
G75*
G02*
X8502503Y-19589944I-29997J0D01*
G01*
X8562497Y-19589944D02*
X8562497Y-19470056D01*
X8562497Y-19470056D02*
G75*
G03*
X8502503Y-19470056I-29997J0D01*
G01*
X9048500Y-19500003D02*
X9048500Y-19559997D01*
X9018503Y-19530000D02*
X9078497Y-19530000D01*
X9018503Y-19470005D02*
X9018503Y-19589995D01*
X9078497Y-19589995D02*
G75*
G02*
X9018503Y-19589995I-29997J0D01*
G01*
X9078497Y-19589995D02*
X9078497Y-19470005D01*
X9078497Y-19470005D02*
G75*
G03*
X9018503Y-19470005I-29997J0D01*
G01*
X10019500Y-19500003D02*
X10019500Y-19559997D01*
X9989503Y-19530000D02*
X10049497Y-19530000D01*
X10049497Y-19589995D02*
X10049497Y-19470005D01*
X9989503Y-19470005D02*
G75*
G02*
X10049497Y-19470005I29997J0D01*
G01*
X9989503Y-19470005D02*
X9989503Y-19589995D01*
X9989503Y-19589995D02*
G75*
G03*
X10049497Y-19589995I29997J0D01*
G01*
X10537500Y-19500003D02*
X10537500Y-19559997D01*
X10507503Y-19530000D02*
X10567497Y-19530000D01*
X10567497Y-19589944D02*
X10567497Y-19470056D01*
X10507503Y-19470056D02*
G75*
G02*
X10567497Y-19470056I29997J0D01*
G01*
X10507503Y-19470056D02*
X10507503Y-19589944D01*
X10507503Y-19589944D02*
G75*
G03*
X10567497Y-19589944I29997J0D01*
G01*
X4698713Y-14001213D02*
X4698713Y-13958787D01*
X4656287Y-13958787D01*
X4656287Y-14001213D01*
X4698713Y-14001213D01*
X4698713Y-19498713D02*
X4698713Y-19456287D01*
X4656287Y-19456287D01*
X4656287Y-19498713D01*
X4698713Y-19498713D01*
X4793172Y-13773171D02*
X4793172Y-13730745D01*
X4750745Y-13730745D01*
X4750745Y-13773171D01*
X4793172Y-13773171D01*
X4793172Y-14229255D02*
X4793172Y-14186828D01*
X4750745Y-14186828D01*
X4750745Y-14229255D01*
X4793172Y-14229255D01*
X4793172Y-19270672D02*
X4793172Y-19228245D01*
X4750745Y-19228245D01*
X4750745Y-19270672D01*
X4793172Y-19270672D01*
X4793172Y-19726755D02*
X4793172Y-19684329D01*
X4750745Y-19684329D01*
X4750745Y-19726755D01*
X4793172Y-19726755D01*
X5021213Y-13678713D02*
X5021213Y-13636287D01*
X4978787Y-13636287D01*
X4978787Y-13678713D01*
X5021213Y-13678713D01*
X5021213Y-14323713D02*
X5021213Y-14281287D01*
X4978787Y-14281287D01*
X4978787Y-14323713D01*
X5021213Y-14323713D01*
X5021213Y-19176213D02*
X5021213Y-19133787D01*
X4978787Y-19133787D01*
X4978787Y-19176213D01*
X5021213Y-19176213D01*
X5021213Y-19821213D02*
X5021213Y-19778787D01*
X4978787Y-19778787D01*
X4978787Y-19821213D01*
X5021213Y-19821213D01*
X5249255Y-13773171D02*
X5249255Y-13730745D01*
X5206829Y-13730745D01*
X5206829Y-13773171D01*
X5249255Y-13773171D01*
X5249255Y-14229255D02*
X5249255Y-14186828D01*
X5206829Y-14186828D01*
X5206829Y-14229255D01*
X5249255Y-14229255D01*
X5249255Y-19270672D02*
X5249255Y-19228245D01*
X5206829Y-19228245D01*
X5206829Y-19270672D01*
X5249255Y-19270672D01*
X5249255Y-19726755D02*
X5249255Y-19684329D01*
X5206829Y-19684329D01*
X5206829Y-19726755D01*
X5249255Y-19726755D01*
X5343713Y-14001213D02*
X5343713Y-13958787D01*
X5301287Y-13958787D01*
X5301287Y-14001213D01*
X5343713Y-14001213D01*
X5343713Y-19498713D02*
X5343713Y-19456287D01*
X5301287Y-19456287D01*
X5301287Y-19498713D01*
X5343713Y-19498713D01*
X13698713Y-13989255D02*
X13698713Y-13946828D01*
X13656287Y-13946828D01*
X13656287Y-13989255D01*
X13698713Y-13989255D01*
X13698713Y-19498713D02*
X13698713Y-19456287D01*
X13656287Y-19456287D01*
X13656287Y-19498713D01*
X13698713Y-19498713D01*
X13793171Y-13761213D02*
X13793171Y-13718787D01*
X13750745Y-13718787D01*
X13750745Y-13761213D01*
X13793171Y-13761213D01*
X13793171Y-14217297D02*
X13793171Y-14174870D01*
X13750745Y-14174870D01*
X13750745Y-14217297D01*
X13793171Y-14217297D01*
X13793171Y-19270672D02*
X13793171Y-19228245D01*
X13750745Y-19228245D01*
X13750745Y-19270672D01*
X13793171Y-19270672D01*
X13793171Y-19726755D02*
X13793171Y-19684329D01*
X13750745Y-19684329D01*
X13750745Y-19726755D01*
X13793171Y-19726755D01*
X14021213Y-13666755D02*
X14021213Y-13624328D01*
X13978787Y-13624328D01*
X13978787Y-13666755D01*
X14021213Y-13666755D01*
X14021213Y-14311755D02*
X14021213Y-14269328D01*
X13978787Y-14269328D01*
X13978787Y-14311755D01*
X14021213Y-14311755D01*
X14021213Y-19176213D02*
X14021213Y-19133787D01*
X13978787Y-19133787D01*
X13978787Y-19176213D01*
X14021213Y-19176213D01*
X14021213Y-19821213D02*
X14021213Y-19778787D01*
X13978787Y-19778787D01*
X13978787Y-19821213D01*
X14021213Y-19821213D01*
X14249255Y-13761213D02*
X14249255Y-13718787D01*
X14206828Y-13718787D01*
X14206828Y-13761213D01*
X14249255Y-13761213D01*
X14249255Y-14217297D02*
X14249255Y-14174870D01*
X14206828Y-14174870D01*
X14206828Y-14217297D01*
X14249255Y-14217297D01*
X14249255Y-19270672D02*
X14249255Y-19228245D01*
X14206828Y-19228245D01*
X14206828Y-19270672D01*
X14249255Y-19270672D01*
X14249255Y-19726755D02*
X14249255Y-19684329D01*
X14206828Y-19684329D01*
X14206828Y-19726755D01*
X14249255Y-19726755D01*
X14343713Y-13989255D02*
X14343713Y-13946828D01*
X14301287Y-13946828D01*
X14301287Y-13989255D01*
X14343713Y-13989255D01*
X14343713Y-19498713D02*
X14343713Y-19456287D01*
X14301287Y-19456287D01*
X14301287Y-19498713D01*
X14343713Y-19498713D01*
X14107500Y-15237500D02*
X14155000Y-15190000D01*
X14107500Y-15142500D01*
X14060000Y-15190000D01*
X14107500Y-15237500D01*
X14107500Y-15487500D02*
X14155000Y-15440000D01*
X14107500Y-15392500D01*
X14060000Y-15440000D01*
X14107500Y-15487500D01*
X14107500Y-15737500D02*
X14155000Y-15690000D01*
X14107500Y-15642500D01*
X14060000Y-15690000D01*
X14107500Y-15737500D01*
X14107500Y-15987500D02*
X14155000Y-15940000D01*
X14107500Y-15892500D01*
X14060000Y-15940000D01*
X14107500Y-15987500D01*
X14107500Y-16237500D02*
X14155000Y-16190000D01*
X14107500Y-16142500D01*
X14060000Y-16190000D01*
X14107500Y-16237500D01*
X4737500Y-15145000D02*
X4837500Y-15245000D01*
X4837500Y-15145000D02*
X4737500Y-15245000D01*
X4837500Y-15195000D02*
G75*
G02*
X4737500Y-15195000I-50000J0D01*
G01*
X4737500Y-15195000D02*
G75*
G02*
X4837500Y-15195000I50000J0D01*
G01*
X4737500Y-15395000D02*
X4837500Y-15495000D01*
X4837500Y-15395000D02*
X4737500Y-15495000D01*
X4837500Y-15445000D02*
G75*
G02*
X4737500Y-15445000I-50000J0D01*
G01*
X4737500Y-15445000D02*
G75*
G02*
X4837500Y-15445000I50000J0D01*
G01*
X5320000Y-15020000D02*
X5420000Y-15120000D01*
X5420000Y-15020000D02*
X5320000Y-15120000D01*
X5420000Y-15070000D02*
G75*
G02*
X5320000Y-15070000I-50000J0D01*
G01*
X5320000Y-15070000D02*
G75*
G02*
X5420000Y-15070000I50000J0D01*
G01*
X5320000Y-15274000D02*
X5420000Y-15374000D01*
X5420000Y-15274000D02*
X5320000Y-15374000D01*
X5420000Y-15324000D02*
G75*
G02*
X5320000Y-15324000I-50000J0D01*
G01*
X5320000Y-15324000D02*
G75*
G02*
X5420000Y-15324000I50000J0D01*
G01*
X5320000Y-15528000D02*
X5420000Y-15628000D01*
X5420000Y-15528000D02*
X5320000Y-15628000D01*
X5420000Y-15578000D02*
G75*
G02*
X5320000Y-15578000I-50000J0D01*
G01*
X5320000Y-15578000D02*
G75*
G02*
X5420000Y-15578000I50000J0D01*
G01*
X5592000Y-19430000D02*
X5692000Y-19530000D01*
X5692000Y-19430000D02*
X5592000Y-19530000D01*
X5692000Y-19480000D02*
G75*
G02*
X5592000Y-19480000I-50000J0D01*
G01*
X5592000Y-19480000D02*
G75*
G02*
X5692000Y-19480000I50000J0D01*
G01*
X5846000Y-19430000D02*
X5946000Y-19530000D01*
X5946000Y-19430000D02*
X5846000Y-19530000D01*
X5946000Y-19480000D02*
G75*
G02*
X5846000Y-19480000I-50000J0D01*
G01*
X5846000Y-19480000D02*
G75*
G02*
X5946000Y-19480000I50000J0D01*
G01*
X6100000Y-19430000D02*
X6200000Y-19530000D01*
X6200000Y-19430000D02*
X6100000Y-19530000D01*
X6200000Y-19480000D02*
G75*
G02*
X6100000Y-19480000I-50000J0D01*
G01*
X6100000Y-19480000D02*
G75*
G02*
X6200000Y-19480000I50000J0D01*
G01*
X6772440Y-18446280D02*
X6872440Y-18546280D01*
X6872440Y-18446280D02*
X6772440Y-18546280D01*
X6872440Y-18496280D02*
G75*
G02*
X6772440Y-18496280I-50000J0D01*
G01*
X6772440Y-18496280D02*
G75*
G02*
X6872440Y-18496280I50000J0D01*
G01*
X6772440Y-18700280D02*
X6872440Y-18800280D01*
X6872440Y-18700280D02*
X6772440Y-18800280D01*
X6872440Y-18750280D02*
G75*
G02*
X6772440Y-18750280I-50000J0D01*
G01*
X6772440Y-18750280D02*
G75*
G02*
X6872440Y-18750280I50000J0D01*
G01*
X6875000Y-17050000D02*
X6975000Y-17150000D01*
X6975000Y-17050000D02*
X6875000Y-17150000D01*
X6975000Y-17100000D02*
G75*
G02*
X6875000Y-17100000I-50000J0D01*
G01*
X6875000Y-17100000D02*
G75*
G02*
X6975000Y-17100000I50000J0D01*
G01*
X7026440Y-18446280D02*
X7126440Y-18546280D01*
X7126440Y-18446280D02*
X7026440Y-18546280D01*
X7126440Y-18496280D02*
G75*
G02*
X7026440Y-18496280I-50000J0D01*
G01*
X7026440Y-18496280D02*
G75*
G02*
X7126440Y-18496280I50000J0D01*
G01*
X7026440Y-18700280D02*
X7126440Y-18800280D01*
X7126440Y-18700280D02*
X7026440Y-18800280D01*
X7126440Y-18750280D02*
G75*
G02*
X7026440Y-18750280I-50000J0D01*
G01*
X7026440Y-18750280D02*
G75*
G02*
X7126440Y-18750280I50000J0D01*
G01*
X7280440Y-18446280D02*
X7380440Y-18546280D01*
X7380440Y-18446280D02*
X7280440Y-18546280D01*
X7380440Y-18496280D02*
G75*
G02*
X7280440Y-18496280I-50000J0D01*
G01*
X7280440Y-18496280D02*
G75*
G02*
X7380440Y-18496280I50000J0D01*
G01*
X7280440Y-18700280D02*
X7380440Y-18800280D01*
X7380440Y-18700280D02*
X7280440Y-18800280D01*
X7380440Y-18750280D02*
G75*
G02*
X7280440Y-18750280I-50000J0D01*
G01*
X7280440Y-18750280D02*
G75*
G02*
X7380440Y-18750280I50000J0D01*
G01*
X7375000Y-17050000D02*
X7475000Y-17150000D01*
X7475000Y-17050000D02*
X7375000Y-17150000D01*
X7475000Y-17100000D02*
G75*
G02*
X7375000Y-17100000I-50000J0D01*
G01*
X7375000Y-17100000D02*
G75*
G02*
X7475000Y-17100000I50000J0D01*
G01*
X7534440Y-18446280D02*
X7634440Y-18546280D01*
X7634440Y-18446280D02*
X7534440Y-18546280D01*
X7634440Y-18496280D02*
G75*
G02*
X7534440Y-18496280I-50000J0D01*
G01*
X7534440Y-18496280D02*
G75*
G02*
X7634440Y-18496280I50000J0D01*
G01*
X7534440Y-18700280D02*
X7634440Y-18800280D01*
X7634440Y-18700280D02*
X7534440Y-18800280D01*
X7634440Y-18750280D02*
G75*
G02*
X7534440Y-18750280I-50000J0D01*
G01*
X7534440Y-18750280D02*
G75*
G02*
X7634440Y-18750280I50000J0D01*
G01*
X8650000Y-17638232D02*
X8750000Y-17738232D01*
X8750000Y-17638232D02*
X8650000Y-17738232D01*
X8750000Y-17688232D02*
G75*
G02*
X8650000Y-17688232I-50000J0D01*
G01*
X8650000Y-17688232D02*
G75*
G02*
X8750000Y-17688232I50000J0D01*
G01*
X8650000Y-18138232D02*
X8750000Y-18238232D01*
X8750000Y-18138232D02*
X8650000Y-18238232D01*
X8750000Y-18188232D02*
G75*
G02*
X8650000Y-18188232I-50000J0D01*
G01*
X8650000Y-18188232D02*
G75*
G02*
X8750000Y-18188232I50000J0D01*
G01*
X10170000Y-18270000D02*
X10270000Y-18370000D01*
X10270000Y-18270000D02*
X10170000Y-18370000D01*
X10270000Y-18320000D02*
G75*
G02*
X10170000Y-18320000I-50000J0D01*
G01*
X10170000Y-18320000D02*
G75*
G02*
X10270000Y-18320000I50000J0D01*
G01*
X10170000Y-18770000D02*
X10270000Y-18870000D01*
X10270000Y-18770000D02*
X10170000Y-18870000D01*
X10270000Y-18820000D02*
G75*
G02*
X10170000Y-18820000I-50000J0D01*
G01*
X10170000Y-18820000D02*
G75*
G02*
X10270000Y-18820000I50000J0D01*
G01*
X10313500Y-15240000D02*
X10413500Y-15340000D01*
X10413500Y-15240000D02*
X10313500Y-15340000D01*
X10413500Y-15290000D02*
G75*
G02*
X10313500Y-15290000I-50000J0D01*
G01*
X10313500Y-15290000D02*
G75*
G02*
X10413500Y-15290000I50000J0D01*
G01*
X10361000Y-15912500D02*
X10461000Y-16012500D01*
X10461000Y-15912500D02*
X10361000Y-16012500D01*
X10461000Y-15962500D02*
G75*
G02*
X10361000Y-15962500I-50000J0D01*
G01*
X10361000Y-15962500D02*
G75*
G02*
X10461000Y-15962500I50000J0D01*
G01*
X10361000Y-16166500D02*
X10461000Y-16266500D01*
X10461000Y-16166500D02*
X10361000Y-16266500D01*
X10461000Y-16216500D02*
G75*
G02*
X10361000Y-16216500I-50000J0D01*
G01*
X10361000Y-16216500D02*
G75*
G02*
X10461000Y-16216500I50000J0D01*
G01*
X10567500Y-15240000D02*
X10667500Y-15340000D01*
X10667500Y-15240000D02*
X10567500Y-15340000D01*
X10667500Y-15290000D02*
G75*
G02*
X10567500Y-15290000I-50000J0D01*
G01*
X10567500Y-15290000D02*
G75*
G02*
X10667500Y-15290000I50000J0D01*
G01*
X10615000Y-15912500D02*
X10715000Y-16012500D01*
X10715000Y-15912500D02*
X10615000Y-16012500D01*
X10715000Y-15962500D02*
G75*
G02*
X10615000Y-15962500I-50000J0D01*
G01*
X10615000Y-15962500D02*
G75*
G02*
X10715000Y-15962500I50000J0D01*
G01*
X10615000Y-16166500D02*
X10715000Y-16266500D01*
X10715000Y-16166500D02*
X10615000Y-16266500D01*
X10715000Y-16216500D02*
G75*
G02*
X10615000Y-16216500I-50000J0D01*
G01*
X10615000Y-16216500D02*
G75*
G02*
X10715000Y-16216500I50000J0D01*
G01*
X10869000Y-15912500D02*
X10969000Y-16012500D01*
X10969000Y-15912500D02*
X10869000Y-16012500D01*
X10969000Y-15962500D02*
G75*
G02*
X10869000Y-15962500I-50000J0D01*
G01*
X10869000Y-15962500D02*
G75*
G02*
X10969000Y-15962500I50000J0D01*
G01*
X10869000Y-16166500D02*
X10969000Y-16266500D01*
X10969000Y-16166500D02*
X10869000Y-16266500D01*
X10969000Y-16216500D02*
G75*
G02*
X10869000Y-16216500I-50000J0D01*
G01*
X10869000Y-16216500D02*
G75*
G02*
X10969000Y-16216500I50000J0D01*
G01*
X11123000Y-15912500D02*
X11223000Y-16012500D01*
X11223000Y-15912500D02*
X11123000Y-16012500D01*
X11223000Y-15962500D02*
G75*
G02*
X11123000Y-15962500I-50000J0D01*
G01*
X11123000Y-15962500D02*
G75*
G02*
X11223000Y-15962500I50000J0D01*
G01*
X11123000Y-16166500D02*
X11223000Y-16266500D01*
X11223000Y-16166500D02*
X11123000Y-16266500D01*
X11223000Y-16216500D02*
G75*
G02*
X11123000Y-16216500I-50000J0D01*
G01*
X11123000Y-16216500D02*
G75*
G02*
X11223000Y-16216500I50000J0D01*
G01*
X11377000Y-15912500D02*
X11477000Y-16012500D01*
X11477000Y-15912500D02*
X11377000Y-16012500D01*
X11477000Y-15962500D02*
G75*
G02*
X11377000Y-15962500I-50000J0D01*
G01*
X11377000Y-15962500D02*
G75*
G02*
X11477000Y-15962500I50000J0D01*
G01*
X11377000Y-16166500D02*
X11477000Y-16266500D01*
X11477000Y-16166500D02*
X11377000Y-16266500D01*
X11477000Y-16216500D02*
G75*
G02*
X11377000Y-16216500I-50000J0D01*
G01*
X11377000Y-16216500D02*
G75*
G02*
X11477000Y-16216500I50000J0D01*
G01*
X12990000Y-17020000D02*
X13090000Y-17120000D01*
X13090000Y-17020000D02*
X12990000Y-17120000D01*
X13090000Y-17070000D02*
G75*
G02*
X12990000Y-17070000I-50000J0D01*
G01*
X12990000Y-17070000D02*
G75*
G02*
X13090000Y-17070000I50000J0D01*
G01*
X12990000Y-17520000D02*
X13090000Y-17620000D01*
X13090000Y-17520000D02*
X12990000Y-17620000D01*
X13090000Y-17570000D02*
G75*
G02*
X12990000Y-17570000I-50000J0D01*
G01*
X12990000Y-17570000D02*
G75*
G02*
X13090000Y-17570000I50000J0D01*
G01*
D13*
X4945000Y-16956500D02*
X5075000Y-17086500D01*
X5075000Y-16956500D02*
X4945000Y-17086500D01*
X5010000Y-16956500D02*
X5010000Y-17086500D01*
X4945000Y-17021500D02*
X5075000Y-17021500D01*
X4945000Y-17464500D02*
X5075000Y-17594500D01*
X5075000Y-17464500D02*
X4945000Y-17594500D01*
X5010000Y-17464500D02*
X5010000Y-17594500D01*
X4945000Y-17529500D02*
X5075000Y-17529500D01*
X4945000Y-17972500D02*
X5075000Y-18102500D01*
X5075000Y-17972500D02*
X4945000Y-18102500D01*
X5010000Y-17972500D02*
X5010000Y-18102500D01*
X4945000Y-18037500D02*
X5075000Y-18037500D01*
X6371500Y-13924500D02*
X6501500Y-14054500D01*
X6501500Y-13924500D02*
X6371500Y-14054500D01*
X6436500Y-13924500D02*
X6436500Y-14054500D01*
X6371500Y-13989500D02*
X6501500Y-13989500D01*
X6879500Y-13924500D02*
X7009500Y-14054500D01*
X7009500Y-13924500D02*
X6879500Y-14054500D01*
X6944500Y-13924500D02*
X6944500Y-14054500D01*
X6879500Y-13989500D02*
X7009500Y-13989500D01*
X8468167Y-13924500D02*
X8598167Y-14054500D01*
X8598167Y-13924500D02*
X8468167Y-14054500D01*
X8533167Y-13924500D02*
X8533167Y-14054500D01*
X8468167Y-13989500D02*
X8598167Y-13989500D01*
X8976167Y-13924500D02*
X9106167Y-14054500D01*
X9106167Y-13924500D02*
X8976167Y-14054500D01*
X9041167Y-13924500D02*
X9041167Y-14054500D01*
X8976167Y-13989500D02*
X9106167Y-13989500D01*
X10564833Y-13924500D02*
X10694833Y-14054500D01*
X10694833Y-13924500D02*
X10564833Y-14054500D01*
X10629833Y-13924500D02*
X10629833Y-14054500D01*
X10564833Y-13989500D02*
X10694833Y-13989500D01*
X11072833Y-13924500D02*
X11202833Y-14054500D01*
X11202833Y-13924500D02*
X11072833Y-14054500D01*
X11137833Y-13924500D02*
X11137833Y-14054500D01*
X11072833Y-13989500D02*
X11202833Y-13989500D01*
X11120500Y-19405500D02*
X11250500Y-19535500D01*
X11250500Y-19405500D02*
X11120500Y-19535500D01*
X11185500Y-19405500D02*
X11185500Y-19535500D01*
X11120500Y-19470500D02*
X11250500Y-19470500D01*
X11628500Y-19405500D02*
X11758500Y-19535500D01*
X11758500Y-19405500D02*
X11628500Y-19535500D01*
X11693500Y-19405500D02*
X11693500Y-19535500D01*
X11628500Y-19470500D02*
X11758500Y-19470500D01*
X12661500Y-13924500D02*
X12791500Y-14054500D01*
X12791500Y-13924500D02*
X12661500Y-14054500D01*
X12726500Y-13924500D02*
X12726500Y-14054500D01*
X12661500Y-13989500D02*
X12791500Y-13989500D01*
X13169500Y-13924500D02*
X13299500Y-14054500D01*
X13299500Y-13924500D02*
X13169500Y-14054500D01*
X13234500Y-13924500D02*
X13234500Y-14054500D01*
X13169500Y-13989500D02*
X13299500Y-13989500D01*
D14*
X4675000Y-16204400D02*
X4945000Y-16474400D01*
X4945000Y-16204400D02*
X4675000Y-16474400D01*
X4905460Y-16434860D02*
X4905460Y-16243940D01*
X4714540Y-16243940D01*
X4714540Y-16434860D01*
X4905460Y-16434860D01*
X5175000Y-16204400D02*
X5445000Y-16474400D01*
X5445000Y-16204400D02*
X5175000Y-16474400D01*
X5405460Y-16434860D02*
X5405460Y-16243940D01*
X5214540Y-16243940D01*
X5214540Y-16434860D01*
X5405460Y-16434860D01*
X5655000Y-13655500D02*
X5925000Y-13925500D01*
X5925000Y-13655500D02*
X5655000Y-13925500D01*
X5885460Y-13885960D02*
X5885460Y-13695040D01*
X5694540Y-13695040D01*
X5694540Y-13885960D01*
X5885460Y-13885960D01*
X5655000Y-14155500D02*
X5925000Y-14425500D01*
X5925000Y-14155500D02*
X5655000Y-14425500D01*
X5885460Y-14385960D02*
X5885460Y-14195040D01*
X5694540Y-14195040D01*
X5694540Y-14385960D01*
X5885460Y-14385960D01*
X7751667Y-13655500D02*
X8021667Y-13925500D01*
X8021667Y-13655500D02*
X7751667Y-13925500D01*
X7982127Y-13885960D02*
X7982127Y-13695040D01*
X7791206Y-13695040D01*
X7791206Y-13885960D01*
X7982127Y-13885960D01*
X7751667Y-14155500D02*
X8021667Y-14425500D01*
X8021667Y-14155500D02*
X7751667Y-14425500D01*
X7982127Y-14385960D02*
X7982127Y-14195040D01*
X7791206Y-14195040D01*
X7791206Y-14385960D01*
X7982127Y-14385960D01*
X9848333Y-13655500D02*
X10118333Y-13925500D01*
X10118333Y-13655500D02*
X9848333Y-13925500D01*
X10078794Y-13885960D02*
X10078794Y-13695040D01*
X9887873Y-13695040D01*
X9887873Y-13885960D01*
X10078794Y-13885960D01*
X9848333Y-14155500D02*
X10118333Y-14425500D01*
X10118333Y-14155500D02*
X9848333Y-14425500D01*
X10078794Y-14385960D02*
X10078794Y-14195040D01*
X9887873Y-14195040D01*
X9887873Y-14385960D01*
X10078794Y-14385960D01*
X11945000Y-13655500D02*
X12215000Y-13925500D01*
X12215000Y-13655500D02*
X11945000Y-13925500D01*
X12175460Y-13885960D02*
X12175460Y-13695040D01*
X11984540Y-13695040D01*
X11984540Y-13885960D01*
X12175460Y-13885960D01*
X11945000Y-14155500D02*
X12215000Y-14425500D01*
X12215000Y-14155500D02*
X11945000Y-14425500D01*
X12175460Y-14385960D02*
X12175460Y-14195040D01*
X11984540Y-14195040D01*
X11984540Y-14385960D01*
X12175460Y-14385960D01*
X12205000Y-19035000D02*
X12475000Y-19305000D01*
X12475000Y-19035000D02*
X12205000Y-19305000D01*
X12435460Y-19265460D02*
X12435460Y-19074540D01*
X12244540Y-19074540D01*
X12244540Y-19265460D01*
X12435460Y-19265460D01*
X12205000Y-19535000D02*
X12475000Y-19805000D01*
X12475000Y-19535000D02*
X12205000Y-19805000D01*
X12435460Y-19765460D02*
X12435460Y-19574540D01*
X12244540Y-19574540D01*
X12244540Y-19765460D01*
X12435460Y-19765460D01*
D15*
X4785000Y-13765000D02*
X5215000Y-14195000D01*
X5215000Y-13765000D02*
X4785000Y-14195000D01*
X5000000Y-14195000D02*
X5215000Y-13980000D01*
X5000000Y-13765000D01*
X4785000Y-13980000D01*
X5000000Y-14195000D01*
X4785000Y-19262500D02*
X5215000Y-19692500D01*
X5215000Y-19262500D02*
X4785000Y-19692500D01*
X5000000Y-19692500D02*
X5215000Y-19477500D01*
X5000000Y-19262500D01*
X4785000Y-19477500D01*
X5000000Y-19692500D01*
X13785000Y-13753042D02*
X14215000Y-14183042D01*
X14215000Y-13753042D02*
X13785000Y-14183042D01*
X14000000Y-14183042D02*
X14215000Y-13968042D01*
X14000000Y-13753042D01*
X13785000Y-13968042D01*
X14000000Y-14183042D01*
X13785000Y-19262500D02*
X14215000Y-19692500D01*
X14215000Y-19262500D02*
X13785000Y-19692500D01*
X14000000Y-19692500D02*
X14215000Y-19477500D01*
X14000000Y-19262500D01*
X13785000Y-19477500D01*
X14000000Y-19692500D01*
D11*
X4758277Y-20293984D02*
X4758277Y-20093984D01*
X4758277Y-20093984D02*
X4805896Y-20093984D01*
X4805896Y-20093984D02*
X4834467Y-20103508D01*
X4834467Y-20103508D02*
X4853515Y-20122555D01*
X4853515Y-20122555D02*
X4863039Y-20141603D01*
X4863039Y-20141603D02*
X4872563Y-20179698D01*
X4872563Y-20179698D02*
X4872563Y-20208270D01*
X4872563Y-20208270D02*
X4863039Y-20246365D01*
X4863039Y-20246365D02*
X4853515Y-20265412D01*
X4853515Y-20265412D02*
X4834467Y-20284460D01*
X4834467Y-20284460D02*
X4805896Y-20293984D01*
X4805896Y-20293984D02*
X4758277Y-20293984D01*
X4958277Y-20293984D02*
X4958277Y-20160650D01*
X4958277Y-20198746D02*
X4967801Y-20179698D01*
X4967801Y-20179698D02*
X4977324Y-20170174D01*
X4977324Y-20170174D02*
X4996372Y-20160650D01*
X4996372Y-20160650D02*
X5015420Y-20160650D01*
X5082086Y-20293984D02*
X5082086Y-20160650D01*
X5082086Y-20093984D02*
X5072563Y-20103508D01*
X5072563Y-20103508D02*
X5082086Y-20113031D01*
X5082086Y-20113031D02*
X5091610Y-20103508D01*
X5091610Y-20103508D02*
X5082086Y-20093984D01*
X5082086Y-20093984D02*
X5082086Y-20113031D01*
X5205896Y-20293984D02*
X5186848Y-20284460D01*
X5186848Y-20284460D02*
X5177324Y-20265412D01*
X5177324Y-20265412D02*
X5177324Y-20093984D01*
X5310658Y-20293984D02*
X5291610Y-20284460D01*
X5291610Y-20284460D02*
X5282086Y-20265412D01*
X5282086Y-20265412D02*
X5282086Y-20093984D01*
X5539229Y-20293984D02*
X5539229Y-20093984D01*
X5539229Y-20093984D02*
X5605896Y-20236841D01*
X5605896Y-20236841D02*
X5672562Y-20093984D01*
X5672562Y-20093984D02*
X5672562Y-20293984D01*
X5853515Y-20293984D02*
X5853515Y-20189222D01*
X5853515Y-20189222D02*
X5843991Y-20170174D01*
X5843991Y-20170174D02*
X5824943Y-20160650D01*
X5824943Y-20160650D02*
X5786848Y-20160650D01*
X5786848Y-20160650D02*
X5767801Y-20170174D01*
X5853515Y-20284460D02*
X5834467Y-20293984D01*
X5834467Y-20293984D02*
X5786848Y-20293984D01*
X5786848Y-20293984D02*
X5767801Y-20284460D01*
X5767801Y-20284460D02*
X5758277Y-20265412D01*
X5758277Y-20265412D02*
X5758277Y-20246365D01*
X5758277Y-20246365D02*
X5767801Y-20227317D01*
X5767801Y-20227317D02*
X5786848Y-20217793D01*
X5786848Y-20217793D02*
X5834467Y-20217793D01*
X5834467Y-20217793D02*
X5853515Y-20208270D01*
X5948753Y-20160650D02*
X5948753Y-20360650D01*
X5948753Y-20170174D02*
X5967801Y-20160650D01*
X5967801Y-20160650D02*
X6005896Y-20160650D01*
X6005896Y-20160650D02*
X6024943Y-20170174D01*
X6024943Y-20170174D02*
X6034467Y-20179698D01*
X6034467Y-20179698D02*
X6043991Y-20198746D01*
X6043991Y-20198746D02*
X6043991Y-20255889D01*
X6043991Y-20255889D02*
X6034467Y-20274936D01*
X6034467Y-20274936D02*
X6024943Y-20284460D01*
X6024943Y-20284460D02*
X6005896Y-20293984D01*
X6005896Y-20293984D02*
X5967801Y-20293984D01*
X5967801Y-20293984D02*
X5948753Y-20284460D01*
X6129705Y-20274936D02*
X6139229Y-20284460D01*
X6139229Y-20284460D02*
X6129705Y-20293984D01*
X6129705Y-20293984D02*
X6120182Y-20284460D01*
X6120182Y-20284460D02*
X6129705Y-20274936D01*
X6129705Y-20274936D02*
X6129705Y-20293984D01*
X6129705Y-20170174D02*
X6139229Y-20179698D01*
X6139229Y-20179698D02*
X6129705Y-20189222D01*
X6129705Y-20189222D02*
X6120182Y-20179698D01*
X6120182Y-20179698D02*
X6129705Y-20170174D01*
X6129705Y-20170174D02*
X6129705Y-20189222D01*
D12*
X4467500Y-20607500D02*
X4497500Y-20637500D01*
X4497500Y-20607500D02*
X4467500Y-20637500D01*
D11*
X4796372Y-20513984D02*
X4815420Y-20513984D01*
X4815420Y-20513984D02*
X4834467Y-20523508D01*
X4834467Y-20523508D02*
X4843991Y-20533031D01*
X4843991Y-20533031D02*
X4853515Y-20552079D01*
X4853515Y-20552079D02*
X4863039Y-20590174D01*
X4863039Y-20590174D02*
X4863039Y-20637793D01*
X4863039Y-20637793D02*
X4853515Y-20675889D01*
X4853515Y-20675889D02*
X4843991Y-20694936D01*
X4843991Y-20694936D02*
X4834467Y-20704460D01*
X4834467Y-20704460D02*
X4815420Y-20713984D01*
X4815420Y-20713984D02*
X4796372Y-20713984D01*
X4796372Y-20713984D02*
X4777324Y-20704460D01*
X4777324Y-20704460D02*
X4767801Y-20694936D01*
X4767801Y-20694936D02*
X4758277Y-20675889D01*
X4758277Y-20675889D02*
X4748753Y-20637793D01*
X4748753Y-20637793D02*
X4748753Y-20590174D01*
X4748753Y-20590174D02*
X4758277Y-20552079D01*
X4758277Y-20552079D02*
X4767801Y-20533031D01*
X4767801Y-20533031D02*
X4777324Y-20523508D01*
X4777324Y-20523508D02*
X4796372Y-20513984D01*
X4948753Y-20694936D02*
X4958277Y-20704460D01*
X4958277Y-20704460D02*
X4948753Y-20713984D01*
X4948753Y-20713984D02*
X4939229Y-20704460D01*
X4939229Y-20704460D02*
X4948753Y-20694936D01*
X4948753Y-20694936D02*
X4948753Y-20713984D01*
X5024944Y-20513984D02*
X5148753Y-20513984D01*
X5148753Y-20513984D02*
X5082086Y-20590174D01*
X5082086Y-20590174D02*
X5110658Y-20590174D01*
X5110658Y-20590174D02*
X5129705Y-20599698D01*
X5129705Y-20599698D02*
X5139229Y-20609222D01*
X5139229Y-20609222D02*
X5148753Y-20628270D01*
X5148753Y-20628270D02*
X5148753Y-20675889D01*
X5148753Y-20675889D02*
X5139229Y-20694936D01*
X5139229Y-20694936D02*
X5129705Y-20704460D01*
X5129705Y-20704460D02*
X5110658Y-20713984D01*
X5110658Y-20713984D02*
X5053515Y-20713984D01*
X5053515Y-20713984D02*
X5034467Y-20704460D01*
X5034467Y-20704460D02*
X5024944Y-20694936D01*
X5272563Y-20513984D02*
X5291610Y-20513984D01*
X5291610Y-20513984D02*
X5310658Y-20523508D01*
X5310658Y-20523508D02*
X5320182Y-20533031D01*
X5320182Y-20533031D02*
X5329705Y-20552079D01*
X5329705Y-20552079D02*
X5339229Y-20590174D01*
X5339229Y-20590174D02*
X5339229Y-20637793D01*
X5339229Y-20637793D02*
X5329705Y-20675889D01*
X5329705Y-20675889D02*
X5320182Y-20694936D01*
X5320182Y-20694936D02*
X5310658Y-20704460D01*
X5310658Y-20704460D02*
X5291610Y-20713984D01*
X5291610Y-20713984D02*
X5272563Y-20713984D01*
X5272563Y-20713984D02*
X5253515Y-20704460D01*
X5253515Y-20704460D02*
X5243991Y-20694936D01*
X5243991Y-20694936D02*
X5234467Y-20675889D01*
X5234467Y-20675889D02*
X5224944Y-20637793D01*
X5224944Y-20637793D02*
X5224944Y-20590174D01*
X5224944Y-20590174D02*
X5234467Y-20552079D01*
X5234467Y-20552079D02*
X5243991Y-20533031D01*
X5243991Y-20533031D02*
X5253515Y-20523508D01*
X5253515Y-20523508D02*
X5272563Y-20513984D01*
X5463039Y-20513984D02*
X5482086Y-20513984D01*
X5482086Y-20513984D02*
X5501134Y-20523508D01*
X5501134Y-20523508D02*
X5510658Y-20533031D01*
X5510658Y-20533031D02*
X5520182Y-20552079D01*
X5520182Y-20552079D02*
X5529705Y-20590174D01*
X5529705Y-20590174D02*
X5529705Y-20637793D01*
X5529705Y-20637793D02*
X5520182Y-20675889D01*
X5520182Y-20675889D02*
X5510658Y-20694936D01*
X5510658Y-20694936D02*
X5501134Y-20704460D01*
X5501134Y-20704460D02*
X5482086Y-20713984D01*
X5482086Y-20713984D02*
X5463039Y-20713984D01*
X5463039Y-20713984D02*
X5443991Y-20704460D01*
X5443991Y-20704460D02*
X5434467Y-20694936D01*
X5434467Y-20694936D02*
X5424944Y-20675889D01*
X5424944Y-20675889D02*
X5415420Y-20637793D01*
X5415420Y-20637793D02*
X5415420Y-20590174D01*
X5415420Y-20590174D02*
X5424944Y-20552079D01*
X5424944Y-20552079D02*
X5434467Y-20533031D01*
X5434467Y-20533031D02*
X5443991Y-20523508D01*
X5443991Y-20523508D02*
X5463039Y-20513984D01*
X5615420Y-20713984D02*
X5615420Y-20580650D01*
X5615420Y-20599698D02*
X5624943Y-20590174D01*
X5624943Y-20590174D02*
X5643991Y-20580650D01*
X5643991Y-20580650D02*
X5672563Y-20580650D01*
X5672563Y-20580650D02*
X5691610Y-20590174D01*
X5691610Y-20590174D02*
X5701134Y-20609222D01*
X5701134Y-20609222D02*
X5701134Y-20713984D01*
X5701134Y-20609222D02*
X5710658Y-20590174D01*
X5710658Y-20590174D02*
X5729705Y-20580650D01*
X5729705Y-20580650D02*
X5758277Y-20580650D01*
X5758277Y-20580650D02*
X5777324Y-20590174D01*
X5777324Y-20590174D02*
X5786848Y-20609222D01*
X5786848Y-20609222D02*
X5786848Y-20713984D01*
X5882086Y-20713984D02*
X5882086Y-20580650D01*
X5882086Y-20599698D02*
X5891610Y-20590174D01*
X5891610Y-20590174D02*
X5910658Y-20580650D01*
X5910658Y-20580650D02*
X5939229Y-20580650D01*
X5939229Y-20580650D02*
X5958277Y-20590174D01*
X5958277Y-20590174D02*
X5967801Y-20609222D01*
X5967801Y-20609222D02*
X5967801Y-20713984D01*
X5967801Y-20609222D02*
X5977324Y-20590174D01*
X5977324Y-20590174D02*
X5996372Y-20580650D01*
X5996372Y-20580650D02*
X6024943Y-20580650D01*
X6024943Y-20580650D02*
X6043991Y-20590174D01*
X6043991Y-20590174D02*
X6053515Y-20609222D01*
X6053515Y-20609222D02*
X6053515Y-20713984D01*
X6443991Y-20504460D02*
X6272563Y-20761603D01*
X6701134Y-20513984D02*
X6720182Y-20513984D01*
X6720182Y-20513984D02*
X6739229Y-20523508D01*
X6739229Y-20523508D02*
X6748753Y-20533031D01*
X6748753Y-20533031D02*
X6758277Y-20552079D01*
X6758277Y-20552079D02*
X6767801Y-20590174D01*
X6767801Y-20590174D02*
X6767801Y-20637793D01*
X6767801Y-20637793D02*
X6758277Y-20675889D01*
X6758277Y-20675889D02*
X6748753Y-20694936D01*
X6748753Y-20694936D02*
X6739229Y-20704460D01*
X6739229Y-20704460D02*
X6720182Y-20713984D01*
X6720182Y-20713984D02*
X6701134Y-20713984D01*
X6701134Y-20713984D02*
X6682086Y-20704460D01*
X6682086Y-20704460D02*
X6672563Y-20694936D01*
X6672563Y-20694936D02*
X6663039Y-20675889D01*
X6663039Y-20675889D02*
X6653515Y-20637793D01*
X6653515Y-20637793D02*
X6653515Y-20590174D01*
X6653515Y-20590174D02*
X6663039Y-20552079D01*
X6663039Y-20552079D02*
X6672563Y-20533031D01*
X6672563Y-20533031D02*
X6682086Y-20523508D01*
X6682086Y-20523508D02*
X6701134Y-20513984D01*
X6853515Y-20694936D02*
X6863039Y-20704460D01*
X6863039Y-20704460D02*
X6853515Y-20713984D01*
X6853515Y-20713984D02*
X6843991Y-20704460D01*
X6843991Y-20704460D02*
X6853515Y-20694936D01*
X6853515Y-20694936D02*
X6853515Y-20713984D01*
X6986848Y-20513984D02*
X7005896Y-20513984D01*
X7005896Y-20513984D02*
X7024944Y-20523508D01*
X7024944Y-20523508D02*
X7034467Y-20533031D01*
X7034467Y-20533031D02*
X7043991Y-20552079D01*
X7043991Y-20552079D02*
X7053515Y-20590174D01*
X7053515Y-20590174D02*
X7053515Y-20637793D01*
X7053515Y-20637793D02*
X7043991Y-20675889D01*
X7043991Y-20675889D02*
X7034467Y-20694936D01*
X7034467Y-20694936D02*
X7024944Y-20704460D01*
X7024944Y-20704460D02*
X7005896Y-20713984D01*
X7005896Y-20713984D02*
X6986848Y-20713984D01*
X6986848Y-20713984D02*
X6967801Y-20704460D01*
X6967801Y-20704460D02*
X6958277Y-20694936D01*
X6958277Y-20694936D02*
X6948753Y-20675889D01*
X6948753Y-20675889D02*
X6939229Y-20637793D01*
X6939229Y-20637793D02*
X6939229Y-20590174D01*
X6939229Y-20590174D02*
X6948753Y-20552079D01*
X6948753Y-20552079D02*
X6958277Y-20533031D01*
X6958277Y-20533031D02*
X6967801Y-20523508D01*
X6967801Y-20523508D02*
X6986848Y-20513984D01*
X7243991Y-20713984D02*
X7129706Y-20713984D01*
X7186848Y-20713984D02*
X7186848Y-20513984D01*
X7186848Y-20513984D02*
X7167801Y-20542555D01*
X7167801Y-20542555D02*
X7148753Y-20561603D01*
X7148753Y-20561603D02*
X7129706Y-20571127D01*
X7434467Y-20713984D02*
X7320182Y-20713984D01*
X7377325Y-20713984D02*
X7377325Y-20513984D01*
X7377325Y-20513984D02*
X7358277Y-20542555D01*
X7358277Y-20542555D02*
X7339229Y-20561603D01*
X7339229Y-20561603D02*
X7320182Y-20571127D01*
X7548753Y-20599698D02*
X7529706Y-20590174D01*
X7529706Y-20590174D02*
X7520182Y-20580650D01*
X7520182Y-20580650D02*
X7510658Y-20561603D01*
X7510658Y-20561603D02*
X7510658Y-20552079D01*
X7510658Y-20552079D02*
X7520182Y-20533031D01*
X7520182Y-20533031D02*
X7529706Y-20523508D01*
X7529706Y-20523508D02*
X7548753Y-20513984D01*
X7548753Y-20513984D02*
X7586848Y-20513984D01*
X7586848Y-20513984D02*
X7605896Y-20523508D01*
X7605896Y-20523508D02*
X7615420Y-20533031D01*
X7615420Y-20533031D02*
X7624944Y-20552079D01*
X7624944Y-20552079D02*
X7624944Y-20561603D01*
X7624944Y-20561603D02*
X7615420Y-20580650D01*
X7615420Y-20580650D02*
X7605896Y-20590174D01*
X7605896Y-20590174D02*
X7586848Y-20599698D01*
X7586848Y-20599698D02*
X7548753Y-20599698D01*
X7548753Y-20599698D02*
X7529706Y-20609222D01*
X7529706Y-20609222D02*
X7520182Y-20618746D01*
X7520182Y-20618746D02*
X7510658Y-20637793D01*
X7510658Y-20637793D02*
X7510658Y-20675889D01*
X7510658Y-20675889D02*
X7520182Y-20694936D01*
X7520182Y-20694936D02*
X7529706Y-20704460D01*
X7529706Y-20704460D02*
X7548753Y-20713984D01*
X7548753Y-20713984D02*
X7586848Y-20713984D01*
X7586848Y-20713984D02*
X7605896Y-20704460D01*
X7605896Y-20704460D02*
X7615420Y-20694936D01*
X7615420Y-20694936D02*
X7624944Y-20675889D01*
X7624944Y-20675889D02*
X7624944Y-20637793D01*
X7624944Y-20637793D02*
X7615420Y-20618746D01*
X7615420Y-20618746D02*
X7605896Y-20609222D01*
X7605896Y-20609222D02*
X7586848Y-20599698D01*
X7701134Y-20513984D02*
X7701134Y-20552079D01*
X7777325Y-20513984D02*
X7777325Y-20552079D01*
X8072563Y-20790174D02*
X8063039Y-20780650D01*
X8063039Y-20780650D02*
X8043991Y-20752079D01*
X8043991Y-20752079D02*
X8034468Y-20733031D01*
X8034468Y-20733031D02*
X8024944Y-20704460D01*
X8024944Y-20704460D02*
X8015420Y-20656841D01*
X8015420Y-20656841D02*
X8015420Y-20618746D01*
X8015420Y-20618746D02*
X8024944Y-20571127D01*
X8024944Y-20571127D02*
X8034468Y-20542555D01*
X8034468Y-20542555D02*
X8043991Y-20523508D01*
X8043991Y-20523508D02*
X8063039Y-20494936D01*
X8063039Y-20494936D02*
X8072563Y-20485412D01*
X8253515Y-20713984D02*
X8139229Y-20713984D01*
X8196372Y-20713984D02*
X8196372Y-20513984D01*
X8196372Y-20513984D02*
X8177325Y-20542555D01*
X8177325Y-20542555D02*
X8158277Y-20561603D01*
X8158277Y-20561603D02*
X8139229Y-20571127D01*
X8348753Y-20713984D02*
X8386848Y-20713984D01*
X8386848Y-20713984D02*
X8405896Y-20704460D01*
X8405896Y-20704460D02*
X8415420Y-20694936D01*
X8415420Y-20694936D02*
X8434468Y-20666365D01*
X8434468Y-20666365D02*
X8443991Y-20628270D01*
X8443991Y-20628270D02*
X8443991Y-20552079D01*
X8443991Y-20552079D02*
X8434468Y-20533031D01*
X8434468Y-20533031D02*
X8424944Y-20523508D01*
X8424944Y-20523508D02*
X8405896Y-20513984D01*
X8405896Y-20513984D02*
X8367801Y-20513984D01*
X8367801Y-20513984D02*
X8348753Y-20523508D01*
X8348753Y-20523508D02*
X8339229Y-20533031D01*
X8339229Y-20533031D02*
X8329706Y-20552079D01*
X8329706Y-20552079D02*
X8329706Y-20599698D01*
X8329706Y-20599698D02*
X8339229Y-20618746D01*
X8339229Y-20618746D02*
X8348753Y-20628270D01*
X8348753Y-20628270D02*
X8367801Y-20637793D01*
X8367801Y-20637793D02*
X8405896Y-20637793D01*
X8405896Y-20637793D02*
X8424944Y-20628270D01*
X8424944Y-20628270D02*
X8434468Y-20618746D01*
X8434468Y-20618746D02*
X8443991Y-20599698D01*
X8624944Y-20513984D02*
X8529706Y-20513984D01*
X8529706Y-20513984D02*
X8520182Y-20609222D01*
X8520182Y-20609222D02*
X8529706Y-20599698D01*
X8529706Y-20599698D02*
X8548753Y-20590174D01*
X8548753Y-20590174D02*
X8596372Y-20590174D01*
X8596372Y-20590174D02*
X8615420Y-20599698D01*
X8615420Y-20599698D02*
X8624944Y-20609222D01*
X8624944Y-20609222D02*
X8634468Y-20628270D01*
X8634468Y-20628270D02*
X8634468Y-20675889D01*
X8634468Y-20675889D02*
X8624944Y-20694936D01*
X8624944Y-20694936D02*
X8615420Y-20704460D01*
X8615420Y-20704460D02*
X8596372Y-20713984D01*
X8596372Y-20713984D02*
X8548753Y-20713984D01*
X8548753Y-20713984D02*
X8529706Y-20704460D01*
X8529706Y-20704460D02*
X8520182Y-20694936D01*
X8872563Y-20713984D02*
X8872563Y-20513984D01*
X8958277Y-20713984D02*
X8958277Y-20609222D01*
X8958277Y-20609222D02*
X8948753Y-20590174D01*
X8948753Y-20590174D02*
X8929706Y-20580650D01*
X8929706Y-20580650D02*
X8901134Y-20580650D01*
X8901134Y-20580650D02*
X8882087Y-20590174D01*
X8882087Y-20590174D02*
X8872563Y-20599698D01*
X9082087Y-20713984D02*
X9063039Y-20704460D01*
X9063039Y-20704460D02*
X9053515Y-20694936D01*
X9053515Y-20694936D02*
X9043992Y-20675889D01*
X9043992Y-20675889D02*
X9043992Y-20618746D01*
X9043992Y-20618746D02*
X9053515Y-20599698D01*
X9053515Y-20599698D02*
X9063039Y-20590174D01*
X9063039Y-20590174D02*
X9082087Y-20580650D01*
X9082087Y-20580650D02*
X9110658Y-20580650D01*
X9110658Y-20580650D02*
X9129706Y-20590174D01*
X9129706Y-20590174D02*
X9139230Y-20599698D01*
X9139230Y-20599698D02*
X9148753Y-20618746D01*
X9148753Y-20618746D02*
X9148753Y-20675889D01*
X9148753Y-20675889D02*
X9139230Y-20694936D01*
X9139230Y-20694936D02*
X9129706Y-20704460D01*
X9129706Y-20704460D02*
X9110658Y-20713984D01*
X9110658Y-20713984D02*
X9082087Y-20713984D01*
X9263039Y-20713984D02*
X9243992Y-20704460D01*
X9243992Y-20704460D02*
X9234468Y-20685412D01*
X9234468Y-20685412D02*
X9234468Y-20513984D01*
X9415420Y-20704460D02*
X9396373Y-20713984D01*
X9396373Y-20713984D02*
X9358277Y-20713984D01*
X9358277Y-20713984D02*
X9339230Y-20704460D01*
X9339230Y-20704460D02*
X9329706Y-20685412D01*
X9329706Y-20685412D02*
X9329706Y-20609222D01*
X9329706Y-20609222D02*
X9339230Y-20590174D01*
X9339230Y-20590174D02*
X9358277Y-20580650D01*
X9358277Y-20580650D02*
X9396373Y-20580650D01*
X9396373Y-20580650D02*
X9415420Y-20590174D01*
X9415420Y-20590174D02*
X9424944Y-20609222D01*
X9424944Y-20609222D02*
X9424944Y-20628270D01*
X9424944Y-20628270D02*
X9329706Y-20647317D01*
X9501134Y-20704460D02*
X9520182Y-20713984D01*
X9520182Y-20713984D02*
X9558277Y-20713984D01*
X9558277Y-20713984D02*
X9577325Y-20704460D01*
X9577325Y-20704460D02*
X9586849Y-20685412D01*
X9586849Y-20685412D02*
X9586849Y-20675889D01*
X9586849Y-20675889D02*
X9577325Y-20656841D01*
X9577325Y-20656841D02*
X9558277Y-20647317D01*
X9558277Y-20647317D02*
X9529706Y-20647317D01*
X9529706Y-20647317D02*
X9510658Y-20637793D01*
X9510658Y-20637793D02*
X9501134Y-20618746D01*
X9501134Y-20618746D02*
X9501134Y-20609222D01*
X9501134Y-20609222D02*
X9510658Y-20590174D01*
X9510658Y-20590174D02*
X9529706Y-20580650D01*
X9529706Y-20580650D02*
X9558277Y-20580650D01*
X9558277Y-20580650D02*
X9577325Y-20590174D01*
X9653515Y-20790174D02*
X9663039Y-20780650D01*
X9663039Y-20780650D02*
X9682087Y-20752079D01*
X9682087Y-20752079D02*
X9691611Y-20733031D01*
X9691611Y-20733031D02*
X9701134Y-20704460D01*
X9701134Y-20704460D02*
X9710658Y-20656841D01*
X9710658Y-20656841D02*
X9710658Y-20618746D01*
X9710658Y-20618746D02*
X9701134Y-20571127D01*
X9701134Y-20571127D02*
X9691611Y-20542555D01*
X9691611Y-20542555D02*
X9682087Y-20523508D01*
X9682087Y-20523508D02*
X9663039Y-20494936D01*
X9663039Y-20494936D02*
X9653515Y-20485412D01*
D12*
X4497500Y-20886500D02*
G75*
G02*
X4467500Y-20886500I-15000J0D01*
G01*
X4467500Y-20886500D02*
G75*
G02*
X4497500Y-20886500I15000J0D01*
G01*
D11*
X4796372Y-20777984D02*
X4815420Y-20777984D01*
X4815420Y-20777984D02*
X4834467Y-20787508D01*
X4834467Y-20787508D02*
X4843991Y-20797031D01*
X4843991Y-20797031D02*
X4853515Y-20816079D01*
X4853515Y-20816079D02*
X4863039Y-20854174D01*
X4863039Y-20854174D02*
X4863039Y-20901793D01*
X4863039Y-20901793D02*
X4853515Y-20939889D01*
X4853515Y-20939889D02*
X4843991Y-20958936D01*
X4843991Y-20958936D02*
X4834467Y-20968460D01*
X4834467Y-20968460D02*
X4815420Y-20977984D01*
X4815420Y-20977984D02*
X4796372Y-20977984D01*
X4796372Y-20977984D02*
X4777324Y-20968460D01*
X4777324Y-20968460D02*
X4767801Y-20958936D01*
X4767801Y-20958936D02*
X4758277Y-20939889D01*
X4758277Y-20939889D02*
X4748753Y-20901793D01*
X4748753Y-20901793D02*
X4748753Y-20854174D01*
X4748753Y-20854174D02*
X4758277Y-20816079D01*
X4758277Y-20816079D02*
X4767801Y-20797031D01*
X4767801Y-20797031D02*
X4777324Y-20787508D01*
X4777324Y-20787508D02*
X4796372Y-20777984D01*
X4948753Y-20958936D02*
X4958277Y-20968460D01*
X4958277Y-20968460D02*
X4948753Y-20977984D01*
X4948753Y-20977984D02*
X4939229Y-20968460D01*
X4939229Y-20968460D02*
X4948753Y-20958936D01*
X4948753Y-20958936D02*
X4948753Y-20977984D01*
X5024944Y-20777984D02*
X5148753Y-20777984D01*
X5148753Y-20777984D02*
X5082086Y-20854174D01*
X5082086Y-20854174D02*
X5110658Y-20854174D01*
X5110658Y-20854174D02*
X5129705Y-20863698D01*
X5129705Y-20863698D02*
X5139229Y-20873222D01*
X5139229Y-20873222D02*
X5148753Y-20892270D01*
X5148753Y-20892270D02*
X5148753Y-20939889D01*
X5148753Y-20939889D02*
X5139229Y-20958936D01*
X5139229Y-20958936D02*
X5129705Y-20968460D01*
X5129705Y-20968460D02*
X5110658Y-20977984D01*
X5110658Y-20977984D02*
X5053515Y-20977984D01*
X5053515Y-20977984D02*
X5034467Y-20968460D01*
X5034467Y-20968460D02*
X5024944Y-20958936D01*
X5272563Y-20777984D02*
X5291610Y-20777984D01*
X5291610Y-20777984D02*
X5310658Y-20787508D01*
X5310658Y-20787508D02*
X5320182Y-20797031D01*
X5320182Y-20797031D02*
X5329705Y-20816079D01*
X5329705Y-20816079D02*
X5339229Y-20854174D01*
X5339229Y-20854174D02*
X5339229Y-20901793D01*
X5339229Y-20901793D02*
X5329705Y-20939889D01*
X5329705Y-20939889D02*
X5320182Y-20958936D01*
X5320182Y-20958936D02*
X5310658Y-20968460D01*
X5310658Y-20968460D02*
X5291610Y-20977984D01*
X5291610Y-20977984D02*
X5272563Y-20977984D01*
X5272563Y-20977984D02*
X5253515Y-20968460D01*
X5253515Y-20968460D02*
X5243991Y-20958936D01*
X5243991Y-20958936D02*
X5234467Y-20939889D01*
X5234467Y-20939889D02*
X5224944Y-20901793D01*
X5224944Y-20901793D02*
X5224944Y-20854174D01*
X5224944Y-20854174D02*
X5234467Y-20816079D01*
X5234467Y-20816079D02*
X5243991Y-20797031D01*
X5243991Y-20797031D02*
X5253515Y-20787508D01*
X5253515Y-20787508D02*
X5272563Y-20777984D01*
X5463039Y-20777984D02*
X5482086Y-20777984D01*
X5482086Y-20777984D02*
X5501134Y-20787508D01*
X5501134Y-20787508D02*
X5510658Y-20797031D01*
X5510658Y-20797031D02*
X5520182Y-20816079D01*
X5520182Y-20816079D02*
X5529705Y-20854174D01*
X5529705Y-20854174D02*
X5529705Y-20901793D01*
X5529705Y-20901793D02*
X5520182Y-20939889D01*
X5520182Y-20939889D02*
X5510658Y-20958936D01*
X5510658Y-20958936D02*
X5501134Y-20968460D01*
X5501134Y-20968460D02*
X5482086Y-20977984D01*
X5482086Y-20977984D02*
X5463039Y-20977984D01*
X5463039Y-20977984D02*
X5443991Y-20968460D01*
X5443991Y-20968460D02*
X5434467Y-20958936D01*
X5434467Y-20958936D02*
X5424944Y-20939889D01*
X5424944Y-20939889D02*
X5415420Y-20901793D01*
X5415420Y-20901793D02*
X5415420Y-20854174D01*
X5415420Y-20854174D02*
X5424944Y-20816079D01*
X5424944Y-20816079D02*
X5434467Y-20797031D01*
X5434467Y-20797031D02*
X5443991Y-20787508D01*
X5443991Y-20787508D02*
X5463039Y-20777984D01*
X5615420Y-20977984D02*
X5615420Y-20844650D01*
X5615420Y-20863698D02*
X5624943Y-20854174D01*
X5624943Y-20854174D02*
X5643991Y-20844650D01*
X5643991Y-20844650D02*
X5672563Y-20844650D01*
X5672563Y-20844650D02*
X5691610Y-20854174D01*
X5691610Y-20854174D02*
X5701134Y-20873222D01*
X5701134Y-20873222D02*
X5701134Y-20977984D01*
X5701134Y-20873222D02*
X5710658Y-20854174D01*
X5710658Y-20854174D02*
X5729705Y-20844650D01*
X5729705Y-20844650D02*
X5758277Y-20844650D01*
X5758277Y-20844650D02*
X5777324Y-20854174D01*
X5777324Y-20854174D02*
X5786848Y-20873222D01*
X5786848Y-20873222D02*
X5786848Y-20977984D01*
X5882086Y-20977984D02*
X5882086Y-20844650D01*
X5882086Y-20863698D02*
X5891610Y-20854174D01*
X5891610Y-20854174D02*
X5910658Y-20844650D01*
X5910658Y-20844650D02*
X5939229Y-20844650D01*
X5939229Y-20844650D02*
X5958277Y-20854174D01*
X5958277Y-20854174D02*
X5967801Y-20873222D01*
X5967801Y-20873222D02*
X5967801Y-20977984D01*
X5967801Y-20873222D02*
X5977324Y-20854174D01*
X5977324Y-20854174D02*
X5996372Y-20844650D01*
X5996372Y-20844650D02*
X6024943Y-20844650D01*
X6024943Y-20844650D02*
X6043991Y-20854174D01*
X6043991Y-20854174D02*
X6053515Y-20873222D01*
X6053515Y-20873222D02*
X6053515Y-20977984D01*
X6443991Y-20768460D02*
X6272563Y-21025603D01*
X6701134Y-20777984D02*
X6720182Y-20777984D01*
X6720182Y-20777984D02*
X6739229Y-20787508D01*
X6739229Y-20787508D02*
X6748753Y-20797031D01*
X6748753Y-20797031D02*
X6758277Y-20816079D01*
X6758277Y-20816079D02*
X6767801Y-20854174D01*
X6767801Y-20854174D02*
X6767801Y-20901793D01*
X6767801Y-20901793D02*
X6758277Y-20939889D01*
X6758277Y-20939889D02*
X6748753Y-20958936D01*
X6748753Y-20958936D02*
X6739229Y-20968460D01*
X6739229Y-20968460D02*
X6720182Y-20977984D01*
X6720182Y-20977984D02*
X6701134Y-20977984D01*
X6701134Y-20977984D02*
X6682086Y-20968460D01*
X6682086Y-20968460D02*
X6672563Y-20958936D01*
X6672563Y-20958936D02*
X6663039Y-20939889D01*
X6663039Y-20939889D02*
X6653515Y-20901793D01*
X6653515Y-20901793D02*
X6653515Y-20854174D01*
X6653515Y-20854174D02*
X6663039Y-20816079D01*
X6663039Y-20816079D02*
X6672563Y-20797031D01*
X6672563Y-20797031D02*
X6682086Y-20787508D01*
X6682086Y-20787508D02*
X6701134Y-20777984D01*
X6853515Y-20958936D02*
X6863039Y-20968460D01*
X6863039Y-20968460D02*
X6853515Y-20977984D01*
X6853515Y-20977984D02*
X6843991Y-20968460D01*
X6843991Y-20968460D02*
X6853515Y-20958936D01*
X6853515Y-20958936D02*
X6853515Y-20977984D01*
X6986848Y-20777984D02*
X7005896Y-20777984D01*
X7005896Y-20777984D02*
X7024944Y-20787508D01*
X7024944Y-20787508D02*
X7034467Y-20797031D01*
X7034467Y-20797031D02*
X7043991Y-20816079D01*
X7043991Y-20816079D02*
X7053515Y-20854174D01*
X7053515Y-20854174D02*
X7053515Y-20901793D01*
X7053515Y-20901793D02*
X7043991Y-20939889D01*
X7043991Y-20939889D02*
X7034467Y-20958936D01*
X7034467Y-20958936D02*
X7024944Y-20968460D01*
X7024944Y-20968460D02*
X7005896Y-20977984D01*
X7005896Y-20977984D02*
X6986848Y-20977984D01*
X6986848Y-20977984D02*
X6967801Y-20968460D01*
X6967801Y-20968460D02*
X6958277Y-20958936D01*
X6958277Y-20958936D02*
X6948753Y-20939889D01*
X6948753Y-20939889D02*
X6939229Y-20901793D01*
X6939229Y-20901793D02*
X6939229Y-20854174D01*
X6939229Y-20854174D02*
X6948753Y-20816079D01*
X6948753Y-20816079D02*
X6958277Y-20797031D01*
X6958277Y-20797031D02*
X6967801Y-20787508D01*
X6967801Y-20787508D02*
X6986848Y-20777984D01*
X7243991Y-20977984D02*
X7129706Y-20977984D01*
X7186848Y-20977984D02*
X7186848Y-20777984D01*
X7186848Y-20777984D02*
X7167801Y-20806555D01*
X7167801Y-20806555D02*
X7148753Y-20825603D01*
X7148753Y-20825603D02*
X7129706Y-20835127D01*
X7434467Y-20977984D02*
X7320182Y-20977984D01*
X7377325Y-20977984D02*
X7377325Y-20777984D01*
X7377325Y-20777984D02*
X7358277Y-20806555D01*
X7358277Y-20806555D02*
X7339229Y-20825603D01*
X7339229Y-20825603D02*
X7320182Y-20835127D01*
X7548753Y-20863698D02*
X7529706Y-20854174D01*
X7529706Y-20854174D02*
X7520182Y-20844650D01*
X7520182Y-20844650D02*
X7510658Y-20825603D01*
X7510658Y-20825603D02*
X7510658Y-20816079D01*
X7510658Y-20816079D02*
X7520182Y-20797031D01*
X7520182Y-20797031D02*
X7529706Y-20787508D01*
X7529706Y-20787508D02*
X7548753Y-20777984D01*
X7548753Y-20777984D02*
X7586848Y-20777984D01*
X7586848Y-20777984D02*
X7605896Y-20787508D01*
X7605896Y-20787508D02*
X7615420Y-20797031D01*
X7615420Y-20797031D02*
X7624944Y-20816079D01*
X7624944Y-20816079D02*
X7624944Y-20825603D01*
X7624944Y-20825603D02*
X7615420Y-20844650D01*
X7615420Y-20844650D02*
X7605896Y-20854174D01*
X7605896Y-20854174D02*
X7586848Y-20863698D01*
X7586848Y-20863698D02*
X7548753Y-20863698D01*
X7548753Y-20863698D02*
X7529706Y-20873222D01*
X7529706Y-20873222D02*
X7520182Y-20882746D01*
X7520182Y-20882746D02*
X7510658Y-20901793D01*
X7510658Y-20901793D02*
X7510658Y-20939889D01*
X7510658Y-20939889D02*
X7520182Y-20958936D01*
X7520182Y-20958936D02*
X7529706Y-20968460D01*
X7529706Y-20968460D02*
X7548753Y-20977984D01*
X7548753Y-20977984D02*
X7586848Y-20977984D01*
X7586848Y-20977984D02*
X7605896Y-20968460D01*
X7605896Y-20968460D02*
X7615420Y-20958936D01*
X7615420Y-20958936D02*
X7624944Y-20939889D01*
X7624944Y-20939889D02*
X7624944Y-20901793D01*
X7624944Y-20901793D02*
X7615420Y-20882746D01*
X7615420Y-20882746D02*
X7605896Y-20873222D01*
X7605896Y-20873222D02*
X7586848Y-20863698D01*
X7701134Y-20777984D02*
X7701134Y-20816079D01*
X7777325Y-20777984D02*
X7777325Y-20816079D01*
X8072563Y-21054174D02*
X8063039Y-21044650D01*
X8063039Y-21044650D02*
X8043991Y-21016079D01*
X8043991Y-21016079D02*
X8034468Y-20997031D01*
X8034468Y-20997031D02*
X8024944Y-20968460D01*
X8024944Y-20968460D02*
X8015420Y-20920841D01*
X8015420Y-20920841D02*
X8015420Y-20882746D01*
X8015420Y-20882746D02*
X8024944Y-20835127D01*
X8024944Y-20835127D02*
X8034468Y-20806555D01*
X8034468Y-20806555D02*
X8043991Y-20787508D01*
X8043991Y-20787508D02*
X8063039Y-20758936D01*
X8063039Y-20758936D02*
X8072563Y-20749412D01*
X8253515Y-20977984D02*
X8139229Y-20977984D01*
X8196372Y-20977984D02*
X8196372Y-20777984D01*
X8196372Y-20777984D02*
X8177325Y-20806555D01*
X8177325Y-20806555D02*
X8158277Y-20825603D01*
X8158277Y-20825603D02*
X8139229Y-20835127D01*
X8424944Y-20777984D02*
X8386848Y-20777984D01*
X8386848Y-20777984D02*
X8367801Y-20787508D01*
X8367801Y-20787508D02*
X8358277Y-20797031D01*
X8358277Y-20797031D02*
X8339229Y-20825603D01*
X8339229Y-20825603D02*
X8329706Y-20863698D01*
X8329706Y-20863698D02*
X8329706Y-20939889D01*
X8329706Y-20939889D02*
X8339229Y-20958936D01*
X8339229Y-20958936D02*
X8348753Y-20968460D01*
X8348753Y-20968460D02*
X8367801Y-20977984D01*
X8367801Y-20977984D02*
X8405896Y-20977984D01*
X8405896Y-20977984D02*
X8424944Y-20968460D01*
X8424944Y-20968460D02*
X8434468Y-20958936D01*
X8434468Y-20958936D02*
X8443991Y-20939889D01*
X8443991Y-20939889D02*
X8443991Y-20892270D01*
X8443991Y-20892270D02*
X8434468Y-20873222D01*
X8434468Y-20873222D02*
X8424944Y-20863698D01*
X8424944Y-20863698D02*
X8405896Y-20854174D01*
X8405896Y-20854174D02*
X8367801Y-20854174D01*
X8367801Y-20854174D02*
X8348753Y-20863698D01*
X8348753Y-20863698D02*
X8339229Y-20873222D01*
X8339229Y-20873222D02*
X8329706Y-20892270D01*
X8682087Y-20977984D02*
X8682087Y-20777984D01*
X8767801Y-20977984D02*
X8767801Y-20873222D01*
X8767801Y-20873222D02*
X8758277Y-20854174D01*
X8758277Y-20854174D02*
X8739230Y-20844650D01*
X8739230Y-20844650D02*
X8710658Y-20844650D01*
X8710658Y-20844650D02*
X8691611Y-20854174D01*
X8691611Y-20854174D02*
X8682087Y-20863698D01*
X8891611Y-20977984D02*
X8872563Y-20968460D01*
X8872563Y-20968460D02*
X8863039Y-20958936D01*
X8863039Y-20958936D02*
X8853515Y-20939889D01*
X8853515Y-20939889D02*
X8853515Y-20882746D01*
X8853515Y-20882746D02*
X8863039Y-20863698D01*
X8863039Y-20863698D02*
X8872563Y-20854174D01*
X8872563Y-20854174D02*
X8891611Y-20844650D01*
X8891611Y-20844650D02*
X8920182Y-20844650D01*
X8920182Y-20844650D02*
X8939230Y-20854174D01*
X8939230Y-20854174D02*
X8948753Y-20863698D01*
X8948753Y-20863698D02*
X8958277Y-20882746D01*
X8958277Y-20882746D02*
X8958277Y-20939889D01*
X8958277Y-20939889D02*
X8948753Y-20958936D01*
X8948753Y-20958936D02*
X8939230Y-20968460D01*
X8939230Y-20968460D02*
X8920182Y-20977984D01*
X8920182Y-20977984D02*
X8891611Y-20977984D01*
X9072563Y-20977984D02*
X9053515Y-20968460D01*
X9053515Y-20968460D02*
X9043992Y-20949412D01*
X9043992Y-20949412D02*
X9043992Y-20777984D01*
X9224944Y-20968460D02*
X9205896Y-20977984D01*
X9205896Y-20977984D02*
X9167801Y-20977984D01*
X9167801Y-20977984D02*
X9148753Y-20968460D01*
X9148753Y-20968460D02*
X9139230Y-20949412D01*
X9139230Y-20949412D02*
X9139230Y-20873222D01*
X9139230Y-20873222D02*
X9148753Y-20854174D01*
X9148753Y-20854174D02*
X9167801Y-20844650D01*
X9167801Y-20844650D02*
X9205896Y-20844650D01*
X9205896Y-20844650D02*
X9224944Y-20854174D01*
X9224944Y-20854174D02*
X9234468Y-20873222D01*
X9234468Y-20873222D02*
X9234468Y-20892270D01*
X9234468Y-20892270D02*
X9139230Y-20911317D01*
X9310658Y-20968460D02*
X9329706Y-20977984D01*
X9329706Y-20977984D02*
X9367801Y-20977984D01*
X9367801Y-20977984D02*
X9386849Y-20968460D01*
X9386849Y-20968460D02*
X9396373Y-20949412D01*
X9396373Y-20949412D02*
X9396373Y-20939889D01*
X9396373Y-20939889D02*
X9386849Y-20920841D01*
X9386849Y-20920841D02*
X9367801Y-20911317D01*
X9367801Y-20911317D02*
X9339230Y-20911317D01*
X9339230Y-20911317D02*
X9320182Y-20901793D01*
X9320182Y-20901793D02*
X9310658Y-20882746D01*
X9310658Y-20882746D02*
X9310658Y-20873222D01*
X9310658Y-20873222D02*
X9320182Y-20854174D01*
X9320182Y-20854174D02*
X9339230Y-20844650D01*
X9339230Y-20844650D02*
X9367801Y-20844650D01*
X9367801Y-20844650D02*
X9386849Y-20854174D01*
X9463039Y-21054174D02*
X9472563Y-21044650D01*
X9472563Y-21044650D02*
X9491611Y-21016079D01*
X9491611Y-21016079D02*
X9501134Y-20997031D01*
X9501134Y-20997031D02*
X9510658Y-20968460D01*
X9510658Y-20968460D02*
X9520182Y-20920841D01*
X9520182Y-20920841D02*
X9520182Y-20882746D01*
X9520182Y-20882746D02*
X9510658Y-20835127D01*
X9510658Y-20835127D02*
X9501134Y-20806555D01*
X9501134Y-20806555D02*
X9491611Y-20787508D01*
X9491611Y-20787508D02*
X9472563Y-20758936D01*
X9472563Y-20758936D02*
X9463039Y-20749412D01*
D12*
X4467503Y-21120503D02*
X4467503Y-21180497D01*
X4437505Y-21150500D02*
X4497500Y-21150500D01*
D11*
X4796372Y-21041984D02*
X4815420Y-21041984D01*
X4815420Y-21041984D02*
X4834467Y-21051508D01*
X4834467Y-21051508D02*
X4843991Y-21061031D01*
X4843991Y-21061031D02*
X4853515Y-21080079D01*
X4853515Y-21080079D02*
X4863039Y-21118174D01*
X4863039Y-21118174D02*
X4863039Y-21165793D01*
X4863039Y-21165793D02*
X4853515Y-21203889D01*
X4853515Y-21203889D02*
X4843991Y-21222936D01*
X4843991Y-21222936D02*
X4834467Y-21232460D01*
X4834467Y-21232460D02*
X4815420Y-21241984D01*
X4815420Y-21241984D02*
X4796372Y-21241984D01*
X4796372Y-21241984D02*
X4777324Y-21232460D01*
X4777324Y-21232460D02*
X4767801Y-21222936D01*
X4767801Y-21222936D02*
X4758277Y-21203889D01*
X4758277Y-21203889D02*
X4748753Y-21165793D01*
X4748753Y-21165793D02*
X4748753Y-21118174D01*
X4748753Y-21118174D02*
X4758277Y-21080079D01*
X4758277Y-21080079D02*
X4767801Y-21061031D01*
X4767801Y-21061031D02*
X4777324Y-21051508D01*
X4777324Y-21051508D02*
X4796372Y-21041984D01*
X4948753Y-21222936D02*
X4958277Y-21232460D01*
X4958277Y-21232460D02*
X4948753Y-21241984D01*
X4948753Y-21241984D02*
X4939229Y-21232460D01*
X4939229Y-21232460D02*
X4948753Y-21222936D01*
X4948753Y-21222936D02*
X4948753Y-21241984D01*
X5129705Y-21041984D02*
X5091610Y-21041984D01*
X5091610Y-21041984D02*
X5072563Y-21051508D01*
X5072563Y-21051508D02*
X5063039Y-21061031D01*
X5063039Y-21061031D02*
X5043991Y-21089603D01*
X5043991Y-21089603D02*
X5034467Y-21127698D01*
X5034467Y-21127698D02*
X5034467Y-21203889D01*
X5034467Y-21203889D02*
X5043991Y-21222936D01*
X5043991Y-21222936D02*
X5053515Y-21232460D01*
X5053515Y-21232460D02*
X5072563Y-21241984D01*
X5072563Y-21241984D02*
X5110658Y-21241984D01*
X5110658Y-21241984D02*
X5129705Y-21232460D01*
X5129705Y-21232460D02*
X5139229Y-21222936D01*
X5139229Y-21222936D02*
X5148753Y-21203889D01*
X5148753Y-21203889D02*
X5148753Y-21156270D01*
X5148753Y-21156270D02*
X5139229Y-21137222D01*
X5139229Y-21137222D02*
X5129705Y-21127698D01*
X5129705Y-21127698D02*
X5110658Y-21118174D01*
X5110658Y-21118174D02*
X5072563Y-21118174D01*
X5072563Y-21118174D02*
X5053515Y-21127698D01*
X5053515Y-21127698D02*
X5043991Y-21137222D01*
X5043991Y-21137222D02*
X5034467Y-21156270D01*
X5272563Y-21041984D02*
X5291610Y-21041984D01*
X5291610Y-21041984D02*
X5310658Y-21051508D01*
X5310658Y-21051508D02*
X5320182Y-21061031D01*
X5320182Y-21061031D02*
X5329705Y-21080079D01*
X5329705Y-21080079D02*
X5339229Y-21118174D01*
X5339229Y-21118174D02*
X5339229Y-21165793D01*
X5339229Y-21165793D02*
X5329705Y-21203889D01*
X5329705Y-21203889D02*
X5320182Y-21222936D01*
X5320182Y-21222936D02*
X5310658Y-21232460D01*
X5310658Y-21232460D02*
X5291610Y-21241984D01*
X5291610Y-21241984D02*
X5272563Y-21241984D01*
X5272563Y-21241984D02*
X5253515Y-21232460D01*
X5253515Y-21232460D02*
X5243991Y-21222936D01*
X5243991Y-21222936D02*
X5234467Y-21203889D01*
X5234467Y-21203889D02*
X5224944Y-21165793D01*
X5224944Y-21165793D02*
X5224944Y-21118174D01*
X5224944Y-21118174D02*
X5234467Y-21080079D01*
X5234467Y-21080079D02*
X5243991Y-21061031D01*
X5243991Y-21061031D02*
X5253515Y-21051508D01*
X5253515Y-21051508D02*
X5272563Y-21041984D01*
X5463039Y-21041984D02*
X5482086Y-21041984D01*
X5482086Y-21041984D02*
X5501134Y-21051508D01*
X5501134Y-21051508D02*
X5510658Y-21061031D01*
X5510658Y-21061031D02*
X5520182Y-21080079D01*
X5520182Y-21080079D02*
X5529705Y-21118174D01*
X5529705Y-21118174D02*
X5529705Y-21165793D01*
X5529705Y-21165793D02*
X5520182Y-21203889D01*
X5520182Y-21203889D02*
X5510658Y-21222936D01*
X5510658Y-21222936D02*
X5501134Y-21232460D01*
X5501134Y-21232460D02*
X5482086Y-21241984D01*
X5482086Y-21241984D02*
X5463039Y-21241984D01*
X5463039Y-21241984D02*
X5443991Y-21232460D01*
X5443991Y-21232460D02*
X5434467Y-21222936D01*
X5434467Y-21222936D02*
X5424944Y-21203889D01*
X5424944Y-21203889D02*
X5415420Y-21165793D01*
X5415420Y-21165793D02*
X5415420Y-21118174D01*
X5415420Y-21118174D02*
X5424944Y-21080079D01*
X5424944Y-21080079D02*
X5434467Y-21061031D01*
X5434467Y-21061031D02*
X5443991Y-21051508D01*
X5443991Y-21051508D02*
X5463039Y-21041984D01*
X5615420Y-21241984D02*
X5615420Y-21108650D01*
X5615420Y-21127698D02*
X5624943Y-21118174D01*
X5624943Y-21118174D02*
X5643991Y-21108650D01*
X5643991Y-21108650D02*
X5672563Y-21108650D01*
X5672563Y-21108650D02*
X5691610Y-21118174D01*
X5691610Y-21118174D02*
X5701134Y-21137222D01*
X5701134Y-21137222D02*
X5701134Y-21241984D01*
X5701134Y-21137222D02*
X5710658Y-21118174D01*
X5710658Y-21118174D02*
X5729705Y-21108650D01*
X5729705Y-21108650D02*
X5758277Y-21108650D01*
X5758277Y-21108650D02*
X5777324Y-21118174D01*
X5777324Y-21118174D02*
X5786848Y-21137222D01*
X5786848Y-21137222D02*
X5786848Y-21241984D01*
X5882086Y-21241984D02*
X5882086Y-21108650D01*
X5882086Y-21127698D02*
X5891610Y-21118174D01*
X5891610Y-21118174D02*
X5910658Y-21108650D01*
X5910658Y-21108650D02*
X5939229Y-21108650D01*
X5939229Y-21108650D02*
X5958277Y-21118174D01*
X5958277Y-21118174D02*
X5967801Y-21137222D01*
X5967801Y-21137222D02*
X5967801Y-21241984D01*
X5967801Y-21137222D02*
X5977324Y-21118174D01*
X5977324Y-21118174D02*
X5996372Y-21108650D01*
X5996372Y-21108650D02*
X6024943Y-21108650D01*
X6024943Y-21108650D02*
X6043991Y-21118174D01*
X6043991Y-21118174D02*
X6053515Y-21137222D01*
X6053515Y-21137222D02*
X6053515Y-21241984D01*
X6443991Y-21032460D02*
X6272563Y-21289603D01*
X6701134Y-21041984D02*
X6720182Y-21041984D01*
X6720182Y-21041984D02*
X6739229Y-21051508D01*
X6739229Y-21051508D02*
X6748753Y-21061031D01*
X6748753Y-21061031D02*
X6758277Y-21080079D01*
X6758277Y-21080079D02*
X6767801Y-21118174D01*
X6767801Y-21118174D02*
X6767801Y-21165793D01*
X6767801Y-21165793D02*
X6758277Y-21203889D01*
X6758277Y-21203889D02*
X6748753Y-21222936D01*
X6748753Y-21222936D02*
X6739229Y-21232460D01*
X6739229Y-21232460D02*
X6720182Y-21241984D01*
X6720182Y-21241984D02*
X6701134Y-21241984D01*
X6701134Y-21241984D02*
X6682086Y-21232460D01*
X6682086Y-21232460D02*
X6672563Y-21222936D01*
X6672563Y-21222936D02*
X6663039Y-21203889D01*
X6663039Y-21203889D02*
X6653515Y-21165793D01*
X6653515Y-21165793D02*
X6653515Y-21118174D01*
X6653515Y-21118174D02*
X6663039Y-21080079D01*
X6663039Y-21080079D02*
X6672563Y-21061031D01*
X6672563Y-21061031D02*
X6682086Y-21051508D01*
X6682086Y-21051508D02*
X6701134Y-21041984D01*
X6853515Y-21222936D02*
X6863039Y-21232460D01*
X6863039Y-21232460D02*
X6853515Y-21241984D01*
X6853515Y-21241984D02*
X6843991Y-21232460D01*
X6843991Y-21232460D02*
X6853515Y-21222936D01*
X6853515Y-21222936D02*
X6853515Y-21241984D01*
X6986848Y-21041984D02*
X7005896Y-21041984D01*
X7005896Y-21041984D02*
X7024944Y-21051508D01*
X7024944Y-21051508D02*
X7034467Y-21061031D01*
X7034467Y-21061031D02*
X7043991Y-21080079D01*
X7043991Y-21080079D02*
X7053515Y-21118174D01*
X7053515Y-21118174D02*
X7053515Y-21165793D01*
X7053515Y-21165793D02*
X7043991Y-21203889D01*
X7043991Y-21203889D02*
X7034467Y-21222936D01*
X7034467Y-21222936D02*
X7024944Y-21232460D01*
X7024944Y-21232460D02*
X7005896Y-21241984D01*
X7005896Y-21241984D02*
X6986848Y-21241984D01*
X6986848Y-21241984D02*
X6967801Y-21232460D01*
X6967801Y-21232460D02*
X6958277Y-21222936D01*
X6958277Y-21222936D02*
X6948753Y-21203889D01*
X6948753Y-21203889D02*
X6939229Y-21165793D01*
X6939229Y-21165793D02*
X6939229Y-21118174D01*
X6939229Y-21118174D02*
X6948753Y-21080079D01*
X6948753Y-21080079D02*
X6958277Y-21061031D01*
X6958277Y-21061031D02*
X6967801Y-21051508D01*
X6967801Y-21051508D02*
X6986848Y-21041984D01*
X7129706Y-21061031D02*
X7139229Y-21051508D01*
X7139229Y-21051508D02*
X7158277Y-21041984D01*
X7158277Y-21041984D02*
X7205896Y-21041984D01*
X7205896Y-21041984D02*
X7224944Y-21051508D01*
X7224944Y-21051508D02*
X7234467Y-21061031D01*
X7234467Y-21061031D02*
X7243991Y-21080079D01*
X7243991Y-21080079D02*
X7243991Y-21099127D01*
X7243991Y-21099127D02*
X7234467Y-21127698D01*
X7234467Y-21127698D02*
X7120182Y-21241984D01*
X7120182Y-21241984D02*
X7243991Y-21241984D01*
X7310658Y-21041984D02*
X7434467Y-21041984D01*
X7434467Y-21041984D02*
X7367801Y-21118174D01*
X7367801Y-21118174D02*
X7396372Y-21118174D01*
X7396372Y-21118174D02*
X7415420Y-21127698D01*
X7415420Y-21127698D02*
X7424944Y-21137222D01*
X7424944Y-21137222D02*
X7434467Y-21156270D01*
X7434467Y-21156270D02*
X7434467Y-21203889D01*
X7434467Y-21203889D02*
X7424944Y-21222936D01*
X7424944Y-21222936D02*
X7415420Y-21232460D01*
X7415420Y-21232460D02*
X7396372Y-21241984D01*
X7396372Y-21241984D02*
X7339229Y-21241984D01*
X7339229Y-21241984D02*
X7320182Y-21232460D01*
X7320182Y-21232460D02*
X7310658Y-21222936D01*
X7605896Y-21041984D02*
X7567801Y-21041984D01*
X7567801Y-21041984D02*
X7548753Y-21051508D01*
X7548753Y-21051508D02*
X7539229Y-21061031D01*
X7539229Y-21061031D02*
X7520182Y-21089603D01*
X7520182Y-21089603D02*
X7510658Y-21127698D01*
X7510658Y-21127698D02*
X7510658Y-21203889D01*
X7510658Y-21203889D02*
X7520182Y-21222936D01*
X7520182Y-21222936D02*
X7529706Y-21232460D01*
X7529706Y-21232460D02*
X7548753Y-21241984D01*
X7548753Y-21241984D02*
X7586848Y-21241984D01*
X7586848Y-21241984D02*
X7605896Y-21232460D01*
X7605896Y-21232460D02*
X7615420Y-21222936D01*
X7615420Y-21222936D02*
X7624944Y-21203889D01*
X7624944Y-21203889D02*
X7624944Y-21156270D01*
X7624944Y-21156270D02*
X7615420Y-21137222D01*
X7615420Y-21137222D02*
X7605896Y-21127698D01*
X7605896Y-21127698D02*
X7586848Y-21118174D01*
X7586848Y-21118174D02*
X7548753Y-21118174D01*
X7548753Y-21118174D02*
X7529706Y-21127698D01*
X7529706Y-21127698D02*
X7520182Y-21137222D01*
X7520182Y-21137222D02*
X7510658Y-21156270D01*
X7701134Y-21041984D02*
X7701134Y-21080079D01*
X7777325Y-21041984D02*
X7777325Y-21080079D01*
X8072563Y-21318174D02*
X8063039Y-21308650D01*
X8063039Y-21308650D02*
X8043991Y-21280079D01*
X8043991Y-21280079D02*
X8034468Y-21261031D01*
X8034468Y-21261031D02*
X8024944Y-21232460D01*
X8024944Y-21232460D02*
X8015420Y-21184841D01*
X8015420Y-21184841D02*
X8015420Y-21146746D01*
X8015420Y-21146746D02*
X8024944Y-21099127D01*
X8024944Y-21099127D02*
X8034468Y-21070555D01*
X8034468Y-21070555D02*
X8043991Y-21051508D01*
X8043991Y-21051508D02*
X8063039Y-21022936D01*
X8063039Y-21022936D02*
X8072563Y-21013412D01*
X8186848Y-21041984D02*
X8205896Y-21041984D01*
X8205896Y-21041984D02*
X8224944Y-21051508D01*
X8224944Y-21051508D02*
X8234468Y-21061031D01*
X8234468Y-21061031D02*
X8243991Y-21080079D01*
X8243991Y-21080079D02*
X8253515Y-21118174D01*
X8253515Y-21118174D02*
X8253515Y-21165793D01*
X8253515Y-21165793D02*
X8243991Y-21203889D01*
X8243991Y-21203889D02*
X8234468Y-21222936D01*
X8234468Y-21222936D02*
X8224944Y-21232460D01*
X8224944Y-21232460D02*
X8205896Y-21241984D01*
X8205896Y-21241984D02*
X8186848Y-21241984D01*
X8186848Y-21241984D02*
X8167801Y-21232460D01*
X8167801Y-21232460D02*
X8158277Y-21222936D01*
X8158277Y-21222936D02*
X8148753Y-21203889D01*
X8148753Y-21203889D02*
X8139229Y-21165793D01*
X8139229Y-21165793D02*
X8139229Y-21118174D01*
X8139229Y-21118174D02*
X8148753Y-21080079D01*
X8148753Y-21080079D02*
X8158277Y-21061031D01*
X8158277Y-21061031D02*
X8167801Y-21051508D01*
X8167801Y-21051508D02*
X8186848Y-21041984D01*
X8491611Y-21241984D02*
X8491611Y-21041984D01*
X8577325Y-21241984D02*
X8577325Y-21137222D01*
X8577325Y-21137222D02*
X8567801Y-21118174D01*
X8567801Y-21118174D02*
X8548753Y-21108650D01*
X8548753Y-21108650D02*
X8520182Y-21108650D01*
X8520182Y-21108650D02*
X8501134Y-21118174D01*
X8501134Y-21118174D02*
X8491611Y-21127698D01*
X8701134Y-21241984D02*
X8682087Y-21232460D01*
X8682087Y-21232460D02*
X8672563Y-21222936D01*
X8672563Y-21222936D02*
X8663039Y-21203889D01*
X8663039Y-21203889D02*
X8663039Y-21146746D01*
X8663039Y-21146746D02*
X8672563Y-21127698D01*
X8672563Y-21127698D02*
X8682087Y-21118174D01*
X8682087Y-21118174D02*
X8701134Y-21108650D01*
X8701134Y-21108650D02*
X8729706Y-21108650D01*
X8729706Y-21108650D02*
X8748753Y-21118174D01*
X8748753Y-21118174D02*
X8758277Y-21127698D01*
X8758277Y-21127698D02*
X8767801Y-21146746D01*
X8767801Y-21146746D02*
X8767801Y-21203889D01*
X8767801Y-21203889D02*
X8758277Y-21222936D01*
X8758277Y-21222936D02*
X8748753Y-21232460D01*
X8748753Y-21232460D02*
X8729706Y-21241984D01*
X8729706Y-21241984D02*
X8701134Y-21241984D01*
X8882087Y-21241984D02*
X8863039Y-21232460D01*
X8863039Y-21232460D02*
X8853515Y-21213412D01*
X8853515Y-21213412D02*
X8853515Y-21041984D01*
X9034468Y-21232460D02*
X9015420Y-21241984D01*
X9015420Y-21241984D02*
X8977325Y-21241984D01*
X8977325Y-21241984D02*
X8958277Y-21232460D01*
X8958277Y-21232460D02*
X8948753Y-21213412D01*
X8948753Y-21213412D02*
X8948753Y-21137222D01*
X8948753Y-21137222D02*
X8958277Y-21118174D01*
X8958277Y-21118174D02*
X8977325Y-21108650D01*
X8977325Y-21108650D02*
X9015420Y-21108650D01*
X9015420Y-21108650D02*
X9034468Y-21118174D01*
X9034468Y-21118174D02*
X9043992Y-21137222D01*
X9043992Y-21137222D02*
X9043992Y-21156270D01*
X9043992Y-21156270D02*
X8948753Y-21175317D01*
X9120182Y-21232460D02*
X9139230Y-21241984D01*
X9139230Y-21241984D02*
X9177325Y-21241984D01*
X9177325Y-21241984D02*
X9196373Y-21232460D01*
X9196373Y-21232460D02*
X9205896Y-21213412D01*
X9205896Y-21213412D02*
X9205896Y-21203889D01*
X9205896Y-21203889D02*
X9196373Y-21184841D01*
X9196373Y-21184841D02*
X9177325Y-21175317D01*
X9177325Y-21175317D02*
X9148753Y-21175317D01*
X9148753Y-21175317D02*
X9129706Y-21165793D01*
X9129706Y-21165793D02*
X9120182Y-21146746D01*
X9120182Y-21146746D02*
X9120182Y-21137222D01*
X9120182Y-21137222D02*
X9129706Y-21118174D01*
X9129706Y-21118174D02*
X9148753Y-21108650D01*
X9148753Y-21108650D02*
X9177325Y-21108650D01*
X9177325Y-21108650D02*
X9196373Y-21118174D01*
X9443992Y-21165793D02*
X9596373Y-21165793D01*
X9520182Y-21241984D02*
X9520182Y-21089603D01*
X9872563Y-21127698D02*
X9853515Y-21118174D01*
X9853515Y-21118174D02*
X9843992Y-21108650D01*
X9843992Y-21108650D02*
X9834468Y-21089603D01*
X9834468Y-21089603D02*
X9834468Y-21080079D01*
X9834468Y-21080079D02*
X9843992Y-21061031D01*
X9843992Y-21061031D02*
X9853515Y-21051508D01*
X9853515Y-21051508D02*
X9872563Y-21041984D01*
X9872563Y-21041984D02*
X9910658Y-21041984D01*
X9910658Y-21041984D02*
X9929706Y-21051508D01*
X9929706Y-21051508D02*
X9939230Y-21061031D01*
X9939230Y-21061031D02*
X9948754Y-21080079D01*
X9948754Y-21080079D02*
X9948754Y-21089603D01*
X9948754Y-21089603D02*
X9939230Y-21108650D01*
X9939230Y-21108650D02*
X9929706Y-21118174D01*
X9929706Y-21118174D02*
X9910658Y-21127698D01*
X9910658Y-21127698D02*
X9872563Y-21127698D01*
X9872563Y-21127698D02*
X9853515Y-21137222D01*
X9853515Y-21137222D02*
X9843992Y-21146746D01*
X9843992Y-21146746D02*
X9834468Y-21165793D01*
X9834468Y-21165793D02*
X9834468Y-21203889D01*
X9834468Y-21203889D02*
X9843992Y-21222936D01*
X9843992Y-21222936D02*
X9853515Y-21232460D01*
X9853515Y-21232460D02*
X9872563Y-21241984D01*
X9872563Y-21241984D02*
X9910658Y-21241984D01*
X9910658Y-21241984D02*
X9929706Y-21232460D01*
X9929706Y-21232460D02*
X9939230Y-21222936D01*
X9939230Y-21222936D02*
X9948754Y-21203889D01*
X9948754Y-21203889D02*
X9948754Y-21165793D01*
X9948754Y-21165793D02*
X9939230Y-21146746D01*
X9939230Y-21146746D02*
X9929706Y-21137222D01*
X9929706Y-21137222D02*
X9910658Y-21127698D01*
X10177325Y-21232460D02*
X10196373Y-21241984D01*
X10196373Y-21241984D02*
X10234468Y-21241984D01*
X10234468Y-21241984D02*
X10253516Y-21232460D01*
X10253516Y-21232460D02*
X10263039Y-21213412D01*
X10263039Y-21213412D02*
X10263039Y-21203889D01*
X10263039Y-21203889D02*
X10253516Y-21184841D01*
X10253516Y-21184841D02*
X10234468Y-21175317D01*
X10234468Y-21175317D02*
X10205896Y-21175317D01*
X10205896Y-21175317D02*
X10186849Y-21165793D01*
X10186849Y-21165793D02*
X10177325Y-21146746D01*
X10177325Y-21146746D02*
X10177325Y-21137222D01*
X10177325Y-21137222D02*
X10186849Y-21118174D01*
X10186849Y-21118174D02*
X10205896Y-21108650D01*
X10205896Y-21108650D02*
X10234468Y-21108650D01*
X10234468Y-21108650D02*
X10253516Y-21118174D01*
X10377325Y-21241984D02*
X10358277Y-21232460D01*
X10358277Y-21232460D02*
X10348754Y-21213412D01*
X10348754Y-21213412D02*
X10348754Y-21041984D01*
X10482087Y-21241984D02*
X10463039Y-21232460D01*
X10463039Y-21232460D02*
X10453516Y-21222936D01*
X10453516Y-21222936D02*
X10443992Y-21203889D01*
X10443992Y-21203889D02*
X10443992Y-21146746D01*
X10443992Y-21146746D02*
X10453516Y-21127698D01*
X10453516Y-21127698D02*
X10463039Y-21118174D01*
X10463039Y-21118174D02*
X10482087Y-21108650D01*
X10482087Y-21108650D02*
X10510658Y-21108650D01*
X10510658Y-21108650D02*
X10529706Y-21118174D01*
X10529706Y-21118174D02*
X10539230Y-21127698D01*
X10539230Y-21127698D02*
X10548754Y-21146746D01*
X10548754Y-21146746D02*
X10548754Y-21203889D01*
X10548754Y-21203889D02*
X10539230Y-21222936D01*
X10539230Y-21222936D02*
X10529706Y-21232460D01*
X10529706Y-21232460D02*
X10510658Y-21241984D01*
X10510658Y-21241984D02*
X10482087Y-21241984D01*
X10605897Y-21108650D02*
X10682087Y-21108650D01*
X10634468Y-21041984D02*
X10634468Y-21213412D01*
X10634468Y-21213412D02*
X10643992Y-21232460D01*
X10643992Y-21232460D02*
X10663039Y-21241984D01*
X10663039Y-21241984D02*
X10682087Y-21241984D01*
X10739230Y-21232460D02*
X10758277Y-21241984D01*
X10758277Y-21241984D02*
X10796373Y-21241984D01*
X10796373Y-21241984D02*
X10815420Y-21232460D01*
X10815420Y-21232460D02*
X10824944Y-21213412D01*
X10824944Y-21213412D02*
X10824944Y-21203889D01*
X10824944Y-21203889D02*
X10815420Y-21184841D01*
X10815420Y-21184841D02*
X10796373Y-21175317D01*
X10796373Y-21175317D02*
X10767801Y-21175317D01*
X10767801Y-21175317D02*
X10748754Y-21165793D01*
X10748754Y-21165793D02*
X10739230Y-21146746D01*
X10739230Y-21146746D02*
X10739230Y-21137222D01*
X10739230Y-21137222D02*
X10748754Y-21118174D01*
X10748754Y-21118174D02*
X10767801Y-21108650D01*
X10767801Y-21108650D02*
X10796373Y-21108650D01*
X10796373Y-21108650D02*
X10815420Y-21118174D01*
X10891611Y-21318174D02*
X10901135Y-21308650D01*
X10901135Y-21308650D02*
X10920182Y-21280079D01*
X10920182Y-21280079D02*
X10929706Y-21261031D01*
X10929706Y-21261031D02*
X10939230Y-21232460D01*
X10939230Y-21232460D02*
X10948754Y-21184841D01*
X10948754Y-21184841D02*
X10948754Y-21146746D01*
X10948754Y-21146746D02*
X10939230Y-21099127D01*
X10939230Y-21099127D02*
X10929706Y-21070555D01*
X10929706Y-21070555D02*
X10920182Y-21051508D01*
X10920182Y-21051508D02*
X10901135Y-21022936D01*
X10901135Y-21022936D02*
X10891611Y-21013412D01*
D12*
X4488713Y-21435713D02*
X4488713Y-21393287D01*
X4446287Y-21393287D01*
X4446287Y-21435713D01*
X4488713Y-21435713D01*
D11*
X4796372Y-21305984D02*
X4815420Y-21305984D01*
X4815420Y-21305984D02*
X4834467Y-21315508D01*
X4834467Y-21315508D02*
X4843991Y-21325031D01*
X4843991Y-21325031D02*
X4853515Y-21344079D01*
X4853515Y-21344079D02*
X4863039Y-21382174D01*
X4863039Y-21382174D02*
X4863039Y-21429793D01*
X4863039Y-21429793D02*
X4853515Y-21467889D01*
X4853515Y-21467889D02*
X4843991Y-21486936D01*
X4843991Y-21486936D02*
X4834467Y-21496460D01*
X4834467Y-21496460D02*
X4815420Y-21505984D01*
X4815420Y-21505984D02*
X4796372Y-21505984D01*
X4796372Y-21505984D02*
X4777324Y-21496460D01*
X4777324Y-21496460D02*
X4767801Y-21486936D01*
X4767801Y-21486936D02*
X4758277Y-21467889D01*
X4758277Y-21467889D02*
X4748753Y-21429793D01*
X4748753Y-21429793D02*
X4748753Y-21382174D01*
X4748753Y-21382174D02*
X4758277Y-21344079D01*
X4758277Y-21344079D02*
X4767801Y-21325031D01*
X4767801Y-21325031D02*
X4777324Y-21315508D01*
X4777324Y-21315508D02*
X4796372Y-21305984D01*
X4948753Y-21486936D02*
X4958277Y-21496460D01*
X4958277Y-21496460D02*
X4948753Y-21505984D01*
X4948753Y-21505984D02*
X4939229Y-21496460D01*
X4939229Y-21496460D02*
X4948753Y-21486936D01*
X4948753Y-21486936D02*
X4948753Y-21505984D01*
X5129705Y-21305984D02*
X5091610Y-21305984D01*
X5091610Y-21305984D02*
X5072563Y-21315508D01*
X5072563Y-21315508D02*
X5063039Y-21325031D01*
X5063039Y-21325031D02*
X5043991Y-21353603D01*
X5043991Y-21353603D02*
X5034467Y-21391698D01*
X5034467Y-21391698D02*
X5034467Y-21467889D01*
X5034467Y-21467889D02*
X5043991Y-21486936D01*
X5043991Y-21486936D02*
X5053515Y-21496460D01*
X5053515Y-21496460D02*
X5072563Y-21505984D01*
X5072563Y-21505984D02*
X5110658Y-21505984D01*
X5110658Y-21505984D02*
X5129705Y-21496460D01*
X5129705Y-21496460D02*
X5139229Y-21486936D01*
X5139229Y-21486936D02*
X5148753Y-21467889D01*
X5148753Y-21467889D02*
X5148753Y-21420270D01*
X5148753Y-21420270D02*
X5139229Y-21401222D01*
X5139229Y-21401222D02*
X5129705Y-21391698D01*
X5129705Y-21391698D02*
X5110658Y-21382174D01*
X5110658Y-21382174D02*
X5072563Y-21382174D01*
X5072563Y-21382174D02*
X5053515Y-21391698D01*
X5053515Y-21391698D02*
X5043991Y-21401222D01*
X5043991Y-21401222D02*
X5034467Y-21420270D01*
X5272563Y-21305984D02*
X5291610Y-21305984D01*
X5291610Y-21305984D02*
X5310658Y-21315508D01*
X5310658Y-21315508D02*
X5320182Y-21325031D01*
X5320182Y-21325031D02*
X5329705Y-21344079D01*
X5329705Y-21344079D02*
X5339229Y-21382174D01*
X5339229Y-21382174D02*
X5339229Y-21429793D01*
X5339229Y-21429793D02*
X5329705Y-21467889D01*
X5329705Y-21467889D02*
X5320182Y-21486936D01*
X5320182Y-21486936D02*
X5310658Y-21496460D01*
X5310658Y-21496460D02*
X5291610Y-21505984D01*
X5291610Y-21505984D02*
X5272563Y-21505984D01*
X5272563Y-21505984D02*
X5253515Y-21496460D01*
X5253515Y-21496460D02*
X5243991Y-21486936D01*
X5243991Y-21486936D02*
X5234467Y-21467889D01*
X5234467Y-21467889D02*
X5224944Y-21429793D01*
X5224944Y-21429793D02*
X5224944Y-21382174D01*
X5224944Y-21382174D02*
X5234467Y-21344079D01*
X5234467Y-21344079D02*
X5243991Y-21325031D01*
X5243991Y-21325031D02*
X5253515Y-21315508D01*
X5253515Y-21315508D02*
X5272563Y-21305984D01*
X5463039Y-21305984D02*
X5482086Y-21305984D01*
X5482086Y-21305984D02*
X5501134Y-21315508D01*
X5501134Y-21315508D02*
X5510658Y-21325031D01*
X5510658Y-21325031D02*
X5520182Y-21344079D01*
X5520182Y-21344079D02*
X5529705Y-21382174D01*
X5529705Y-21382174D02*
X5529705Y-21429793D01*
X5529705Y-21429793D02*
X5520182Y-21467889D01*
X5520182Y-21467889D02*
X5510658Y-21486936D01*
X5510658Y-21486936D02*
X5501134Y-21496460D01*
X5501134Y-21496460D02*
X5482086Y-21505984D01*
X5482086Y-21505984D02*
X5463039Y-21505984D01*
X5463039Y-21505984D02*
X5443991Y-21496460D01*
X5443991Y-21496460D02*
X5434467Y-21486936D01*
X5434467Y-21486936D02*
X5424944Y-21467889D01*
X5424944Y-21467889D02*
X5415420Y-21429793D01*
X5415420Y-21429793D02*
X5415420Y-21382174D01*
X5415420Y-21382174D02*
X5424944Y-21344079D01*
X5424944Y-21344079D02*
X5434467Y-21325031D01*
X5434467Y-21325031D02*
X5443991Y-21315508D01*
X5443991Y-21315508D02*
X5463039Y-21305984D01*
X5615420Y-21505984D02*
X5615420Y-21372650D01*
X5615420Y-21391698D02*
X5624943Y-21382174D01*
X5624943Y-21382174D02*
X5643991Y-21372650D01*
X5643991Y-21372650D02*
X5672563Y-21372650D01*
X5672563Y-21372650D02*
X5691610Y-21382174D01*
X5691610Y-21382174D02*
X5701134Y-21401222D01*
X5701134Y-21401222D02*
X5701134Y-21505984D01*
X5701134Y-21401222D02*
X5710658Y-21382174D01*
X5710658Y-21382174D02*
X5729705Y-21372650D01*
X5729705Y-21372650D02*
X5758277Y-21372650D01*
X5758277Y-21372650D02*
X5777324Y-21382174D01*
X5777324Y-21382174D02*
X5786848Y-21401222D01*
X5786848Y-21401222D02*
X5786848Y-21505984D01*
X5882086Y-21505984D02*
X5882086Y-21372650D01*
X5882086Y-21391698D02*
X5891610Y-21382174D01*
X5891610Y-21382174D02*
X5910658Y-21372650D01*
X5910658Y-21372650D02*
X5939229Y-21372650D01*
X5939229Y-21372650D02*
X5958277Y-21382174D01*
X5958277Y-21382174D02*
X5967801Y-21401222D01*
X5967801Y-21401222D02*
X5967801Y-21505984D01*
X5967801Y-21401222D02*
X5977324Y-21382174D01*
X5977324Y-21382174D02*
X5996372Y-21372650D01*
X5996372Y-21372650D02*
X6024943Y-21372650D01*
X6024943Y-21372650D02*
X6043991Y-21382174D01*
X6043991Y-21382174D02*
X6053515Y-21401222D01*
X6053515Y-21401222D02*
X6053515Y-21505984D01*
X6443991Y-21296460D02*
X6272563Y-21553603D01*
X6701134Y-21305984D02*
X6720182Y-21305984D01*
X6720182Y-21305984D02*
X6739229Y-21315508D01*
X6739229Y-21315508D02*
X6748753Y-21325031D01*
X6748753Y-21325031D02*
X6758277Y-21344079D01*
X6758277Y-21344079D02*
X6767801Y-21382174D01*
X6767801Y-21382174D02*
X6767801Y-21429793D01*
X6767801Y-21429793D02*
X6758277Y-21467889D01*
X6758277Y-21467889D02*
X6748753Y-21486936D01*
X6748753Y-21486936D02*
X6739229Y-21496460D01*
X6739229Y-21496460D02*
X6720182Y-21505984D01*
X6720182Y-21505984D02*
X6701134Y-21505984D01*
X6701134Y-21505984D02*
X6682086Y-21496460D01*
X6682086Y-21496460D02*
X6672563Y-21486936D01*
X6672563Y-21486936D02*
X6663039Y-21467889D01*
X6663039Y-21467889D02*
X6653515Y-21429793D01*
X6653515Y-21429793D02*
X6653515Y-21382174D01*
X6653515Y-21382174D02*
X6663039Y-21344079D01*
X6663039Y-21344079D02*
X6672563Y-21325031D01*
X6672563Y-21325031D02*
X6682086Y-21315508D01*
X6682086Y-21315508D02*
X6701134Y-21305984D01*
X6853515Y-21486936D02*
X6863039Y-21496460D01*
X6863039Y-21496460D02*
X6853515Y-21505984D01*
X6853515Y-21505984D02*
X6843991Y-21496460D01*
X6843991Y-21496460D02*
X6853515Y-21486936D01*
X6853515Y-21486936D02*
X6853515Y-21505984D01*
X6986848Y-21305984D02*
X7005896Y-21305984D01*
X7005896Y-21305984D02*
X7024944Y-21315508D01*
X7024944Y-21315508D02*
X7034467Y-21325031D01*
X7034467Y-21325031D02*
X7043991Y-21344079D01*
X7043991Y-21344079D02*
X7053515Y-21382174D01*
X7053515Y-21382174D02*
X7053515Y-21429793D01*
X7053515Y-21429793D02*
X7043991Y-21467889D01*
X7043991Y-21467889D02*
X7034467Y-21486936D01*
X7034467Y-21486936D02*
X7024944Y-21496460D01*
X7024944Y-21496460D02*
X7005896Y-21505984D01*
X7005896Y-21505984D02*
X6986848Y-21505984D01*
X6986848Y-21505984D02*
X6967801Y-21496460D01*
X6967801Y-21496460D02*
X6958277Y-21486936D01*
X6958277Y-21486936D02*
X6948753Y-21467889D01*
X6948753Y-21467889D02*
X6939229Y-21429793D01*
X6939229Y-21429793D02*
X6939229Y-21382174D01*
X6939229Y-21382174D02*
X6948753Y-21344079D01*
X6948753Y-21344079D02*
X6958277Y-21325031D01*
X6958277Y-21325031D02*
X6967801Y-21315508D01*
X6967801Y-21315508D02*
X6986848Y-21305984D01*
X7129706Y-21325031D02*
X7139229Y-21315508D01*
X7139229Y-21315508D02*
X7158277Y-21305984D01*
X7158277Y-21305984D02*
X7205896Y-21305984D01*
X7205896Y-21305984D02*
X7224944Y-21315508D01*
X7224944Y-21315508D02*
X7234467Y-21325031D01*
X7234467Y-21325031D02*
X7243991Y-21344079D01*
X7243991Y-21344079D02*
X7243991Y-21363127D01*
X7243991Y-21363127D02*
X7234467Y-21391698D01*
X7234467Y-21391698D02*
X7120182Y-21505984D01*
X7120182Y-21505984D02*
X7243991Y-21505984D01*
X7310658Y-21305984D02*
X7434467Y-21305984D01*
X7434467Y-21305984D02*
X7367801Y-21382174D01*
X7367801Y-21382174D02*
X7396372Y-21382174D01*
X7396372Y-21382174D02*
X7415420Y-21391698D01*
X7415420Y-21391698D02*
X7424944Y-21401222D01*
X7424944Y-21401222D02*
X7434467Y-21420270D01*
X7434467Y-21420270D02*
X7434467Y-21467889D01*
X7434467Y-21467889D02*
X7424944Y-21486936D01*
X7424944Y-21486936D02*
X7415420Y-21496460D01*
X7415420Y-21496460D02*
X7396372Y-21505984D01*
X7396372Y-21505984D02*
X7339229Y-21505984D01*
X7339229Y-21505984D02*
X7320182Y-21496460D01*
X7320182Y-21496460D02*
X7310658Y-21486936D01*
X7605896Y-21305984D02*
X7567801Y-21305984D01*
X7567801Y-21305984D02*
X7548753Y-21315508D01*
X7548753Y-21315508D02*
X7539229Y-21325031D01*
X7539229Y-21325031D02*
X7520182Y-21353603D01*
X7520182Y-21353603D02*
X7510658Y-21391698D01*
X7510658Y-21391698D02*
X7510658Y-21467889D01*
X7510658Y-21467889D02*
X7520182Y-21486936D01*
X7520182Y-21486936D02*
X7529706Y-21496460D01*
X7529706Y-21496460D02*
X7548753Y-21505984D01*
X7548753Y-21505984D02*
X7586848Y-21505984D01*
X7586848Y-21505984D02*
X7605896Y-21496460D01*
X7605896Y-21496460D02*
X7615420Y-21486936D01*
X7615420Y-21486936D02*
X7624944Y-21467889D01*
X7624944Y-21467889D02*
X7624944Y-21420270D01*
X7624944Y-21420270D02*
X7615420Y-21401222D01*
X7615420Y-21401222D02*
X7605896Y-21391698D01*
X7605896Y-21391698D02*
X7586848Y-21382174D01*
X7586848Y-21382174D02*
X7548753Y-21382174D01*
X7548753Y-21382174D02*
X7529706Y-21391698D01*
X7529706Y-21391698D02*
X7520182Y-21401222D01*
X7520182Y-21401222D02*
X7510658Y-21420270D01*
X7701134Y-21305984D02*
X7701134Y-21344079D01*
X7777325Y-21305984D02*
X7777325Y-21344079D01*
X8072563Y-21582174D02*
X8063039Y-21572650D01*
X8063039Y-21572650D02*
X8043991Y-21544079D01*
X8043991Y-21544079D02*
X8034468Y-21525031D01*
X8034468Y-21525031D02*
X8024944Y-21496460D01*
X8024944Y-21496460D02*
X8015420Y-21448841D01*
X8015420Y-21448841D02*
X8015420Y-21410746D01*
X8015420Y-21410746D02*
X8024944Y-21363127D01*
X8024944Y-21363127D02*
X8034468Y-21334555D01*
X8034468Y-21334555D02*
X8043991Y-21315508D01*
X8043991Y-21315508D02*
X8063039Y-21286936D01*
X8063039Y-21286936D02*
X8072563Y-21277412D01*
X8129706Y-21305984D02*
X8253515Y-21305984D01*
X8253515Y-21305984D02*
X8186848Y-21382174D01*
X8186848Y-21382174D02*
X8215420Y-21382174D01*
X8215420Y-21382174D02*
X8234468Y-21391698D01*
X8234468Y-21391698D02*
X8243991Y-21401222D01*
X8243991Y-21401222D02*
X8253515Y-21420270D01*
X8253515Y-21420270D02*
X8253515Y-21467889D01*
X8253515Y-21467889D02*
X8243991Y-21486936D01*
X8243991Y-21486936D02*
X8234468Y-21496460D01*
X8234468Y-21496460D02*
X8215420Y-21505984D01*
X8215420Y-21505984D02*
X8158277Y-21505984D01*
X8158277Y-21505984D02*
X8139229Y-21496460D01*
X8139229Y-21496460D02*
X8129706Y-21486936D01*
X8329706Y-21325031D02*
X8339229Y-21315508D01*
X8339229Y-21315508D02*
X8358277Y-21305984D01*
X8358277Y-21305984D02*
X8405896Y-21305984D01*
X8405896Y-21305984D02*
X8424944Y-21315508D01*
X8424944Y-21315508D02*
X8434468Y-21325031D01*
X8434468Y-21325031D02*
X8443991Y-21344079D01*
X8443991Y-21344079D02*
X8443991Y-21363127D01*
X8443991Y-21363127D02*
X8434468Y-21391698D01*
X8434468Y-21391698D02*
X8320182Y-21505984D01*
X8320182Y-21505984D02*
X8443991Y-21505984D01*
X8682087Y-21505984D02*
X8682087Y-21305984D01*
X8767801Y-21505984D02*
X8767801Y-21401222D01*
X8767801Y-21401222D02*
X8758277Y-21382174D01*
X8758277Y-21382174D02*
X8739230Y-21372650D01*
X8739230Y-21372650D02*
X8710658Y-21372650D01*
X8710658Y-21372650D02*
X8691611Y-21382174D01*
X8691611Y-21382174D02*
X8682087Y-21391698D01*
X8891611Y-21505984D02*
X8872563Y-21496460D01*
X8872563Y-21496460D02*
X8863039Y-21486936D01*
X8863039Y-21486936D02*
X8853515Y-21467889D01*
X8853515Y-21467889D02*
X8853515Y-21410746D01*
X8853515Y-21410746D02*
X8863039Y-21391698D01*
X8863039Y-21391698D02*
X8872563Y-21382174D01*
X8872563Y-21382174D02*
X8891611Y-21372650D01*
X8891611Y-21372650D02*
X8920182Y-21372650D01*
X8920182Y-21372650D02*
X8939230Y-21382174D01*
X8939230Y-21382174D02*
X8948753Y-21391698D01*
X8948753Y-21391698D02*
X8958277Y-21410746D01*
X8958277Y-21410746D02*
X8958277Y-21467889D01*
X8958277Y-21467889D02*
X8948753Y-21486936D01*
X8948753Y-21486936D02*
X8939230Y-21496460D01*
X8939230Y-21496460D02*
X8920182Y-21505984D01*
X8920182Y-21505984D02*
X8891611Y-21505984D01*
X9072563Y-21505984D02*
X9053515Y-21496460D01*
X9053515Y-21496460D02*
X9043992Y-21477412D01*
X9043992Y-21477412D02*
X9043992Y-21305984D01*
X9224944Y-21496460D02*
X9205896Y-21505984D01*
X9205896Y-21505984D02*
X9167801Y-21505984D01*
X9167801Y-21505984D02*
X9148753Y-21496460D01*
X9148753Y-21496460D02*
X9139230Y-21477412D01*
X9139230Y-21477412D02*
X9139230Y-21401222D01*
X9139230Y-21401222D02*
X9148753Y-21382174D01*
X9148753Y-21382174D02*
X9167801Y-21372650D01*
X9167801Y-21372650D02*
X9205896Y-21372650D01*
X9205896Y-21372650D02*
X9224944Y-21382174D01*
X9224944Y-21382174D02*
X9234468Y-21401222D01*
X9234468Y-21401222D02*
X9234468Y-21420270D01*
X9234468Y-21420270D02*
X9139230Y-21439317D01*
X9310658Y-21496460D02*
X9329706Y-21505984D01*
X9329706Y-21505984D02*
X9367801Y-21505984D01*
X9367801Y-21505984D02*
X9386849Y-21496460D01*
X9386849Y-21496460D02*
X9396373Y-21477412D01*
X9396373Y-21477412D02*
X9396373Y-21467889D01*
X9396373Y-21467889D02*
X9386849Y-21448841D01*
X9386849Y-21448841D02*
X9367801Y-21439317D01*
X9367801Y-21439317D02*
X9339230Y-21439317D01*
X9339230Y-21439317D02*
X9320182Y-21429793D01*
X9320182Y-21429793D02*
X9310658Y-21410746D01*
X9310658Y-21410746D02*
X9310658Y-21401222D01*
X9310658Y-21401222D02*
X9320182Y-21382174D01*
X9320182Y-21382174D02*
X9339230Y-21372650D01*
X9339230Y-21372650D02*
X9367801Y-21372650D01*
X9367801Y-21372650D02*
X9386849Y-21382174D01*
X9463039Y-21582174D02*
X9472563Y-21572650D01*
X9472563Y-21572650D02*
X9491611Y-21544079D01*
X9491611Y-21544079D02*
X9501134Y-21525031D01*
X9501134Y-21525031D02*
X9510658Y-21496460D01*
X9510658Y-21496460D02*
X9520182Y-21448841D01*
X9520182Y-21448841D02*
X9520182Y-21410746D01*
X9520182Y-21410746D02*
X9510658Y-21363127D01*
X9510658Y-21363127D02*
X9501134Y-21334555D01*
X9501134Y-21334555D02*
X9491611Y-21315508D01*
X9491611Y-21315508D02*
X9472563Y-21286936D01*
X9472563Y-21286936D02*
X9463039Y-21277412D01*
D12*
X4450000Y-21726000D02*
X4497500Y-21678500D01*
X4450000Y-21631000D01*
X4402500Y-21678500D01*
X4450000Y-21726000D01*
D11*
X4796372Y-21569984D02*
X4815420Y-21569984D01*
X4815420Y-21569984D02*
X4834467Y-21579508D01*
X4834467Y-21579508D02*
X4843991Y-21589031D01*
X4843991Y-21589031D02*
X4853515Y-21608079D01*
X4853515Y-21608079D02*
X4863039Y-21646174D01*
X4863039Y-21646174D02*
X4863039Y-21693793D01*
X4863039Y-21693793D02*
X4853515Y-21731889D01*
X4853515Y-21731889D02*
X4843991Y-21750936D01*
X4843991Y-21750936D02*
X4834467Y-21760460D01*
X4834467Y-21760460D02*
X4815420Y-21769984D01*
X4815420Y-21769984D02*
X4796372Y-21769984D01*
X4796372Y-21769984D02*
X4777324Y-21760460D01*
X4777324Y-21760460D02*
X4767801Y-21750936D01*
X4767801Y-21750936D02*
X4758277Y-21731889D01*
X4758277Y-21731889D02*
X4748753Y-21693793D01*
X4748753Y-21693793D02*
X4748753Y-21646174D01*
X4748753Y-21646174D02*
X4758277Y-21608079D01*
X4758277Y-21608079D02*
X4767801Y-21589031D01*
X4767801Y-21589031D02*
X4777324Y-21579508D01*
X4777324Y-21579508D02*
X4796372Y-21569984D01*
X4948753Y-21750936D02*
X4958277Y-21760460D01*
X4958277Y-21760460D02*
X4948753Y-21769984D01*
X4948753Y-21769984D02*
X4939229Y-21760460D01*
X4939229Y-21760460D02*
X4948753Y-21750936D01*
X4948753Y-21750936D02*
X4948753Y-21769984D01*
X5053515Y-21769984D02*
X5091610Y-21769984D01*
X5091610Y-21769984D02*
X5110658Y-21760460D01*
X5110658Y-21760460D02*
X5120182Y-21750936D01*
X5120182Y-21750936D02*
X5139229Y-21722365D01*
X5139229Y-21722365D02*
X5148753Y-21684270D01*
X5148753Y-21684270D02*
X5148753Y-21608079D01*
X5148753Y-21608079D02*
X5139229Y-21589031D01*
X5139229Y-21589031D02*
X5129705Y-21579508D01*
X5129705Y-21579508D02*
X5110658Y-21569984D01*
X5110658Y-21569984D02*
X5072563Y-21569984D01*
X5072563Y-21569984D02*
X5053515Y-21579508D01*
X5053515Y-21579508D02*
X5043991Y-21589031D01*
X5043991Y-21589031D02*
X5034467Y-21608079D01*
X5034467Y-21608079D02*
X5034467Y-21655698D01*
X5034467Y-21655698D02*
X5043991Y-21674746D01*
X5043991Y-21674746D02*
X5053515Y-21684270D01*
X5053515Y-21684270D02*
X5072563Y-21693793D01*
X5072563Y-21693793D02*
X5110658Y-21693793D01*
X5110658Y-21693793D02*
X5129705Y-21684270D01*
X5129705Y-21684270D02*
X5139229Y-21674746D01*
X5139229Y-21674746D02*
X5148753Y-21655698D01*
X5329705Y-21569984D02*
X5234467Y-21569984D01*
X5234467Y-21569984D02*
X5224944Y-21665222D01*
X5224944Y-21665222D02*
X5234467Y-21655698D01*
X5234467Y-21655698D02*
X5253515Y-21646174D01*
X5253515Y-21646174D02*
X5301134Y-21646174D01*
X5301134Y-21646174D02*
X5320182Y-21655698D01*
X5320182Y-21655698D02*
X5329705Y-21665222D01*
X5329705Y-21665222D02*
X5339229Y-21684270D01*
X5339229Y-21684270D02*
X5339229Y-21731889D01*
X5339229Y-21731889D02*
X5329705Y-21750936D01*
X5329705Y-21750936D02*
X5320182Y-21760460D01*
X5320182Y-21760460D02*
X5301134Y-21769984D01*
X5301134Y-21769984D02*
X5253515Y-21769984D01*
X5253515Y-21769984D02*
X5234467Y-21760460D01*
X5234467Y-21760460D02*
X5224944Y-21750936D01*
X5463039Y-21569984D02*
X5482086Y-21569984D01*
X5482086Y-21569984D02*
X5501134Y-21579508D01*
X5501134Y-21579508D02*
X5510658Y-21589031D01*
X5510658Y-21589031D02*
X5520182Y-21608079D01*
X5520182Y-21608079D02*
X5529705Y-21646174D01*
X5529705Y-21646174D02*
X5529705Y-21693793D01*
X5529705Y-21693793D02*
X5520182Y-21731889D01*
X5520182Y-21731889D02*
X5510658Y-21750936D01*
X5510658Y-21750936D02*
X5501134Y-21760460D01*
X5501134Y-21760460D02*
X5482086Y-21769984D01*
X5482086Y-21769984D02*
X5463039Y-21769984D01*
X5463039Y-21769984D02*
X5443991Y-21760460D01*
X5443991Y-21760460D02*
X5434467Y-21750936D01*
X5434467Y-21750936D02*
X5424944Y-21731889D01*
X5424944Y-21731889D02*
X5415420Y-21693793D01*
X5415420Y-21693793D02*
X5415420Y-21646174D01*
X5415420Y-21646174D02*
X5424944Y-21608079D01*
X5424944Y-21608079D02*
X5434467Y-21589031D01*
X5434467Y-21589031D02*
X5443991Y-21579508D01*
X5443991Y-21579508D02*
X5463039Y-21569984D01*
X5615420Y-21769984D02*
X5615420Y-21636650D01*
X5615420Y-21655698D02*
X5624943Y-21646174D01*
X5624943Y-21646174D02*
X5643991Y-21636650D01*
X5643991Y-21636650D02*
X5672563Y-21636650D01*
X5672563Y-21636650D02*
X5691610Y-21646174D01*
X5691610Y-21646174D02*
X5701134Y-21665222D01*
X5701134Y-21665222D02*
X5701134Y-21769984D01*
X5701134Y-21665222D02*
X5710658Y-21646174D01*
X5710658Y-21646174D02*
X5729705Y-21636650D01*
X5729705Y-21636650D02*
X5758277Y-21636650D01*
X5758277Y-21636650D02*
X5777324Y-21646174D01*
X5777324Y-21646174D02*
X5786848Y-21665222D01*
X5786848Y-21665222D02*
X5786848Y-21769984D01*
X5882086Y-21769984D02*
X5882086Y-21636650D01*
X5882086Y-21655698D02*
X5891610Y-21646174D01*
X5891610Y-21646174D02*
X5910658Y-21636650D01*
X5910658Y-21636650D02*
X5939229Y-21636650D01*
X5939229Y-21636650D02*
X5958277Y-21646174D01*
X5958277Y-21646174D02*
X5967801Y-21665222D01*
X5967801Y-21665222D02*
X5967801Y-21769984D01*
X5967801Y-21665222D02*
X5977324Y-21646174D01*
X5977324Y-21646174D02*
X5996372Y-21636650D01*
X5996372Y-21636650D02*
X6024943Y-21636650D01*
X6024943Y-21636650D02*
X6043991Y-21646174D01*
X6043991Y-21646174D02*
X6053515Y-21665222D01*
X6053515Y-21665222D02*
X6053515Y-21769984D01*
X6443991Y-21560460D02*
X6272563Y-21817603D01*
X6701134Y-21569984D02*
X6720182Y-21569984D01*
X6720182Y-21569984D02*
X6739229Y-21579508D01*
X6739229Y-21579508D02*
X6748753Y-21589031D01*
X6748753Y-21589031D02*
X6758277Y-21608079D01*
X6758277Y-21608079D02*
X6767801Y-21646174D01*
X6767801Y-21646174D02*
X6767801Y-21693793D01*
X6767801Y-21693793D02*
X6758277Y-21731889D01*
X6758277Y-21731889D02*
X6748753Y-21750936D01*
X6748753Y-21750936D02*
X6739229Y-21760460D01*
X6739229Y-21760460D02*
X6720182Y-21769984D01*
X6720182Y-21769984D02*
X6701134Y-21769984D01*
X6701134Y-21769984D02*
X6682086Y-21760460D01*
X6682086Y-21760460D02*
X6672563Y-21750936D01*
X6672563Y-21750936D02*
X6663039Y-21731889D01*
X6663039Y-21731889D02*
X6653515Y-21693793D01*
X6653515Y-21693793D02*
X6653515Y-21646174D01*
X6653515Y-21646174D02*
X6663039Y-21608079D01*
X6663039Y-21608079D02*
X6672563Y-21589031D01*
X6672563Y-21589031D02*
X6682086Y-21579508D01*
X6682086Y-21579508D02*
X6701134Y-21569984D01*
X6853515Y-21750936D02*
X6863039Y-21760460D01*
X6863039Y-21760460D02*
X6853515Y-21769984D01*
X6853515Y-21769984D02*
X6843991Y-21760460D01*
X6843991Y-21760460D02*
X6853515Y-21750936D01*
X6853515Y-21750936D02*
X6853515Y-21769984D01*
X6986848Y-21569984D02*
X7005896Y-21569984D01*
X7005896Y-21569984D02*
X7024944Y-21579508D01*
X7024944Y-21579508D02*
X7034467Y-21589031D01*
X7034467Y-21589031D02*
X7043991Y-21608079D01*
X7043991Y-21608079D02*
X7053515Y-21646174D01*
X7053515Y-21646174D02*
X7053515Y-21693793D01*
X7053515Y-21693793D02*
X7043991Y-21731889D01*
X7043991Y-21731889D02*
X7034467Y-21750936D01*
X7034467Y-21750936D02*
X7024944Y-21760460D01*
X7024944Y-21760460D02*
X7005896Y-21769984D01*
X7005896Y-21769984D02*
X6986848Y-21769984D01*
X6986848Y-21769984D02*
X6967801Y-21760460D01*
X6967801Y-21760460D02*
X6958277Y-21750936D01*
X6958277Y-21750936D02*
X6948753Y-21731889D01*
X6948753Y-21731889D02*
X6939229Y-21693793D01*
X6939229Y-21693793D02*
X6939229Y-21646174D01*
X6939229Y-21646174D02*
X6948753Y-21608079D01*
X6948753Y-21608079D02*
X6958277Y-21589031D01*
X6958277Y-21589031D02*
X6967801Y-21579508D01*
X6967801Y-21579508D02*
X6986848Y-21569984D01*
X7120182Y-21569984D02*
X7243991Y-21569984D01*
X7243991Y-21569984D02*
X7177325Y-21646174D01*
X7177325Y-21646174D02*
X7205896Y-21646174D01*
X7205896Y-21646174D02*
X7224944Y-21655698D01*
X7224944Y-21655698D02*
X7234467Y-21665222D01*
X7234467Y-21665222D02*
X7243991Y-21684270D01*
X7243991Y-21684270D02*
X7243991Y-21731889D01*
X7243991Y-21731889D02*
X7234467Y-21750936D01*
X7234467Y-21750936D02*
X7224944Y-21760460D01*
X7224944Y-21760460D02*
X7205896Y-21769984D01*
X7205896Y-21769984D02*
X7148753Y-21769984D01*
X7148753Y-21769984D02*
X7129706Y-21760460D01*
X7129706Y-21760460D02*
X7120182Y-21750936D01*
X7310658Y-21569984D02*
X7443991Y-21569984D01*
X7443991Y-21569984D02*
X7358277Y-21769984D01*
X7605896Y-21636650D02*
X7605896Y-21769984D01*
X7558277Y-21560460D02*
X7510658Y-21703317D01*
X7510658Y-21703317D02*
X7634467Y-21703317D01*
X7701134Y-21569984D02*
X7701134Y-21608079D01*
X7777325Y-21569984D02*
X7777325Y-21608079D01*
X8072563Y-21846174D02*
X8063039Y-21836650D01*
X8063039Y-21836650D02*
X8043991Y-21808079D01*
X8043991Y-21808079D02*
X8034468Y-21789031D01*
X8034468Y-21789031D02*
X8024944Y-21760460D01*
X8024944Y-21760460D02*
X8015420Y-21712841D01*
X8015420Y-21712841D02*
X8015420Y-21674746D01*
X8015420Y-21674746D02*
X8024944Y-21627127D01*
X8024944Y-21627127D02*
X8034468Y-21598555D01*
X8034468Y-21598555D02*
X8043991Y-21579508D01*
X8043991Y-21579508D02*
X8063039Y-21550936D01*
X8063039Y-21550936D02*
X8072563Y-21541412D01*
X8243991Y-21569984D02*
X8148753Y-21569984D01*
X8148753Y-21569984D02*
X8139229Y-21665222D01*
X8139229Y-21665222D02*
X8148753Y-21655698D01*
X8148753Y-21655698D02*
X8167801Y-21646174D01*
X8167801Y-21646174D02*
X8215420Y-21646174D01*
X8215420Y-21646174D02*
X8234468Y-21655698D01*
X8234468Y-21655698D02*
X8243991Y-21665222D01*
X8243991Y-21665222D02*
X8253515Y-21684270D01*
X8253515Y-21684270D02*
X8253515Y-21731889D01*
X8253515Y-21731889D02*
X8243991Y-21750936D01*
X8243991Y-21750936D02*
X8234468Y-21760460D01*
X8234468Y-21760460D02*
X8215420Y-21769984D01*
X8215420Y-21769984D02*
X8167801Y-21769984D01*
X8167801Y-21769984D02*
X8148753Y-21760460D01*
X8148753Y-21760460D02*
X8139229Y-21750936D01*
X8491611Y-21769984D02*
X8491611Y-21569984D01*
X8577325Y-21769984D02*
X8577325Y-21665222D01*
X8577325Y-21665222D02*
X8567801Y-21646174D01*
X8567801Y-21646174D02*
X8548753Y-21636650D01*
X8548753Y-21636650D02*
X8520182Y-21636650D01*
X8520182Y-21636650D02*
X8501134Y-21646174D01*
X8501134Y-21646174D02*
X8491611Y-21655698D01*
X8701134Y-21769984D02*
X8682087Y-21760460D01*
X8682087Y-21760460D02*
X8672563Y-21750936D01*
X8672563Y-21750936D02*
X8663039Y-21731889D01*
X8663039Y-21731889D02*
X8663039Y-21674746D01*
X8663039Y-21674746D02*
X8672563Y-21655698D01*
X8672563Y-21655698D02*
X8682087Y-21646174D01*
X8682087Y-21646174D02*
X8701134Y-21636650D01*
X8701134Y-21636650D02*
X8729706Y-21636650D01*
X8729706Y-21636650D02*
X8748753Y-21646174D01*
X8748753Y-21646174D02*
X8758277Y-21655698D01*
X8758277Y-21655698D02*
X8767801Y-21674746D01*
X8767801Y-21674746D02*
X8767801Y-21731889D01*
X8767801Y-21731889D02*
X8758277Y-21750936D01*
X8758277Y-21750936D02*
X8748753Y-21760460D01*
X8748753Y-21760460D02*
X8729706Y-21769984D01*
X8729706Y-21769984D02*
X8701134Y-21769984D01*
X8882087Y-21769984D02*
X8863039Y-21760460D01*
X8863039Y-21760460D02*
X8853515Y-21741412D01*
X8853515Y-21741412D02*
X8853515Y-21569984D01*
X9034468Y-21760460D02*
X9015420Y-21769984D01*
X9015420Y-21769984D02*
X8977325Y-21769984D01*
X8977325Y-21769984D02*
X8958277Y-21760460D01*
X8958277Y-21760460D02*
X8948753Y-21741412D01*
X8948753Y-21741412D02*
X8948753Y-21665222D01*
X8948753Y-21665222D02*
X8958277Y-21646174D01*
X8958277Y-21646174D02*
X8977325Y-21636650D01*
X8977325Y-21636650D02*
X9015420Y-21636650D01*
X9015420Y-21636650D02*
X9034468Y-21646174D01*
X9034468Y-21646174D02*
X9043992Y-21665222D01*
X9043992Y-21665222D02*
X9043992Y-21684270D01*
X9043992Y-21684270D02*
X8948753Y-21703317D01*
X9120182Y-21760460D02*
X9139230Y-21769984D01*
X9139230Y-21769984D02*
X9177325Y-21769984D01*
X9177325Y-21769984D02*
X9196373Y-21760460D01*
X9196373Y-21760460D02*
X9205896Y-21741412D01*
X9205896Y-21741412D02*
X9205896Y-21731889D01*
X9205896Y-21731889D02*
X9196373Y-21712841D01*
X9196373Y-21712841D02*
X9177325Y-21703317D01*
X9177325Y-21703317D02*
X9148753Y-21703317D01*
X9148753Y-21703317D02*
X9129706Y-21693793D01*
X9129706Y-21693793D02*
X9120182Y-21674746D01*
X9120182Y-21674746D02*
X9120182Y-21665222D01*
X9120182Y-21665222D02*
X9129706Y-21646174D01*
X9129706Y-21646174D02*
X9148753Y-21636650D01*
X9148753Y-21636650D02*
X9177325Y-21636650D01*
X9177325Y-21636650D02*
X9196373Y-21646174D01*
X9272563Y-21846174D02*
X9282087Y-21836650D01*
X9282087Y-21836650D02*
X9301134Y-21808079D01*
X9301134Y-21808079D02*
X9310658Y-21789031D01*
X9310658Y-21789031D02*
X9320182Y-21760460D01*
X9320182Y-21760460D02*
X9329706Y-21712841D01*
X9329706Y-21712841D02*
X9329706Y-21674746D01*
X9329706Y-21674746D02*
X9320182Y-21627127D01*
X9320182Y-21627127D02*
X9310658Y-21598555D01*
X9310658Y-21598555D02*
X9301134Y-21579508D01*
X9301134Y-21579508D02*
X9282087Y-21550936D01*
X9282087Y-21550936D02*
X9272563Y-21541412D01*
D12*
X4397500Y-21892500D02*
X4497500Y-21992500D01*
X4497500Y-21892500D02*
X4397500Y-21992500D01*
X4497500Y-21942500D02*
G75*
G02*
X4397500Y-21942500I-50000J0D01*
G01*
X4397500Y-21942500D02*
G75*
G02*
X4497500Y-21942500I50000J0D01*
G01*
D11*
X4863039Y-22033984D02*
X4748753Y-22033984D01*
X4805896Y-22033984D02*
X4805896Y-21833984D01*
X4805896Y-21833984D02*
X4786848Y-21862555D01*
X4786848Y-21862555D02*
X4767801Y-21881603D01*
X4767801Y-21881603D02*
X4748753Y-21891127D01*
X4948753Y-22014936D02*
X4958277Y-22024460D01*
X4958277Y-22024460D02*
X4948753Y-22033984D01*
X4948753Y-22033984D02*
X4939229Y-22024460D01*
X4939229Y-22024460D02*
X4948753Y-22014936D01*
X4948753Y-22014936D02*
X4948753Y-22033984D01*
X5082086Y-21833984D02*
X5101134Y-21833984D01*
X5101134Y-21833984D02*
X5120182Y-21843508D01*
X5120182Y-21843508D02*
X5129705Y-21853031D01*
X5129705Y-21853031D02*
X5139229Y-21872079D01*
X5139229Y-21872079D02*
X5148753Y-21910174D01*
X5148753Y-21910174D02*
X5148753Y-21957793D01*
X5148753Y-21957793D02*
X5139229Y-21995889D01*
X5139229Y-21995889D02*
X5129705Y-22014936D01*
X5129705Y-22014936D02*
X5120182Y-22024460D01*
X5120182Y-22024460D02*
X5101134Y-22033984D01*
X5101134Y-22033984D02*
X5082086Y-22033984D01*
X5082086Y-22033984D02*
X5063039Y-22024460D01*
X5063039Y-22024460D02*
X5053515Y-22014936D01*
X5053515Y-22014936D02*
X5043991Y-21995889D01*
X5043991Y-21995889D02*
X5034467Y-21957793D01*
X5034467Y-21957793D02*
X5034467Y-21910174D01*
X5034467Y-21910174D02*
X5043991Y-21872079D01*
X5043991Y-21872079D02*
X5053515Y-21853031D01*
X5053515Y-21853031D02*
X5063039Y-21843508D01*
X5063039Y-21843508D02*
X5082086Y-21833984D01*
X5272563Y-21833984D02*
X5291610Y-21833984D01*
X5291610Y-21833984D02*
X5310658Y-21843508D01*
X5310658Y-21843508D02*
X5320182Y-21853031D01*
X5320182Y-21853031D02*
X5329705Y-21872079D01*
X5329705Y-21872079D02*
X5339229Y-21910174D01*
X5339229Y-21910174D02*
X5339229Y-21957793D01*
X5339229Y-21957793D02*
X5329705Y-21995889D01*
X5329705Y-21995889D02*
X5320182Y-22014936D01*
X5320182Y-22014936D02*
X5310658Y-22024460D01*
X5310658Y-22024460D02*
X5291610Y-22033984D01*
X5291610Y-22033984D02*
X5272563Y-22033984D01*
X5272563Y-22033984D02*
X5253515Y-22024460D01*
X5253515Y-22024460D02*
X5243991Y-22014936D01*
X5243991Y-22014936D02*
X5234467Y-21995889D01*
X5234467Y-21995889D02*
X5224944Y-21957793D01*
X5224944Y-21957793D02*
X5224944Y-21910174D01*
X5224944Y-21910174D02*
X5234467Y-21872079D01*
X5234467Y-21872079D02*
X5243991Y-21853031D01*
X5243991Y-21853031D02*
X5253515Y-21843508D01*
X5253515Y-21843508D02*
X5272563Y-21833984D01*
X5463039Y-21833984D02*
X5482086Y-21833984D01*
X5482086Y-21833984D02*
X5501134Y-21843508D01*
X5501134Y-21843508D02*
X5510658Y-21853031D01*
X5510658Y-21853031D02*
X5520182Y-21872079D01*
X5520182Y-21872079D02*
X5529705Y-21910174D01*
X5529705Y-21910174D02*
X5529705Y-21957793D01*
X5529705Y-21957793D02*
X5520182Y-21995889D01*
X5520182Y-21995889D02*
X5510658Y-22014936D01*
X5510658Y-22014936D02*
X5501134Y-22024460D01*
X5501134Y-22024460D02*
X5482086Y-22033984D01*
X5482086Y-22033984D02*
X5463039Y-22033984D01*
X5463039Y-22033984D02*
X5443991Y-22024460D01*
X5443991Y-22024460D02*
X5434467Y-22014936D01*
X5434467Y-22014936D02*
X5424944Y-21995889D01*
X5424944Y-21995889D02*
X5415420Y-21957793D01*
X5415420Y-21957793D02*
X5415420Y-21910174D01*
X5415420Y-21910174D02*
X5424944Y-21872079D01*
X5424944Y-21872079D02*
X5434467Y-21853031D01*
X5434467Y-21853031D02*
X5443991Y-21843508D01*
X5443991Y-21843508D02*
X5463039Y-21833984D01*
X5615420Y-22033984D02*
X5615420Y-21900650D01*
X5615420Y-21919698D02*
X5624943Y-21910174D01*
X5624943Y-21910174D02*
X5643991Y-21900650D01*
X5643991Y-21900650D02*
X5672563Y-21900650D01*
X5672563Y-21900650D02*
X5691610Y-21910174D01*
X5691610Y-21910174D02*
X5701134Y-21929222D01*
X5701134Y-21929222D02*
X5701134Y-22033984D01*
X5701134Y-21929222D02*
X5710658Y-21910174D01*
X5710658Y-21910174D02*
X5729705Y-21900650D01*
X5729705Y-21900650D02*
X5758277Y-21900650D01*
X5758277Y-21900650D02*
X5777324Y-21910174D01*
X5777324Y-21910174D02*
X5786848Y-21929222D01*
X5786848Y-21929222D02*
X5786848Y-22033984D01*
X5882086Y-22033984D02*
X5882086Y-21900650D01*
X5882086Y-21919698D02*
X5891610Y-21910174D01*
X5891610Y-21910174D02*
X5910658Y-21900650D01*
X5910658Y-21900650D02*
X5939229Y-21900650D01*
X5939229Y-21900650D02*
X5958277Y-21910174D01*
X5958277Y-21910174D02*
X5967801Y-21929222D01*
X5967801Y-21929222D02*
X5967801Y-22033984D01*
X5967801Y-21929222D02*
X5977324Y-21910174D01*
X5977324Y-21910174D02*
X5996372Y-21900650D01*
X5996372Y-21900650D02*
X6024943Y-21900650D01*
X6024943Y-21900650D02*
X6043991Y-21910174D01*
X6043991Y-21910174D02*
X6053515Y-21929222D01*
X6053515Y-21929222D02*
X6053515Y-22033984D01*
X6443991Y-21824460D02*
X6272563Y-22081603D01*
X6701134Y-21833984D02*
X6720182Y-21833984D01*
X6720182Y-21833984D02*
X6739229Y-21843508D01*
X6739229Y-21843508D02*
X6748753Y-21853031D01*
X6748753Y-21853031D02*
X6758277Y-21872079D01*
X6758277Y-21872079D02*
X6767801Y-21910174D01*
X6767801Y-21910174D02*
X6767801Y-21957793D01*
X6767801Y-21957793D02*
X6758277Y-21995889D01*
X6758277Y-21995889D02*
X6748753Y-22014936D01*
X6748753Y-22014936D02*
X6739229Y-22024460D01*
X6739229Y-22024460D02*
X6720182Y-22033984D01*
X6720182Y-22033984D02*
X6701134Y-22033984D01*
X6701134Y-22033984D02*
X6682086Y-22024460D01*
X6682086Y-22024460D02*
X6672563Y-22014936D01*
X6672563Y-22014936D02*
X6663039Y-21995889D01*
X6663039Y-21995889D02*
X6653515Y-21957793D01*
X6653515Y-21957793D02*
X6653515Y-21910174D01*
X6653515Y-21910174D02*
X6663039Y-21872079D01*
X6663039Y-21872079D02*
X6672563Y-21853031D01*
X6672563Y-21853031D02*
X6682086Y-21843508D01*
X6682086Y-21843508D02*
X6701134Y-21833984D01*
X6853515Y-22014936D02*
X6863039Y-22024460D01*
X6863039Y-22024460D02*
X6853515Y-22033984D01*
X6853515Y-22033984D02*
X6843991Y-22024460D01*
X6843991Y-22024460D02*
X6853515Y-22014936D01*
X6853515Y-22014936D02*
X6853515Y-22033984D01*
X6986848Y-21833984D02*
X7005896Y-21833984D01*
X7005896Y-21833984D02*
X7024944Y-21843508D01*
X7024944Y-21843508D02*
X7034467Y-21853031D01*
X7034467Y-21853031D02*
X7043991Y-21872079D01*
X7043991Y-21872079D02*
X7053515Y-21910174D01*
X7053515Y-21910174D02*
X7053515Y-21957793D01*
X7053515Y-21957793D02*
X7043991Y-21995889D01*
X7043991Y-21995889D02*
X7034467Y-22014936D01*
X7034467Y-22014936D02*
X7024944Y-22024460D01*
X7024944Y-22024460D02*
X7005896Y-22033984D01*
X7005896Y-22033984D02*
X6986848Y-22033984D01*
X6986848Y-22033984D02*
X6967801Y-22024460D01*
X6967801Y-22024460D02*
X6958277Y-22014936D01*
X6958277Y-22014936D02*
X6948753Y-21995889D01*
X6948753Y-21995889D02*
X6939229Y-21957793D01*
X6939229Y-21957793D02*
X6939229Y-21910174D01*
X6939229Y-21910174D02*
X6948753Y-21872079D01*
X6948753Y-21872079D02*
X6958277Y-21853031D01*
X6958277Y-21853031D02*
X6967801Y-21843508D01*
X6967801Y-21843508D02*
X6986848Y-21833984D01*
X7120182Y-21833984D02*
X7243991Y-21833984D01*
X7243991Y-21833984D02*
X7177325Y-21910174D01*
X7177325Y-21910174D02*
X7205896Y-21910174D01*
X7205896Y-21910174D02*
X7224944Y-21919698D01*
X7224944Y-21919698D02*
X7234467Y-21929222D01*
X7234467Y-21929222D02*
X7243991Y-21948270D01*
X7243991Y-21948270D02*
X7243991Y-21995889D01*
X7243991Y-21995889D02*
X7234467Y-22014936D01*
X7234467Y-22014936D02*
X7224944Y-22024460D01*
X7224944Y-22024460D02*
X7205896Y-22033984D01*
X7205896Y-22033984D02*
X7148753Y-22033984D01*
X7148753Y-22033984D02*
X7129706Y-22024460D01*
X7129706Y-22024460D02*
X7120182Y-22014936D01*
X7339229Y-22033984D02*
X7377325Y-22033984D01*
X7377325Y-22033984D02*
X7396372Y-22024460D01*
X7396372Y-22024460D02*
X7405896Y-22014936D01*
X7405896Y-22014936D02*
X7424944Y-21986365D01*
X7424944Y-21986365D02*
X7434467Y-21948270D01*
X7434467Y-21948270D02*
X7434467Y-21872079D01*
X7434467Y-21872079D02*
X7424944Y-21853031D01*
X7424944Y-21853031D02*
X7415420Y-21843508D01*
X7415420Y-21843508D02*
X7396372Y-21833984D01*
X7396372Y-21833984D02*
X7358277Y-21833984D01*
X7358277Y-21833984D02*
X7339229Y-21843508D01*
X7339229Y-21843508D02*
X7329706Y-21853031D01*
X7329706Y-21853031D02*
X7320182Y-21872079D01*
X7320182Y-21872079D02*
X7320182Y-21919698D01*
X7320182Y-21919698D02*
X7329706Y-21938746D01*
X7329706Y-21938746D02*
X7339229Y-21948270D01*
X7339229Y-21948270D02*
X7358277Y-21957793D01*
X7358277Y-21957793D02*
X7396372Y-21957793D01*
X7396372Y-21957793D02*
X7415420Y-21948270D01*
X7415420Y-21948270D02*
X7424944Y-21938746D01*
X7424944Y-21938746D02*
X7434467Y-21919698D01*
X7605896Y-21900650D02*
X7605896Y-22033984D01*
X7558277Y-21824460D02*
X7510658Y-21967317D01*
X7510658Y-21967317D02*
X7634467Y-21967317D01*
X7701134Y-21833984D02*
X7701134Y-21872079D01*
X7777325Y-21833984D02*
X7777325Y-21872079D01*
X8072563Y-22110174D02*
X8063039Y-22100650D01*
X8063039Y-22100650D02*
X8043991Y-22072079D01*
X8043991Y-22072079D02*
X8034468Y-22053031D01*
X8034468Y-22053031D02*
X8024944Y-22024460D01*
X8024944Y-22024460D02*
X8015420Y-21976841D01*
X8015420Y-21976841D02*
X8015420Y-21938746D01*
X8015420Y-21938746D02*
X8024944Y-21891127D01*
X8024944Y-21891127D02*
X8034468Y-21862555D01*
X8034468Y-21862555D02*
X8043991Y-21843508D01*
X8043991Y-21843508D02*
X8063039Y-21814936D01*
X8063039Y-21814936D02*
X8072563Y-21805412D01*
X8129706Y-21833984D02*
X8253515Y-21833984D01*
X8253515Y-21833984D02*
X8186848Y-21910174D01*
X8186848Y-21910174D02*
X8215420Y-21910174D01*
X8215420Y-21910174D02*
X8234468Y-21919698D01*
X8234468Y-21919698D02*
X8243991Y-21929222D01*
X8243991Y-21929222D02*
X8253515Y-21948270D01*
X8253515Y-21948270D02*
X8253515Y-21995889D01*
X8253515Y-21995889D02*
X8243991Y-22014936D01*
X8243991Y-22014936D02*
X8234468Y-22024460D01*
X8234468Y-22024460D02*
X8215420Y-22033984D01*
X8215420Y-22033984D02*
X8158277Y-22033984D01*
X8158277Y-22033984D02*
X8139229Y-22024460D01*
X8139229Y-22024460D02*
X8129706Y-22014936D01*
X8424944Y-21833984D02*
X8386848Y-21833984D01*
X8386848Y-21833984D02*
X8367801Y-21843508D01*
X8367801Y-21843508D02*
X8358277Y-21853031D01*
X8358277Y-21853031D02*
X8339229Y-21881603D01*
X8339229Y-21881603D02*
X8329706Y-21919698D01*
X8329706Y-21919698D02*
X8329706Y-21995889D01*
X8329706Y-21995889D02*
X8339229Y-22014936D01*
X8339229Y-22014936D02*
X8348753Y-22024460D01*
X8348753Y-22024460D02*
X8367801Y-22033984D01*
X8367801Y-22033984D02*
X8405896Y-22033984D01*
X8405896Y-22033984D02*
X8424944Y-22024460D01*
X8424944Y-22024460D02*
X8434468Y-22014936D01*
X8434468Y-22014936D02*
X8443991Y-21995889D01*
X8443991Y-21995889D02*
X8443991Y-21948270D01*
X8443991Y-21948270D02*
X8434468Y-21929222D01*
X8434468Y-21929222D02*
X8424944Y-21919698D01*
X8424944Y-21919698D02*
X8405896Y-21910174D01*
X8405896Y-21910174D02*
X8367801Y-21910174D01*
X8367801Y-21910174D02*
X8348753Y-21919698D01*
X8348753Y-21919698D02*
X8339229Y-21929222D01*
X8339229Y-21929222D02*
X8329706Y-21948270D01*
X8682087Y-22033984D02*
X8682087Y-21833984D01*
X8767801Y-22033984D02*
X8767801Y-21929222D01*
X8767801Y-21929222D02*
X8758277Y-21910174D01*
X8758277Y-21910174D02*
X8739230Y-21900650D01*
X8739230Y-21900650D02*
X8710658Y-21900650D01*
X8710658Y-21900650D02*
X8691611Y-21910174D01*
X8691611Y-21910174D02*
X8682087Y-21919698D01*
X8891611Y-22033984D02*
X8872563Y-22024460D01*
X8872563Y-22024460D02*
X8863039Y-22014936D01*
X8863039Y-22014936D02*
X8853515Y-21995889D01*
X8853515Y-21995889D02*
X8853515Y-21938746D01*
X8853515Y-21938746D02*
X8863039Y-21919698D01*
X8863039Y-21919698D02*
X8872563Y-21910174D01*
X8872563Y-21910174D02*
X8891611Y-21900650D01*
X8891611Y-21900650D02*
X8920182Y-21900650D01*
X8920182Y-21900650D02*
X8939230Y-21910174D01*
X8939230Y-21910174D02*
X8948753Y-21919698D01*
X8948753Y-21919698D02*
X8958277Y-21938746D01*
X8958277Y-21938746D02*
X8958277Y-21995889D01*
X8958277Y-21995889D02*
X8948753Y-22014936D01*
X8948753Y-22014936D02*
X8939230Y-22024460D01*
X8939230Y-22024460D02*
X8920182Y-22033984D01*
X8920182Y-22033984D02*
X8891611Y-22033984D01*
X9072563Y-22033984D02*
X9053515Y-22024460D01*
X9053515Y-22024460D02*
X9043992Y-22005412D01*
X9043992Y-22005412D02*
X9043992Y-21833984D01*
X9224944Y-22024460D02*
X9205896Y-22033984D01*
X9205896Y-22033984D02*
X9167801Y-22033984D01*
X9167801Y-22033984D02*
X9148753Y-22024460D01*
X9148753Y-22024460D02*
X9139230Y-22005412D01*
X9139230Y-22005412D02*
X9139230Y-21929222D01*
X9139230Y-21929222D02*
X9148753Y-21910174D01*
X9148753Y-21910174D02*
X9167801Y-21900650D01*
X9167801Y-21900650D02*
X9205896Y-21900650D01*
X9205896Y-21900650D02*
X9224944Y-21910174D01*
X9224944Y-21910174D02*
X9234468Y-21929222D01*
X9234468Y-21929222D02*
X9234468Y-21948270D01*
X9234468Y-21948270D02*
X9139230Y-21967317D01*
X9310658Y-22024460D02*
X9329706Y-22033984D01*
X9329706Y-22033984D02*
X9367801Y-22033984D01*
X9367801Y-22033984D02*
X9386849Y-22024460D01*
X9386849Y-22024460D02*
X9396373Y-22005412D01*
X9396373Y-22005412D02*
X9396373Y-21995889D01*
X9396373Y-21995889D02*
X9386849Y-21976841D01*
X9386849Y-21976841D02*
X9367801Y-21967317D01*
X9367801Y-21967317D02*
X9339230Y-21967317D01*
X9339230Y-21967317D02*
X9320182Y-21957793D01*
X9320182Y-21957793D02*
X9310658Y-21938746D01*
X9310658Y-21938746D02*
X9310658Y-21929222D01*
X9310658Y-21929222D02*
X9320182Y-21910174D01*
X9320182Y-21910174D02*
X9339230Y-21900650D01*
X9339230Y-21900650D02*
X9367801Y-21900650D01*
X9367801Y-21900650D02*
X9386849Y-21910174D01*
X9463039Y-22110174D02*
X9472563Y-22100650D01*
X9472563Y-22100650D02*
X9491611Y-22072079D01*
X9491611Y-22072079D02*
X9501134Y-22053031D01*
X9501134Y-22053031D02*
X9510658Y-22024460D01*
X9510658Y-22024460D02*
X9520182Y-21976841D01*
X9520182Y-21976841D02*
X9520182Y-21938746D01*
X9520182Y-21938746D02*
X9510658Y-21891127D01*
X9510658Y-21891127D02*
X9501134Y-21862555D01*
X9501134Y-21862555D02*
X9491611Y-21843508D01*
X9491611Y-21843508D02*
X9472563Y-21814936D01*
X9472563Y-21814936D02*
X9463039Y-21805412D01*
D13*
X4367500Y-22141500D02*
X4497500Y-22271500D01*
X4497500Y-22141500D02*
X4367500Y-22271500D01*
X4432500Y-22141500D02*
X4432500Y-22271500D01*
X4367500Y-22206500D02*
X4497500Y-22206500D01*
D11*
X4863039Y-22297984D02*
X4748753Y-22297984D01*
X4805896Y-22297984D02*
X4805896Y-22097984D01*
X4805896Y-22097984D02*
X4786848Y-22126555D01*
X4786848Y-22126555D02*
X4767801Y-22145603D01*
X4767801Y-22145603D02*
X4748753Y-22155127D01*
X4948753Y-22278936D02*
X4958277Y-22288460D01*
X4958277Y-22288460D02*
X4948753Y-22297984D01*
X4948753Y-22297984D02*
X4939229Y-22288460D01*
X4939229Y-22288460D02*
X4948753Y-22278936D01*
X4948753Y-22278936D02*
X4948753Y-22297984D01*
X5024944Y-22097984D02*
X5148753Y-22097984D01*
X5148753Y-22097984D02*
X5082086Y-22174174D01*
X5082086Y-22174174D02*
X5110658Y-22174174D01*
X5110658Y-22174174D02*
X5129705Y-22183698D01*
X5129705Y-22183698D02*
X5139229Y-22193222D01*
X5139229Y-22193222D02*
X5148753Y-22212270D01*
X5148753Y-22212270D02*
X5148753Y-22259889D01*
X5148753Y-22259889D02*
X5139229Y-22278936D01*
X5139229Y-22278936D02*
X5129705Y-22288460D01*
X5129705Y-22288460D02*
X5110658Y-22297984D01*
X5110658Y-22297984D02*
X5053515Y-22297984D01*
X5053515Y-22297984D02*
X5034467Y-22288460D01*
X5034467Y-22288460D02*
X5024944Y-22278936D01*
X5272563Y-22097984D02*
X5291610Y-22097984D01*
X5291610Y-22097984D02*
X5310658Y-22107508D01*
X5310658Y-22107508D02*
X5320182Y-22117031D01*
X5320182Y-22117031D02*
X5329705Y-22136079D01*
X5329705Y-22136079D02*
X5339229Y-22174174D01*
X5339229Y-22174174D02*
X5339229Y-22221793D01*
X5339229Y-22221793D02*
X5329705Y-22259889D01*
X5329705Y-22259889D02*
X5320182Y-22278936D01*
X5320182Y-22278936D02*
X5310658Y-22288460D01*
X5310658Y-22288460D02*
X5291610Y-22297984D01*
X5291610Y-22297984D02*
X5272563Y-22297984D01*
X5272563Y-22297984D02*
X5253515Y-22288460D01*
X5253515Y-22288460D02*
X5243991Y-22278936D01*
X5243991Y-22278936D02*
X5234467Y-22259889D01*
X5234467Y-22259889D02*
X5224944Y-22221793D01*
X5224944Y-22221793D02*
X5224944Y-22174174D01*
X5224944Y-22174174D02*
X5234467Y-22136079D01*
X5234467Y-22136079D02*
X5243991Y-22117031D01*
X5243991Y-22117031D02*
X5253515Y-22107508D01*
X5253515Y-22107508D02*
X5272563Y-22097984D01*
X5463039Y-22097984D02*
X5482086Y-22097984D01*
X5482086Y-22097984D02*
X5501134Y-22107508D01*
X5501134Y-22107508D02*
X5510658Y-22117031D01*
X5510658Y-22117031D02*
X5520182Y-22136079D01*
X5520182Y-22136079D02*
X5529705Y-22174174D01*
X5529705Y-22174174D02*
X5529705Y-22221793D01*
X5529705Y-22221793D02*
X5520182Y-22259889D01*
X5520182Y-22259889D02*
X5510658Y-22278936D01*
X5510658Y-22278936D02*
X5501134Y-22288460D01*
X5501134Y-22288460D02*
X5482086Y-22297984D01*
X5482086Y-22297984D02*
X5463039Y-22297984D01*
X5463039Y-22297984D02*
X5443991Y-22288460D01*
X5443991Y-22288460D02*
X5434467Y-22278936D01*
X5434467Y-22278936D02*
X5424944Y-22259889D01*
X5424944Y-22259889D02*
X5415420Y-22221793D01*
X5415420Y-22221793D02*
X5415420Y-22174174D01*
X5415420Y-22174174D02*
X5424944Y-22136079D01*
X5424944Y-22136079D02*
X5434467Y-22117031D01*
X5434467Y-22117031D02*
X5443991Y-22107508D01*
X5443991Y-22107508D02*
X5463039Y-22097984D01*
X5615420Y-22297984D02*
X5615420Y-22164650D01*
X5615420Y-22183698D02*
X5624943Y-22174174D01*
X5624943Y-22174174D02*
X5643991Y-22164650D01*
X5643991Y-22164650D02*
X5672563Y-22164650D01*
X5672563Y-22164650D02*
X5691610Y-22174174D01*
X5691610Y-22174174D02*
X5701134Y-22193222D01*
X5701134Y-22193222D02*
X5701134Y-22297984D01*
X5701134Y-22193222D02*
X5710658Y-22174174D01*
X5710658Y-22174174D02*
X5729705Y-22164650D01*
X5729705Y-22164650D02*
X5758277Y-22164650D01*
X5758277Y-22164650D02*
X5777324Y-22174174D01*
X5777324Y-22174174D02*
X5786848Y-22193222D01*
X5786848Y-22193222D02*
X5786848Y-22297984D01*
X5882086Y-22297984D02*
X5882086Y-22164650D01*
X5882086Y-22183698D02*
X5891610Y-22174174D01*
X5891610Y-22174174D02*
X5910658Y-22164650D01*
X5910658Y-22164650D02*
X5939229Y-22164650D01*
X5939229Y-22164650D02*
X5958277Y-22174174D01*
X5958277Y-22174174D02*
X5967801Y-22193222D01*
X5967801Y-22193222D02*
X5967801Y-22297984D01*
X5967801Y-22193222D02*
X5977324Y-22174174D01*
X5977324Y-22174174D02*
X5996372Y-22164650D01*
X5996372Y-22164650D02*
X6024943Y-22164650D01*
X6024943Y-22164650D02*
X6043991Y-22174174D01*
X6043991Y-22174174D02*
X6053515Y-22193222D01*
X6053515Y-22193222D02*
X6053515Y-22297984D01*
X6443991Y-22088460D02*
X6272563Y-22345603D01*
X6701134Y-22097984D02*
X6720182Y-22097984D01*
X6720182Y-22097984D02*
X6739229Y-22107508D01*
X6739229Y-22107508D02*
X6748753Y-22117031D01*
X6748753Y-22117031D02*
X6758277Y-22136079D01*
X6758277Y-22136079D02*
X6767801Y-22174174D01*
X6767801Y-22174174D02*
X6767801Y-22221793D01*
X6767801Y-22221793D02*
X6758277Y-22259889D01*
X6758277Y-22259889D02*
X6748753Y-22278936D01*
X6748753Y-22278936D02*
X6739229Y-22288460D01*
X6739229Y-22288460D02*
X6720182Y-22297984D01*
X6720182Y-22297984D02*
X6701134Y-22297984D01*
X6701134Y-22297984D02*
X6682086Y-22288460D01*
X6682086Y-22288460D02*
X6672563Y-22278936D01*
X6672563Y-22278936D02*
X6663039Y-22259889D01*
X6663039Y-22259889D02*
X6653515Y-22221793D01*
X6653515Y-22221793D02*
X6653515Y-22174174D01*
X6653515Y-22174174D02*
X6663039Y-22136079D01*
X6663039Y-22136079D02*
X6672563Y-22117031D01*
X6672563Y-22117031D02*
X6682086Y-22107508D01*
X6682086Y-22107508D02*
X6701134Y-22097984D01*
X6853515Y-22278936D02*
X6863039Y-22288460D01*
X6863039Y-22288460D02*
X6853515Y-22297984D01*
X6853515Y-22297984D02*
X6843991Y-22288460D01*
X6843991Y-22288460D02*
X6853515Y-22278936D01*
X6853515Y-22278936D02*
X6853515Y-22297984D01*
X6986848Y-22097984D02*
X7005896Y-22097984D01*
X7005896Y-22097984D02*
X7024944Y-22107508D01*
X7024944Y-22107508D02*
X7034467Y-22117031D01*
X7034467Y-22117031D02*
X7043991Y-22136079D01*
X7043991Y-22136079D02*
X7053515Y-22174174D01*
X7053515Y-22174174D02*
X7053515Y-22221793D01*
X7053515Y-22221793D02*
X7043991Y-22259889D01*
X7043991Y-22259889D02*
X7034467Y-22278936D01*
X7034467Y-22278936D02*
X7024944Y-22288460D01*
X7024944Y-22288460D02*
X7005896Y-22297984D01*
X7005896Y-22297984D02*
X6986848Y-22297984D01*
X6986848Y-22297984D02*
X6967801Y-22288460D01*
X6967801Y-22288460D02*
X6958277Y-22278936D01*
X6958277Y-22278936D02*
X6948753Y-22259889D01*
X6948753Y-22259889D02*
X6939229Y-22221793D01*
X6939229Y-22221793D02*
X6939229Y-22174174D01*
X6939229Y-22174174D02*
X6948753Y-22136079D01*
X6948753Y-22136079D02*
X6958277Y-22117031D01*
X6958277Y-22117031D02*
X6967801Y-22107508D01*
X6967801Y-22107508D02*
X6986848Y-22097984D01*
X7234467Y-22097984D02*
X7139229Y-22097984D01*
X7139229Y-22097984D02*
X7129706Y-22193222D01*
X7129706Y-22193222D02*
X7139229Y-22183698D01*
X7139229Y-22183698D02*
X7158277Y-22174174D01*
X7158277Y-22174174D02*
X7205896Y-22174174D01*
X7205896Y-22174174D02*
X7224944Y-22183698D01*
X7224944Y-22183698D02*
X7234467Y-22193222D01*
X7234467Y-22193222D02*
X7243991Y-22212270D01*
X7243991Y-22212270D02*
X7243991Y-22259889D01*
X7243991Y-22259889D02*
X7234467Y-22278936D01*
X7234467Y-22278936D02*
X7224944Y-22288460D01*
X7224944Y-22288460D02*
X7205896Y-22297984D01*
X7205896Y-22297984D02*
X7158277Y-22297984D01*
X7158277Y-22297984D02*
X7139229Y-22288460D01*
X7139229Y-22288460D02*
X7129706Y-22278936D01*
X7434467Y-22297984D02*
X7320182Y-22297984D01*
X7377325Y-22297984D02*
X7377325Y-22097984D01*
X7377325Y-22097984D02*
X7358277Y-22126555D01*
X7358277Y-22126555D02*
X7339229Y-22145603D01*
X7339229Y-22145603D02*
X7320182Y-22155127D01*
X7510658Y-22117031D02*
X7520182Y-22107508D01*
X7520182Y-22107508D02*
X7539229Y-22097984D01*
X7539229Y-22097984D02*
X7586848Y-22097984D01*
X7586848Y-22097984D02*
X7605896Y-22107508D01*
X7605896Y-22107508D02*
X7615420Y-22117031D01*
X7615420Y-22117031D02*
X7624944Y-22136079D01*
X7624944Y-22136079D02*
X7624944Y-22155127D01*
X7624944Y-22155127D02*
X7615420Y-22183698D01*
X7615420Y-22183698D02*
X7501134Y-22297984D01*
X7501134Y-22297984D02*
X7624944Y-22297984D01*
X7701134Y-22097984D02*
X7701134Y-22136079D01*
X7777325Y-22097984D02*
X7777325Y-22136079D01*
X8072563Y-22374174D02*
X8063039Y-22364650D01*
X8063039Y-22364650D02*
X8043991Y-22336079D01*
X8043991Y-22336079D02*
X8034468Y-22317031D01*
X8034468Y-22317031D02*
X8024944Y-22288460D01*
X8024944Y-22288460D02*
X8015420Y-22240841D01*
X8015420Y-22240841D02*
X8015420Y-22202746D01*
X8015420Y-22202746D02*
X8024944Y-22155127D01*
X8024944Y-22155127D02*
X8034468Y-22126555D01*
X8034468Y-22126555D02*
X8043991Y-22107508D01*
X8043991Y-22107508D02*
X8063039Y-22078936D01*
X8063039Y-22078936D02*
X8072563Y-22069412D01*
X8253515Y-22297984D02*
X8139229Y-22297984D01*
X8196372Y-22297984D02*
X8196372Y-22097984D01*
X8196372Y-22097984D02*
X8177325Y-22126555D01*
X8177325Y-22126555D02*
X8158277Y-22145603D01*
X8158277Y-22145603D02*
X8139229Y-22155127D01*
X8320182Y-22097984D02*
X8443991Y-22097984D01*
X8443991Y-22097984D02*
X8377325Y-22174174D01*
X8377325Y-22174174D02*
X8405896Y-22174174D01*
X8405896Y-22174174D02*
X8424944Y-22183698D01*
X8424944Y-22183698D02*
X8434468Y-22193222D01*
X8434468Y-22193222D02*
X8443991Y-22212270D01*
X8443991Y-22212270D02*
X8443991Y-22259889D01*
X8443991Y-22259889D02*
X8434468Y-22278936D01*
X8434468Y-22278936D02*
X8424944Y-22288460D01*
X8424944Y-22288460D02*
X8405896Y-22297984D01*
X8405896Y-22297984D02*
X8348753Y-22297984D01*
X8348753Y-22297984D02*
X8329706Y-22288460D01*
X8329706Y-22288460D02*
X8320182Y-22278936D01*
X8682087Y-22297984D02*
X8682087Y-22097984D01*
X8767801Y-22297984D02*
X8767801Y-22193222D01*
X8767801Y-22193222D02*
X8758277Y-22174174D01*
X8758277Y-22174174D02*
X8739230Y-22164650D01*
X8739230Y-22164650D02*
X8710658Y-22164650D01*
X8710658Y-22164650D02*
X8691611Y-22174174D01*
X8691611Y-22174174D02*
X8682087Y-22183698D01*
X8891611Y-22297984D02*
X8872563Y-22288460D01*
X8872563Y-22288460D02*
X8863039Y-22278936D01*
X8863039Y-22278936D02*
X8853515Y-22259889D01*
X8853515Y-22259889D02*
X8853515Y-22202746D01*
X8853515Y-22202746D02*
X8863039Y-22183698D01*
X8863039Y-22183698D02*
X8872563Y-22174174D01*
X8872563Y-22174174D02*
X8891611Y-22164650D01*
X8891611Y-22164650D02*
X8920182Y-22164650D01*
X8920182Y-22164650D02*
X8939230Y-22174174D01*
X8939230Y-22174174D02*
X8948753Y-22183698D01*
X8948753Y-22183698D02*
X8958277Y-22202746D01*
X8958277Y-22202746D02*
X8958277Y-22259889D01*
X8958277Y-22259889D02*
X8948753Y-22278936D01*
X8948753Y-22278936D02*
X8939230Y-22288460D01*
X8939230Y-22288460D02*
X8920182Y-22297984D01*
X8920182Y-22297984D02*
X8891611Y-22297984D01*
X9072563Y-22297984D02*
X9053515Y-22288460D01*
X9053515Y-22288460D02*
X9043992Y-22269412D01*
X9043992Y-22269412D02*
X9043992Y-22097984D01*
X9224944Y-22288460D02*
X9205896Y-22297984D01*
X9205896Y-22297984D02*
X9167801Y-22297984D01*
X9167801Y-22297984D02*
X9148753Y-22288460D01*
X9148753Y-22288460D02*
X9139230Y-22269412D01*
X9139230Y-22269412D02*
X9139230Y-22193222D01*
X9139230Y-22193222D02*
X9148753Y-22174174D01*
X9148753Y-22174174D02*
X9167801Y-22164650D01*
X9167801Y-22164650D02*
X9205896Y-22164650D01*
X9205896Y-22164650D02*
X9224944Y-22174174D01*
X9224944Y-22174174D02*
X9234468Y-22193222D01*
X9234468Y-22193222D02*
X9234468Y-22212270D01*
X9234468Y-22212270D02*
X9139230Y-22231317D01*
X9310658Y-22288460D02*
X9329706Y-22297984D01*
X9329706Y-22297984D02*
X9367801Y-22297984D01*
X9367801Y-22297984D02*
X9386849Y-22288460D01*
X9386849Y-22288460D02*
X9396373Y-22269412D01*
X9396373Y-22269412D02*
X9396373Y-22259889D01*
X9396373Y-22259889D02*
X9386849Y-22240841D01*
X9386849Y-22240841D02*
X9367801Y-22231317D01*
X9367801Y-22231317D02*
X9339230Y-22231317D01*
X9339230Y-22231317D02*
X9320182Y-22221793D01*
X9320182Y-22221793D02*
X9310658Y-22202746D01*
X9310658Y-22202746D02*
X9310658Y-22193222D01*
X9310658Y-22193222D02*
X9320182Y-22174174D01*
X9320182Y-22174174D02*
X9339230Y-22164650D01*
X9339230Y-22164650D02*
X9367801Y-22164650D01*
X9367801Y-22164650D02*
X9386849Y-22174174D01*
X9463039Y-22374174D02*
X9472563Y-22364650D01*
X9472563Y-22364650D02*
X9491611Y-22336079D01*
X9491611Y-22336079D02*
X9501134Y-22317031D01*
X9501134Y-22317031D02*
X9510658Y-22288460D01*
X9510658Y-22288460D02*
X9520182Y-22240841D01*
X9520182Y-22240841D02*
X9520182Y-22202746D01*
X9520182Y-22202746D02*
X9510658Y-22155127D01*
X9510658Y-22155127D02*
X9501134Y-22126555D01*
X9501134Y-22126555D02*
X9491611Y-22107508D01*
X9491611Y-22107508D02*
X9472563Y-22078936D01*
X9472563Y-22078936D02*
X9463039Y-22069412D01*
X4297500Y-22370500D02*
X4497500Y-22570500D01*
X4497500Y-22370500D02*
X4297500Y-22570500D01*
X4468211Y-22541211D02*
X4468211Y-22399789D01*
X4326789Y-22399789D01*
X4326789Y-22541211D01*
X4468211Y-22541211D01*
X4748753Y-22381031D02*
X4758277Y-22371508D01*
X4758277Y-22371508D02*
X4777324Y-22361984D01*
X4777324Y-22361984D02*
X4824944Y-22361984D01*
X4824944Y-22361984D02*
X4843991Y-22371508D01*
X4843991Y-22371508D02*
X4853515Y-22381031D01*
X4853515Y-22381031D02*
X4863039Y-22400079D01*
X4863039Y-22400079D02*
X4863039Y-22419127D01*
X4863039Y-22419127D02*
X4853515Y-22447698D01*
X4853515Y-22447698D02*
X4739229Y-22561984D01*
X4739229Y-22561984D02*
X4863039Y-22561984D01*
X4948753Y-22542936D02*
X4958277Y-22552460D01*
X4958277Y-22552460D02*
X4948753Y-22561984D01*
X4948753Y-22561984D02*
X4939229Y-22552460D01*
X4939229Y-22552460D02*
X4948753Y-22542936D01*
X4948753Y-22542936D02*
X4948753Y-22561984D01*
X5024944Y-22361984D02*
X5158277Y-22361984D01*
X5158277Y-22361984D02*
X5072563Y-22561984D01*
X5272563Y-22361984D02*
X5291610Y-22361984D01*
X5291610Y-22361984D02*
X5310658Y-22371508D01*
X5310658Y-22371508D02*
X5320182Y-22381031D01*
X5320182Y-22381031D02*
X5329705Y-22400079D01*
X5329705Y-22400079D02*
X5339229Y-22438174D01*
X5339229Y-22438174D02*
X5339229Y-22485793D01*
X5339229Y-22485793D02*
X5329705Y-22523888D01*
X5329705Y-22523888D02*
X5320182Y-22542936D01*
X5320182Y-22542936D02*
X5310658Y-22552460D01*
X5310658Y-22552460D02*
X5291610Y-22561984D01*
X5291610Y-22561984D02*
X5272563Y-22561984D01*
X5272563Y-22561984D02*
X5253515Y-22552460D01*
X5253515Y-22552460D02*
X5243991Y-22542936D01*
X5243991Y-22542936D02*
X5234467Y-22523888D01*
X5234467Y-22523888D02*
X5224944Y-22485793D01*
X5224944Y-22485793D02*
X5224944Y-22438174D01*
X5224944Y-22438174D02*
X5234467Y-22400079D01*
X5234467Y-22400079D02*
X5243991Y-22381031D01*
X5243991Y-22381031D02*
X5253515Y-22371508D01*
X5253515Y-22371508D02*
X5272563Y-22361984D01*
X5463039Y-22361984D02*
X5482086Y-22361984D01*
X5482086Y-22361984D02*
X5501134Y-22371508D01*
X5501134Y-22371508D02*
X5510658Y-22381031D01*
X5510658Y-22381031D02*
X5520182Y-22400079D01*
X5520182Y-22400079D02*
X5529705Y-22438174D01*
X5529705Y-22438174D02*
X5529705Y-22485793D01*
X5529705Y-22485793D02*
X5520182Y-22523888D01*
X5520182Y-22523888D02*
X5510658Y-22542936D01*
X5510658Y-22542936D02*
X5501134Y-22552460D01*
X5501134Y-22552460D02*
X5482086Y-22561984D01*
X5482086Y-22561984D02*
X5463039Y-22561984D01*
X5463039Y-22561984D02*
X5443991Y-22552460D01*
X5443991Y-22552460D02*
X5434467Y-22542936D01*
X5434467Y-22542936D02*
X5424944Y-22523888D01*
X5424944Y-22523888D02*
X5415420Y-22485793D01*
X5415420Y-22485793D02*
X5415420Y-22438174D01*
X5415420Y-22438174D02*
X5424944Y-22400079D01*
X5424944Y-22400079D02*
X5434467Y-22381031D01*
X5434467Y-22381031D02*
X5443991Y-22371508D01*
X5443991Y-22371508D02*
X5463039Y-22361984D01*
X5615420Y-22561984D02*
X5615420Y-22428650D01*
X5615420Y-22447698D02*
X5624943Y-22438174D01*
X5624943Y-22438174D02*
X5643991Y-22428650D01*
X5643991Y-22428650D02*
X5672563Y-22428650D01*
X5672563Y-22428650D02*
X5691610Y-22438174D01*
X5691610Y-22438174D02*
X5701134Y-22457222D01*
X5701134Y-22457222D02*
X5701134Y-22561984D01*
X5701134Y-22457222D02*
X5710658Y-22438174D01*
X5710658Y-22438174D02*
X5729705Y-22428650D01*
X5729705Y-22428650D02*
X5758277Y-22428650D01*
X5758277Y-22428650D02*
X5777324Y-22438174D01*
X5777324Y-22438174D02*
X5786848Y-22457222D01*
X5786848Y-22457222D02*
X5786848Y-22561984D01*
X5882086Y-22561984D02*
X5882086Y-22428650D01*
X5882086Y-22447698D02*
X5891610Y-22438174D01*
X5891610Y-22438174D02*
X5910658Y-22428650D01*
X5910658Y-22428650D02*
X5939229Y-22428650D01*
X5939229Y-22428650D02*
X5958277Y-22438174D01*
X5958277Y-22438174D02*
X5967801Y-22457222D01*
X5967801Y-22457222D02*
X5967801Y-22561984D01*
X5967801Y-22457222D02*
X5977324Y-22438174D01*
X5977324Y-22438174D02*
X5996372Y-22428650D01*
X5996372Y-22428650D02*
X6024943Y-22428650D01*
X6024943Y-22428650D02*
X6043991Y-22438174D01*
X6043991Y-22438174D02*
X6053515Y-22457222D01*
X6053515Y-22457222D02*
X6053515Y-22561984D01*
X6443991Y-22352460D02*
X6272563Y-22609603D01*
X6701134Y-22361984D02*
X6720182Y-22361984D01*
X6720182Y-22361984D02*
X6739229Y-22371508D01*
X6739229Y-22371508D02*
X6748753Y-22381031D01*
X6748753Y-22381031D02*
X6758277Y-22400079D01*
X6758277Y-22400079D02*
X6767801Y-22438174D01*
X6767801Y-22438174D02*
X6767801Y-22485793D01*
X6767801Y-22485793D02*
X6758277Y-22523888D01*
X6758277Y-22523888D02*
X6748753Y-22542936D01*
X6748753Y-22542936D02*
X6739229Y-22552460D01*
X6739229Y-22552460D02*
X6720182Y-22561984D01*
X6720182Y-22561984D02*
X6701134Y-22561984D01*
X6701134Y-22561984D02*
X6682086Y-22552460D01*
X6682086Y-22552460D02*
X6672563Y-22542936D01*
X6672563Y-22542936D02*
X6663039Y-22523888D01*
X6663039Y-22523888D02*
X6653515Y-22485793D01*
X6653515Y-22485793D02*
X6653515Y-22438174D01*
X6653515Y-22438174D02*
X6663039Y-22400079D01*
X6663039Y-22400079D02*
X6672563Y-22381031D01*
X6672563Y-22381031D02*
X6682086Y-22371508D01*
X6682086Y-22371508D02*
X6701134Y-22361984D01*
X6853515Y-22542936D02*
X6863039Y-22552460D01*
X6863039Y-22552460D02*
X6853515Y-22561984D01*
X6853515Y-22561984D02*
X6843991Y-22552460D01*
X6843991Y-22552460D02*
X6853515Y-22542936D01*
X6853515Y-22542936D02*
X6853515Y-22561984D01*
X7053515Y-22561984D02*
X6939229Y-22561984D01*
X6996372Y-22561984D02*
X6996372Y-22361984D01*
X6996372Y-22361984D02*
X6977325Y-22390555D01*
X6977325Y-22390555D02*
X6958277Y-22409603D01*
X6958277Y-22409603D02*
X6939229Y-22419127D01*
X7177325Y-22361984D02*
X7196372Y-22361984D01*
X7196372Y-22361984D02*
X7215420Y-22371508D01*
X7215420Y-22371508D02*
X7224944Y-22381031D01*
X7224944Y-22381031D02*
X7234467Y-22400079D01*
X7234467Y-22400079D02*
X7243991Y-22438174D01*
X7243991Y-22438174D02*
X7243991Y-22485793D01*
X7243991Y-22485793D02*
X7234467Y-22523888D01*
X7234467Y-22523888D02*
X7224944Y-22542936D01*
X7224944Y-22542936D02*
X7215420Y-22552460D01*
X7215420Y-22552460D02*
X7196372Y-22561984D01*
X7196372Y-22561984D02*
X7177325Y-22561984D01*
X7177325Y-22561984D02*
X7158277Y-22552460D01*
X7158277Y-22552460D02*
X7148753Y-22542936D01*
X7148753Y-22542936D02*
X7139229Y-22523888D01*
X7139229Y-22523888D02*
X7129706Y-22485793D01*
X7129706Y-22485793D02*
X7129706Y-22438174D01*
X7129706Y-22438174D02*
X7139229Y-22400079D01*
X7139229Y-22400079D02*
X7148753Y-22381031D01*
X7148753Y-22381031D02*
X7158277Y-22371508D01*
X7158277Y-22371508D02*
X7177325Y-22361984D01*
X7415420Y-22361984D02*
X7377325Y-22361984D01*
X7377325Y-22361984D02*
X7358277Y-22371508D01*
X7358277Y-22371508D02*
X7348753Y-22381031D01*
X7348753Y-22381031D02*
X7329706Y-22409603D01*
X7329706Y-22409603D02*
X7320182Y-22447698D01*
X7320182Y-22447698D02*
X7320182Y-22523888D01*
X7320182Y-22523888D02*
X7329706Y-22542936D01*
X7329706Y-22542936D02*
X7339229Y-22552460D01*
X7339229Y-22552460D02*
X7358277Y-22561984D01*
X7358277Y-22561984D02*
X7396372Y-22561984D01*
X7396372Y-22561984D02*
X7415420Y-22552460D01*
X7415420Y-22552460D02*
X7424944Y-22542936D01*
X7424944Y-22542936D02*
X7434467Y-22523888D01*
X7434467Y-22523888D02*
X7434467Y-22476269D01*
X7434467Y-22476269D02*
X7424944Y-22457222D01*
X7424944Y-22457222D02*
X7415420Y-22447698D01*
X7415420Y-22447698D02*
X7396372Y-22438174D01*
X7396372Y-22438174D02*
X7358277Y-22438174D01*
X7358277Y-22438174D02*
X7339229Y-22447698D01*
X7339229Y-22447698D02*
X7329706Y-22457222D01*
X7329706Y-22457222D02*
X7320182Y-22476269D01*
X7501134Y-22361984D02*
X7624944Y-22361984D01*
X7624944Y-22361984D02*
X7558277Y-22438174D01*
X7558277Y-22438174D02*
X7586848Y-22438174D01*
X7586848Y-22438174D02*
X7605896Y-22447698D01*
X7605896Y-22447698D02*
X7615420Y-22457222D01*
X7615420Y-22457222D02*
X7624944Y-22476269D01*
X7624944Y-22476269D02*
X7624944Y-22523888D01*
X7624944Y-22523888D02*
X7615420Y-22542936D01*
X7615420Y-22542936D02*
X7605896Y-22552460D01*
X7605896Y-22552460D02*
X7586848Y-22561984D01*
X7586848Y-22561984D02*
X7529706Y-22561984D01*
X7529706Y-22561984D02*
X7510658Y-22552460D01*
X7510658Y-22552460D02*
X7501134Y-22542936D01*
X7701134Y-22361984D02*
X7701134Y-22400079D01*
X7777325Y-22361984D02*
X7777325Y-22400079D01*
X8072563Y-22638174D02*
X8063039Y-22628650D01*
X8063039Y-22628650D02*
X8043991Y-22600079D01*
X8043991Y-22600079D02*
X8034468Y-22581031D01*
X8034468Y-22581031D02*
X8024944Y-22552460D01*
X8024944Y-22552460D02*
X8015420Y-22504841D01*
X8015420Y-22504841D02*
X8015420Y-22466746D01*
X8015420Y-22466746D02*
X8024944Y-22419127D01*
X8024944Y-22419127D02*
X8034468Y-22390555D01*
X8034468Y-22390555D02*
X8043991Y-22371508D01*
X8043991Y-22371508D02*
X8063039Y-22342936D01*
X8063039Y-22342936D02*
X8072563Y-22333412D01*
X8253515Y-22561984D02*
X8139229Y-22561984D01*
X8196372Y-22561984D02*
X8196372Y-22361984D01*
X8196372Y-22361984D02*
X8177325Y-22390555D01*
X8177325Y-22390555D02*
X8158277Y-22409603D01*
X8158277Y-22409603D02*
X8139229Y-22419127D01*
X8329706Y-22381031D02*
X8339229Y-22371508D01*
X8339229Y-22371508D02*
X8358277Y-22361984D01*
X8358277Y-22361984D02*
X8405896Y-22361984D01*
X8405896Y-22361984D02*
X8424944Y-22371508D01*
X8424944Y-22371508D02*
X8434468Y-22381031D01*
X8434468Y-22381031D02*
X8443991Y-22400079D01*
X8443991Y-22400079D02*
X8443991Y-22419127D01*
X8443991Y-22419127D02*
X8434468Y-22447698D01*
X8434468Y-22447698D02*
X8320182Y-22561984D01*
X8320182Y-22561984D02*
X8443991Y-22561984D01*
X8682087Y-22561984D02*
X8682087Y-22361984D01*
X8767801Y-22561984D02*
X8767801Y-22457222D01*
X8767801Y-22457222D02*
X8758277Y-22438174D01*
X8758277Y-22438174D02*
X8739230Y-22428650D01*
X8739230Y-22428650D02*
X8710658Y-22428650D01*
X8710658Y-22428650D02*
X8691611Y-22438174D01*
X8691611Y-22438174D02*
X8682087Y-22447698D01*
X8891611Y-22561984D02*
X8872563Y-22552460D01*
X8872563Y-22552460D02*
X8863039Y-22542936D01*
X8863039Y-22542936D02*
X8853515Y-22523888D01*
X8853515Y-22523888D02*
X8853515Y-22466746D01*
X8853515Y-22466746D02*
X8863039Y-22447698D01*
X8863039Y-22447698D02*
X8872563Y-22438174D01*
X8872563Y-22438174D02*
X8891611Y-22428650D01*
X8891611Y-22428650D02*
X8920182Y-22428650D01*
X8920182Y-22428650D02*
X8939230Y-22438174D01*
X8939230Y-22438174D02*
X8948753Y-22447698D01*
X8948753Y-22447698D02*
X8958277Y-22466746D01*
X8958277Y-22466746D02*
X8958277Y-22523888D01*
X8958277Y-22523888D02*
X8948753Y-22542936D01*
X8948753Y-22542936D02*
X8939230Y-22552460D01*
X8939230Y-22552460D02*
X8920182Y-22561984D01*
X8920182Y-22561984D02*
X8891611Y-22561984D01*
X9072563Y-22561984D02*
X9053515Y-22552460D01*
X9053515Y-22552460D02*
X9043992Y-22533412D01*
X9043992Y-22533412D02*
X9043992Y-22361984D01*
X9224944Y-22552460D02*
X9205896Y-22561984D01*
X9205896Y-22561984D02*
X9167801Y-22561984D01*
X9167801Y-22561984D02*
X9148753Y-22552460D01*
X9148753Y-22552460D02*
X9139230Y-22533412D01*
X9139230Y-22533412D02*
X9139230Y-22457222D01*
X9139230Y-22457222D02*
X9148753Y-22438174D01*
X9148753Y-22438174D02*
X9167801Y-22428650D01*
X9167801Y-22428650D02*
X9205896Y-22428650D01*
X9205896Y-22428650D02*
X9224944Y-22438174D01*
X9224944Y-22438174D02*
X9234468Y-22457222D01*
X9234468Y-22457222D02*
X9234468Y-22476269D01*
X9234468Y-22476269D02*
X9139230Y-22495317D01*
X9310658Y-22552460D02*
X9329706Y-22561984D01*
X9329706Y-22561984D02*
X9367801Y-22561984D01*
X9367801Y-22561984D02*
X9386849Y-22552460D01*
X9386849Y-22552460D02*
X9396373Y-22533412D01*
X9396373Y-22533412D02*
X9396373Y-22523888D01*
X9396373Y-22523888D02*
X9386849Y-22504841D01*
X9386849Y-22504841D02*
X9367801Y-22495317D01*
X9367801Y-22495317D02*
X9339230Y-22495317D01*
X9339230Y-22495317D02*
X9320182Y-22485793D01*
X9320182Y-22485793D02*
X9310658Y-22466746D01*
X9310658Y-22466746D02*
X9310658Y-22457222D01*
X9310658Y-22457222D02*
X9320182Y-22438174D01*
X9320182Y-22438174D02*
X9339230Y-22428650D01*
X9339230Y-22428650D02*
X9367801Y-22428650D01*
X9367801Y-22428650D02*
X9386849Y-22438174D01*
X9463039Y-22638174D02*
X9472563Y-22628650D01*
X9472563Y-22628650D02*
X9491611Y-22600079D01*
X9491611Y-22600079D02*
X9501134Y-22581031D01*
X9501134Y-22581031D02*
X9510658Y-22552460D01*
X9510658Y-22552460D02*
X9520182Y-22504841D01*
X9520182Y-22504841D02*
X9520182Y-22466746D01*
X9520182Y-22466746D02*
X9510658Y-22419127D01*
X9510658Y-22419127D02*
X9501134Y-22390555D01*
X9501134Y-22390555D02*
X9491611Y-22371508D01*
X9491611Y-22371508D02*
X9472563Y-22342936D01*
X9472563Y-22342936D02*
X9463039Y-22333412D01*
X4297500Y-22690500D02*
X4497500Y-22890500D01*
X4497500Y-22690500D02*
X4297500Y-22890500D01*
X4397500Y-22890500D02*
X4497500Y-22790500D01*
X4397500Y-22690500D01*
X4297500Y-22790500D01*
X4397500Y-22890500D01*
X4843991Y-22748650D02*
X4843991Y-22881984D01*
X4796372Y-22672460D02*
X4748753Y-22815317D01*
X4748753Y-22815317D02*
X4872563Y-22815317D01*
X4948753Y-22862936D02*
X4958277Y-22872460D01*
X4958277Y-22872460D02*
X4948753Y-22881984D01*
X4948753Y-22881984D02*
X4939229Y-22872460D01*
X4939229Y-22872460D02*
X4948753Y-22862936D01*
X4948753Y-22862936D02*
X4948753Y-22881984D01*
X5024944Y-22681984D02*
X5148753Y-22681984D01*
X5148753Y-22681984D02*
X5082086Y-22758174D01*
X5082086Y-22758174D02*
X5110658Y-22758174D01*
X5110658Y-22758174D02*
X5129705Y-22767698D01*
X5129705Y-22767698D02*
X5139229Y-22777222D01*
X5139229Y-22777222D02*
X5148753Y-22796269D01*
X5148753Y-22796269D02*
X5148753Y-22843888D01*
X5148753Y-22843888D02*
X5139229Y-22862936D01*
X5139229Y-22862936D02*
X5129705Y-22872460D01*
X5129705Y-22872460D02*
X5110658Y-22881984D01*
X5110658Y-22881984D02*
X5053515Y-22881984D01*
X5053515Y-22881984D02*
X5034467Y-22872460D01*
X5034467Y-22872460D02*
X5024944Y-22862936D01*
X5272563Y-22681984D02*
X5291610Y-22681984D01*
X5291610Y-22681984D02*
X5310658Y-22691508D01*
X5310658Y-22691508D02*
X5320182Y-22701031D01*
X5320182Y-22701031D02*
X5329705Y-22720079D01*
X5329705Y-22720079D02*
X5339229Y-22758174D01*
X5339229Y-22758174D02*
X5339229Y-22805793D01*
X5339229Y-22805793D02*
X5329705Y-22843888D01*
X5329705Y-22843888D02*
X5320182Y-22862936D01*
X5320182Y-22862936D02*
X5310658Y-22872460D01*
X5310658Y-22872460D02*
X5291610Y-22881984D01*
X5291610Y-22881984D02*
X5272563Y-22881984D01*
X5272563Y-22881984D02*
X5253515Y-22872460D01*
X5253515Y-22872460D02*
X5243991Y-22862936D01*
X5243991Y-22862936D02*
X5234467Y-22843888D01*
X5234467Y-22843888D02*
X5224944Y-22805793D01*
X5224944Y-22805793D02*
X5224944Y-22758174D01*
X5224944Y-22758174D02*
X5234467Y-22720079D01*
X5234467Y-22720079D02*
X5243991Y-22701031D01*
X5243991Y-22701031D02*
X5253515Y-22691508D01*
X5253515Y-22691508D02*
X5272563Y-22681984D01*
X5463039Y-22681984D02*
X5482086Y-22681984D01*
X5482086Y-22681984D02*
X5501134Y-22691508D01*
X5501134Y-22691508D02*
X5510658Y-22701031D01*
X5510658Y-22701031D02*
X5520182Y-22720079D01*
X5520182Y-22720079D02*
X5529705Y-22758174D01*
X5529705Y-22758174D02*
X5529705Y-22805793D01*
X5529705Y-22805793D02*
X5520182Y-22843888D01*
X5520182Y-22843888D02*
X5510658Y-22862936D01*
X5510658Y-22862936D02*
X5501134Y-22872460D01*
X5501134Y-22872460D02*
X5482086Y-22881984D01*
X5482086Y-22881984D02*
X5463039Y-22881984D01*
X5463039Y-22881984D02*
X5443991Y-22872460D01*
X5443991Y-22872460D02*
X5434467Y-22862936D01*
X5434467Y-22862936D02*
X5424944Y-22843888D01*
X5424944Y-22843888D02*
X5415420Y-22805793D01*
X5415420Y-22805793D02*
X5415420Y-22758174D01*
X5415420Y-22758174D02*
X5424944Y-22720079D01*
X5424944Y-22720079D02*
X5434467Y-22701031D01*
X5434467Y-22701031D02*
X5443991Y-22691508D01*
X5443991Y-22691508D02*
X5463039Y-22681984D01*
X5615420Y-22881984D02*
X5615420Y-22748650D01*
X5615420Y-22767698D02*
X5624943Y-22758174D01*
X5624943Y-22758174D02*
X5643991Y-22748650D01*
X5643991Y-22748650D02*
X5672563Y-22748650D01*
X5672563Y-22748650D02*
X5691610Y-22758174D01*
X5691610Y-22758174D02*
X5701134Y-22777222D01*
X5701134Y-22777222D02*
X5701134Y-22881984D01*
X5701134Y-22777222D02*
X5710658Y-22758174D01*
X5710658Y-22758174D02*
X5729705Y-22748650D01*
X5729705Y-22748650D02*
X5758277Y-22748650D01*
X5758277Y-22748650D02*
X5777324Y-22758174D01*
X5777324Y-22758174D02*
X5786848Y-22777222D01*
X5786848Y-22777222D02*
X5786848Y-22881984D01*
X5882086Y-22881984D02*
X5882086Y-22748650D01*
X5882086Y-22767698D02*
X5891610Y-22758174D01*
X5891610Y-22758174D02*
X5910658Y-22748650D01*
X5910658Y-22748650D02*
X5939229Y-22748650D01*
X5939229Y-22748650D02*
X5958277Y-22758174D01*
X5958277Y-22758174D02*
X5967801Y-22777222D01*
X5967801Y-22777222D02*
X5967801Y-22881984D01*
X5967801Y-22777222D02*
X5977324Y-22758174D01*
X5977324Y-22758174D02*
X5996372Y-22748650D01*
X5996372Y-22748650D02*
X6024943Y-22748650D01*
X6024943Y-22748650D02*
X6043991Y-22758174D01*
X6043991Y-22758174D02*
X6053515Y-22777222D01*
X6053515Y-22777222D02*
X6053515Y-22881984D01*
X6443991Y-22672460D02*
X6272563Y-22929603D01*
X6701134Y-22681984D02*
X6720182Y-22681984D01*
X6720182Y-22681984D02*
X6739229Y-22691508D01*
X6739229Y-22691508D02*
X6748753Y-22701031D01*
X6748753Y-22701031D02*
X6758277Y-22720079D01*
X6758277Y-22720079D02*
X6767801Y-22758174D01*
X6767801Y-22758174D02*
X6767801Y-22805793D01*
X6767801Y-22805793D02*
X6758277Y-22843888D01*
X6758277Y-22843888D02*
X6748753Y-22862936D01*
X6748753Y-22862936D02*
X6739229Y-22872460D01*
X6739229Y-22872460D02*
X6720182Y-22881984D01*
X6720182Y-22881984D02*
X6701134Y-22881984D01*
X6701134Y-22881984D02*
X6682086Y-22872460D01*
X6682086Y-22872460D02*
X6672563Y-22862936D01*
X6672563Y-22862936D02*
X6663039Y-22843888D01*
X6663039Y-22843888D02*
X6653515Y-22805793D01*
X6653515Y-22805793D02*
X6653515Y-22758174D01*
X6653515Y-22758174D02*
X6663039Y-22720079D01*
X6663039Y-22720079D02*
X6672563Y-22701031D01*
X6672563Y-22701031D02*
X6682086Y-22691508D01*
X6682086Y-22691508D02*
X6701134Y-22681984D01*
X6853515Y-22862936D02*
X6863039Y-22872460D01*
X6863039Y-22872460D02*
X6853515Y-22881984D01*
X6853515Y-22881984D02*
X6843991Y-22872460D01*
X6843991Y-22872460D02*
X6853515Y-22862936D01*
X6853515Y-22862936D02*
X6853515Y-22881984D01*
X7053515Y-22881984D02*
X6939229Y-22881984D01*
X6996372Y-22881984D02*
X6996372Y-22681984D01*
X6996372Y-22681984D02*
X6977325Y-22710555D01*
X6977325Y-22710555D02*
X6958277Y-22729603D01*
X6958277Y-22729603D02*
X6939229Y-22739127D01*
X7224944Y-22681984D02*
X7186848Y-22681984D01*
X7186848Y-22681984D02*
X7167801Y-22691508D01*
X7167801Y-22691508D02*
X7158277Y-22701031D01*
X7158277Y-22701031D02*
X7139229Y-22729603D01*
X7139229Y-22729603D02*
X7129706Y-22767698D01*
X7129706Y-22767698D02*
X7129706Y-22843888D01*
X7129706Y-22843888D02*
X7139229Y-22862936D01*
X7139229Y-22862936D02*
X7148753Y-22872460D01*
X7148753Y-22872460D02*
X7167801Y-22881984D01*
X7167801Y-22881984D02*
X7205896Y-22881984D01*
X7205896Y-22881984D02*
X7224944Y-22872460D01*
X7224944Y-22872460D02*
X7234467Y-22862936D01*
X7234467Y-22862936D02*
X7243991Y-22843888D01*
X7243991Y-22843888D02*
X7243991Y-22796269D01*
X7243991Y-22796269D02*
X7234467Y-22777222D01*
X7234467Y-22777222D02*
X7224944Y-22767698D01*
X7224944Y-22767698D02*
X7205896Y-22758174D01*
X7205896Y-22758174D02*
X7167801Y-22758174D01*
X7167801Y-22758174D02*
X7148753Y-22767698D01*
X7148753Y-22767698D02*
X7139229Y-22777222D01*
X7139229Y-22777222D02*
X7129706Y-22796269D01*
X7339229Y-22881984D02*
X7377325Y-22881984D01*
X7377325Y-22881984D02*
X7396372Y-22872460D01*
X7396372Y-22872460D02*
X7405896Y-22862936D01*
X7405896Y-22862936D02*
X7424944Y-22834365D01*
X7424944Y-22834365D02*
X7434467Y-22796269D01*
X7434467Y-22796269D02*
X7434467Y-22720079D01*
X7434467Y-22720079D02*
X7424944Y-22701031D01*
X7424944Y-22701031D02*
X7415420Y-22691508D01*
X7415420Y-22691508D02*
X7396372Y-22681984D01*
X7396372Y-22681984D02*
X7358277Y-22681984D01*
X7358277Y-22681984D02*
X7339229Y-22691508D01*
X7339229Y-22691508D02*
X7329706Y-22701031D01*
X7329706Y-22701031D02*
X7320182Y-22720079D01*
X7320182Y-22720079D02*
X7320182Y-22767698D01*
X7320182Y-22767698D02*
X7329706Y-22786746D01*
X7329706Y-22786746D02*
X7339229Y-22796269D01*
X7339229Y-22796269D02*
X7358277Y-22805793D01*
X7358277Y-22805793D02*
X7396372Y-22805793D01*
X7396372Y-22805793D02*
X7415420Y-22796269D01*
X7415420Y-22796269D02*
X7424944Y-22786746D01*
X7424944Y-22786746D02*
X7434467Y-22767698D01*
X7501134Y-22681984D02*
X7624944Y-22681984D01*
X7624944Y-22681984D02*
X7558277Y-22758174D01*
X7558277Y-22758174D02*
X7586848Y-22758174D01*
X7586848Y-22758174D02*
X7605896Y-22767698D01*
X7605896Y-22767698D02*
X7615420Y-22777222D01*
X7615420Y-22777222D02*
X7624944Y-22796269D01*
X7624944Y-22796269D02*
X7624944Y-22843888D01*
X7624944Y-22843888D02*
X7615420Y-22862936D01*
X7615420Y-22862936D02*
X7605896Y-22872460D01*
X7605896Y-22872460D02*
X7586848Y-22881984D01*
X7586848Y-22881984D02*
X7529706Y-22881984D01*
X7529706Y-22881984D02*
X7510658Y-22872460D01*
X7510658Y-22872460D02*
X7501134Y-22862936D01*
X7701134Y-22681984D02*
X7701134Y-22720079D01*
X7777325Y-22681984D02*
X7777325Y-22720079D01*
X8072563Y-22958174D02*
X8063039Y-22948650D01*
X8063039Y-22948650D02*
X8043991Y-22920079D01*
X8043991Y-22920079D02*
X8034468Y-22901031D01*
X8034468Y-22901031D02*
X8024944Y-22872460D01*
X8024944Y-22872460D02*
X8015420Y-22824841D01*
X8015420Y-22824841D02*
X8015420Y-22786746D01*
X8015420Y-22786746D02*
X8024944Y-22739127D01*
X8024944Y-22739127D02*
X8034468Y-22710555D01*
X8034468Y-22710555D02*
X8043991Y-22691508D01*
X8043991Y-22691508D02*
X8063039Y-22662936D01*
X8063039Y-22662936D02*
X8072563Y-22653412D01*
X8234468Y-22748650D02*
X8234468Y-22881984D01*
X8186848Y-22672460D02*
X8139229Y-22815317D01*
X8139229Y-22815317D02*
X8263039Y-22815317D01*
X8491611Y-22881984D02*
X8491611Y-22681984D01*
X8577325Y-22881984D02*
X8577325Y-22777222D01*
X8577325Y-22777222D02*
X8567801Y-22758174D01*
X8567801Y-22758174D02*
X8548753Y-22748650D01*
X8548753Y-22748650D02*
X8520182Y-22748650D01*
X8520182Y-22748650D02*
X8501134Y-22758174D01*
X8501134Y-22758174D02*
X8491611Y-22767698D01*
X8701134Y-22881984D02*
X8682087Y-22872460D01*
X8682087Y-22872460D02*
X8672563Y-22862936D01*
X8672563Y-22862936D02*
X8663039Y-22843888D01*
X8663039Y-22843888D02*
X8663039Y-22786746D01*
X8663039Y-22786746D02*
X8672563Y-22767698D01*
X8672563Y-22767698D02*
X8682087Y-22758174D01*
X8682087Y-22758174D02*
X8701134Y-22748650D01*
X8701134Y-22748650D02*
X8729706Y-22748650D01*
X8729706Y-22748650D02*
X8748753Y-22758174D01*
X8748753Y-22758174D02*
X8758277Y-22767698D01*
X8758277Y-22767698D02*
X8767801Y-22786746D01*
X8767801Y-22786746D02*
X8767801Y-22843888D01*
X8767801Y-22843888D02*
X8758277Y-22862936D01*
X8758277Y-22862936D02*
X8748753Y-22872460D01*
X8748753Y-22872460D02*
X8729706Y-22881984D01*
X8729706Y-22881984D02*
X8701134Y-22881984D01*
X8882087Y-22881984D02*
X8863039Y-22872460D01*
X8863039Y-22872460D02*
X8853515Y-22853412D01*
X8853515Y-22853412D02*
X8853515Y-22681984D01*
X9034468Y-22872460D02*
X9015420Y-22881984D01*
X9015420Y-22881984D02*
X8977325Y-22881984D01*
X8977325Y-22881984D02*
X8958277Y-22872460D01*
X8958277Y-22872460D02*
X8948753Y-22853412D01*
X8948753Y-22853412D02*
X8948753Y-22777222D01*
X8948753Y-22777222D02*
X8958277Y-22758174D01*
X8958277Y-22758174D02*
X8977325Y-22748650D01*
X8977325Y-22748650D02*
X9015420Y-22748650D01*
X9015420Y-22748650D02*
X9034468Y-22758174D01*
X9034468Y-22758174D02*
X9043992Y-22777222D01*
X9043992Y-22777222D02*
X9043992Y-22796269D01*
X9043992Y-22796269D02*
X8948753Y-22815317D01*
X9120182Y-22872460D02*
X9139230Y-22881984D01*
X9139230Y-22881984D02*
X9177325Y-22881984D01*
X9177325Y-22881984D02*
X9196373Y-22872460D01*
X9196373Y-22872460D02*
X9205896Y-22853412D01*
X9205896Y-22853412D02*
X9205896Y-22843888D01*
X9205896Y-22843888D02*
X9196373Y-22824841D01*
X9196373Y-22824841D02*
X9177325Y-22815317D01*
X9177325Y-22815317D02*
X9148753Y-22815317D01*
X9148753Y-22815317D02*
X9129706Y-22805793D01*
X9129706Y-22805793D02*
X9120182Y-22786746D01*
X9120182Y-22786746D02*
X9120182Y-22777222D01*
X9120182Y-22777222D02*
X9129706Y-22758174D01*
X9129706Y-22758174D02*
X9148753Y-22748650D01*
X9148753Y-22748650D02*
X9177325Y-22748650D01*
X9177325Y-22748650D02*
X9196373Y-22758174D01*
X9272563Y-22958174D02*
X9282087Y-22948650D01*
X9282087Y-22948650D02*
X9301134Y-22920079D01*
X9301134Y-22920079D02*
X9310658Y-22901031D01*
X9310658Y-22901031D02*
X9320182Y-22872460D01*
X9320182Y-22872460D02*
X9329706Y-22824841D01*
X9329706Y-22824841D02*
X9329706Y-22786746D01*
X9329706Y-22786746D02*
X9320182Y-22739127D01*
X9320182Y-22739127D02*
X9310658Y-22710555D01*
X9310658Y-22710555D02*
X9301134Y-22691508D01*
X9301134Y-22691508D02*
X9282087Y-22662936D01*
X9282087Y-22662936D02*
X9272563Y-22653412D01*
M02*
