%TF.GenerationSoftware,KiCad,Pcbnew,9.0.1+1*%
%TF.CreationDate,2026-06-06T21:04:34+00:00*%
%TF.ProjectId,hw-charger,68772d63-6861-4726-9765-722e6b696361,v0.1.0*%
%TF.SameCoordinates,Original*%
%TF.FileFunction,Drillmap*%
%TF.FilePolarity,Positive*%
%FSLAX45Y45*%
G04 Gerber Fmt 4.5, Leading zero omitted, Abs format (unit mm)*
G04 Created by KiCad (PCBNEW 9.0.1+1) date 2026-06-06 21:04:34*
%MOMM*%
%LPD*%
G01*
G04 APERTURE LIST*
%ADD10C,0.050000*%
%ADD11C,0.200000*%
G04 APERTURE END LIST*
D10*
X4500000Y-13980000D02*
G75*
G02*
X5000000Y-13480000I500000J0D01*
G01*
X5000000Y-13480000D02*
X14000000Y-13480000D01*
X14500000Y-19480000D02*
G75*
G02*
X14000000Y-19980000I-500000J0D01*
G01*
X4500000Y-19480000D02*
X4500000Y-13980000D01*
X5000000Y-19980000D02*
G75*
G02*
X4500000Y-19480000I0J500000D01*
G01*
X14000000Y-13480000D02*
G75*
G02*
X14500000Y-13980000I0J-500000D01*
G01*
X14500000Y-13980000D02*
X14500000Y-19480000D01*
X14000000Y-19980000D02*
X5000000Y-19980000D01*
D11*
X4758277Y-20293984D02*
X4758277Y-20093984D01*
X4758277Y-20093984D02*
X4805896Y-20093984D01*
X4805896Y-20093984D02*
X4834467Y-20103508D01*
X4834467Y-20103508D02*
X4853515Y-20122555D01*
X4853515Y-20122555D02*
X4863039Y-20141603D01*
X4863039Y-20141603D02*
X4872563Y-20179698D01*
X4872563Y-20179698D02*
X4872563Y-20208270D01*
X4872563Y-20208270D02*
X4863039Y-20246365D01*
X4863039Y-20246365D02*
X4853515Y-20265412D01*
X4853515Y-20265412D02*
X4834467Y-20284460D01*
X4834467Y-20284460D02*
X4805896Y-20293984D01*
X4805896Y-20293984D02*
X4758277Y-20293984D01*
X4958277Y-20293984D02*
X4958277Y-20160650D01*
X4958277Y-20198746D02*
X4967801Y-20179698D01*
X4967801Y-20179698D02*
X4977324Y-20170174D01*
X4977324Y-20170174D02*
X4996372Y-20160650D01*
X4996372Y-20160650D02*
X5015420Y-20160650D01*
X5082086Y-20293984D02*
X5082086Y-20160650D01*
X5082086Y-20093984D02*
X5072563Y-20103508D01*
X5072563Y-20103508D02*
X5082086Y-20113031D01*
X5082086Y-20113031D02*
X5091610Y-20103508D01*
X5091610Y-20103508D02*
X5082086Y-20093984D01*
X5082086Y-20093984D02*
X5082086Y-20113031D01*
X5205896Y-20293984D02*
X5186848Y-20284460D01*
X5186848Y-20284460D02*
X5177324Y-20265412D01*
X5177324Y-20265412D02*
X5177324Y-20093984D01*
X5310658Y-20293984D02*
X5291610Y-20284460D01*
X5291610Y-20284460D02*
X5282086Y-20265412D01*
X5282086Y-20265412D02*
X5282086Y-20093984D01*
X5539229Y-20293984D02*
X5539229Y-20093984D01*
X5539229Y-20093984D02*
X5605896Y-20236841D01*
X5605896Y-20236841D02*
X5672562Y-20093984D01*
X5672562Y-20093984D02*
X5672562Y-20293984D01*
X5853515Y-20293984D02*
X5853515Y-20189222D01*
X5853515Y-20189222D02*
X5843991Y-20170174D01*
X5843991Y-20170174D02*
X5824943Y-20160650D01*
X5824943Y-20160650D02*
X5786848Y-20160650D01*
X5786848Y-20160650D02*
X5767801Y-20170174D01*
X5853515Y-20284460D02*
X5834467Y-20293984D01*
X5834467Y-20293984D02*
X5786848Y-20293984D01*
X5786848Y-20293984D02*
X5767801Y-20284460D01*
X5767801Y-20284460D02*
X5758277Y-20265412D01*
X5758277Y-20265412D02*
X5758277Y-20246365D01*
X5758277Y-20246365D02*
X5767801Y-20227317D01*
X5767801Y-20227317D02*
X5786848Y-20217793D01*
X5786848Y-20217793D02*
X5834467Y-20217793D01*
X5834467Y-20217793D02*
X5853515Y-20208270D01*
X5948753Y-20160650D02*
X5948753Y-20360650D01*
X5948753Y-20170174D02*
X5967801Y-20160650D01*
X5967801Y-20160650D02*
X6005896Y-20160650D01*
X6005896Y-20160650D02*
X6024943Y-20170174D01*
X6024943Y-20170174D02*
X6034467Y-20179698D01*
X6034467Y-20179698D02*
X6043991Y-20198746D01*
X6043991Y-20198746D02*
X6043991Y-20255889D01*
X6043991Y-20255889D02*
X6034467Y-20274936D01*
X6034467Y-20274936D02*
X6024943Y-20284460D01*
X6024943Y-20284460D02*
X6005896Y-20293984D01*
X6005896Y-20293984D02*
X5967801Y-20293984D01*
X5967801Y-20293984D02*
X5948753Y-20284460D01*
X6129705Y-20274936D02*
X6139229Y-20284460D01*
X6139229Y-20284460D02*
X6129705Y-20293984D01*
X6129705Y-20293984D02*
X6120182Y-20284460D01*
X6120182Y-20284460D02*
X6129705Y-20274936D01*
X6129705Y-20274936D02*
X6129705Y-20293984D01*
X6129705Y-20170174D02*
X6139229Y-20179698D01*
X6139229Y-20179698D02*
X6129705Y-20189222D01*
X6129705Y-20189222D02*
X6120182Y-20179698D01*
X6120182Y-20179698D02*
X6129705Y-20170174D01*
X6129705Y-20170174D02*
X6129705Y-20189222D01*
M02*
