M48
; DRILL file {KiCad 9.0.1+1} date 2026-06-06T21:04:34+0000
; FORMAT={-:-/ absolute / metric / decimal}
; #@! TF.CreationDate,2026-06-06T21:04:34+00:00
; #@! TF.GenerationSoftware,Kicad,Pcbnew,9.0.1+1
; #@! TF.FileFunction,Plated,1,4,PTH
FMAT,2
METRIC
; #@! TA.AperFunction,Plated,PTH,ViaDrill
T1C0.300
; #@! TA.AperFunction,Plated,PTH,ComponentDrill
T2C0.300
; #@! TA.AperFunction,Plated,PTH,ComponentDrill
T3C0.600
; #@! TA.AperFunction,Plated,PTH,ComponentDrill
T4C0.600
; #@! TA.AperFunction,Plated,PTH,ComponentDrill
T5C0.950
; #@! TA.AperFunction,Plated,PTH,ComponentDrill
T6C1.000
; #@! TA.AperFunction,Plated,PTH,ComponentDrill
T7C1.300
; #@! TA.AperFunction,Plated,PTH,ComponentDrill
T8C2.700
; #@! TA.AperFunction,Plated,PTH,ComponentDrill
T9C4.300
%
G90
G05
T1
X51.8Y-158.2
X52.6Y-185.7
X53.7Y-188.9
X59.1Y-168.8
X60.5Y-178.75
X62.13Y-191.63
X63.9Y-192.3
X63.9Y-197.2
X66.25Y-175.0
X66.4Y-189.8
X68.0Y-168.0
X68.0Y-169.0
X68.0Y-173.0
X68.0Y-174.0
X69.0Y-168.0
X69.0Y-169.0
X69.0Y-173.0
X69.0Y-174.0
X69.75Y-178.75
X70.0Y-168.0
X70.0Y-169.0
X70.0Y-173.0
X70.0Y-174.0
X72.9Y-179.6
X74.6Y-159.5
X74.75Y-177.25
X75.6Y-153.8
X77.0Y-159.5
X77.9Y-150.0
X77.9Y-155.7
X78.0Y-156.9
X78.1Y-154.3
X78.2Y-153.4
X78.5Y-165.9
X78.5Y-176.75
X78.8Y-152.7
X79.3Y-156.2
X79.6Y-160.6
X79.8Y-152.7
X80.3Y-189.8
X80.5Y-151.4
X80.7Y-158.9
X80.7Y-164.9
X80.8Y-156.9
X81.0Y-165.9
X81.0Y-176.75
X81.2Y-152.1
X81.6Y-150.6
X82.401Y-158.35
X82.9Y-164.3
X83.0Y-160.6
X83.5Y-168.5
X84.2Y-175.8
X84.2Y-176.8
X84.2Y-177.8
X84.4Y-153.6
X84.5Y-163.6
X84.5Y-181.0
X84.5Y-182.0
X84.5Y-183.0
X85.2Y-175.8
X85.2Y-176.8
X85.2Y-177.8
X85.25Y-169.25
X85.25Y-170.5
X85.25Y-172.5
X85.5Y-148.2
X85.6Y-150.7
X85.6Y-153.2
X86.0Y-184.0
X87.0Y-184.0
X87.3Y-161.9
X87.6Y-150.7
X87.6Y-153.249
X87.7Y-172.5
X87.75Y-169.25
X87.75Y-170.5
X88.0Y-184.0
X88.35Y-161.95
X89.0Y-177.5
X89.0Y-178.5
X89.0Y-179.5
X89.2Y-164.2
X89.5Y-153.2
X89.5Y-168.5
X90.0Y-155.85
X90.0Y-177.5
X90.0Y-178.5
X90.0Y-179.5
X90.1Y-160.8
X91.0Y-153.6
X91.0Y-177.5
X91.0Y-178.5
X91.0Y-179.5
X91.1Y-155.2
X92.274Y-160.126
X92.5Y-148.2
X92.85Y-161.05
X92.9Y-179.4
X93.419Y-155.581
X94.0Y-182.5
X94.0Y-183.5
X94.6Y-150.4
X95.0Y-182.5
X95.0Y-183.5
X95.758Y-164.5
X95.989Y-156.111
X96.0Y-182.5
X96.0Y-183.5
X96.4Y-157.0
X97.5Y-160.8
X98.0Y-181.2
X100.0Y-152.0
X100.18Y-181.3
X100.18Y-182.3
X100.18Y-183.3
X100.7Y-155.7
X101.1Y-161.8
X101.1Y-169.5
X101.3Y-181.3
X102.4Y-181.3
X102.6Y-160.9
X102.9Y-157.8
X104.6Y-167.9
X107.9Y-166.8
X108.3Y-152.9
X108.8Y-182.6
X108.8Y-187.787
X111.3Y-182.6
X111.3Y-187.8
X113.0Y-149.4
X113.0Y-166.8
X113.8Y-182.6
X113.8Y-187.8
X114.4Y-148.0
X115.4Y-179.4
X115.725Y-150.475
X116.3Y-182.6
X116.3Y-187.8
X116.9Y-149.4
X117.2Y-147.4
X118.55Y-168.1
X118.75Y-181.0
X118.8Y-160.7
X119.9Y-168.1
X120.0Y-181.0
X121.25Y-181.0
X121.6Y-184.275
X123.1Y-183.1
X123.75Y-175.75
X123.75Y-177.0
X123.75Y-178.25
X123.75Y-179.5
X123.85Y-170.85
X123.85Y-172.15
X123.85Y-173.4
X123.9Y-169.6
X125.15Y-169.55
X125.15Y-170.85
X125.15Y-172.15
X125.6Y-180.2
X125.6Y-183.1
X126.45Y-169.55
X126.45Y-170.85
X126.45Y-172.15
X127.1Y-181.325
X127.1Y-184.3
X128.1Y-179.6
X128.1Y-185.6
X128.6Y-169.7
X128.6Y-170.7
X128.6Y-171.7
X129.1Y-178.5
X129.1Y-186.8
X129.1Y-191.7
X129.4Y-182.5
X130.1Y-151.0
X130.1Y-157.6
X130.4Y-178.5
X130.4Y-186.8
X131.5Y-181.3
X131.5Y-183.8
X131.7Y-178.5
X131.7Y-186.8
X132.5Y-164.2
X133.0Y-187.6
X135.2Y-157.8
X135.6Y-178.5
X135.9Y-155.7
X135.9Y-162.2
X137.4Y-153.9
X137.5Y-167.6
X139.3Y-176.1
X141.7Y-166.0
X142.5Y-167.6
T2
X85.05Y-156.54
X85.05Y-157.7
X85.05Y-158.86
X85.985Y-155.65
X85.985Y-156.54
X85.985Y-157.7
X85.985Y-158.86
X85.985Y-159.75
X87.215Y-155.65
X87.215Y-156.54
X87.215Y-157.7
X87.215Y-158.86
X87.215Y-159.75
X88.15Y-156.54
X88.15Y-157.7
X88.15Y-158.86
T4
X46.775Y-139.8
X46.775Y-194.775
X47.72Y-137.52
X47.72Y-142.08
X47.72Y-192.495
X47.72Y-197.055
X50.0Y-136.575
X50.0Y-143.025
X50.0Y-191.55
X50.0Y-198.0
X52.28Y-137.52
X52.28Y-142.08
X52.28Y-192.495
X52.28Y-197.055
X53.225Y-139.8
X53.225Y-194.775
X136.775Y-139.68
X136.775Y-194.775
X137.72Y-137.4
X137.72Y-141.961
X137.72Y-192.495
X137.72Y-197.055
X140.0Y-136.455
X140.0Y-142.905
X140.0Y-191.55
X140.0Y-198.0
X142.28Y-137.4
X142.28Y-141.961
X142.28Y-192.495
X142.28Y-197.055
X143.225Y-139.68
X143.225Y-194.775
T5
X141.075Y-151.9
X141.075Y-154.4
X141.075Y-156.9
X141.075Y-159.4
X141.075Y-161.9
T6
X47.875Y-151.95
X47.875Y-154.45
X53.7Y-150.7
X53.7Y-153.24
X53.7Y-155.78
X56.42Y-194.8
X58.96Y-194.8
X61.5Y-194.8
X68.224Y-184.963
X68.224Y-187.503
X69.25Y-171.0
X70.764Y-184.963
X70.764Y-187.503
X73.304Y-184.963
X73.304Y-187.503
X74.25Y-171.0
X75.844Y-184.963
X75.844Y-187.503
X87.0Y-176.882
X87.0Y-181.882
X102.2Y-183.2
X102.2Y-188.2
X103.635Y-152.9
X104.11Y-159.625
X104.11Y-162.165
X106.175Y-152.9
X106.65Y-159.625
X106.65Y-162.165
X109.19Y-159.625
X109.19Y-162.165
X111.73Y-159.625
X111.73Y-162.165
X114.27Y-159.625
X114.27Y-162.165
X130.4Y-170.7
X130.4Y-175.7
T7
X50.1Y-170.215
X50.1Y-175.295
X50.1Y-180.375
X64.365Y-139.895
X69.445Y-139.895
X85.332Y-139.895
X90.412Y-139.895
X106.298Y-139.895
X111.378Y-139.895
X111.855Y-194.705
X116.935Y-194.705
X127.265Y-139.895
X132.345Y-139.895
T8
X48.1Y-163.394
X53.1Y-163.394
X57.9Y-137.905
X57.9Y-142.905
X78.867Y-137.905
X78.867Y-142.905
X99.833Y-137.905
X99.833Y-142.905
X120.8Y-137.905
X120.8Y-142.905
X123.4Y-191.7
X123.4Y-196.7
T9
X50.0Y-139.8
X50.0Y-194.775
X140.0Y-139.68
X140.0Y-194.775
T3
X62.599Y-153.925G85X61.401Y-153.925
G05
X62.6Y-159.085G85X61.4Y-159.085
G05
X61.4Y-168.795G85X62.6Y-168.795
G05
X61.401Y-173.975G85X62.599Y-173.975
G05
X85.325Y-194.701G85X85.325Y-195.899
G05
X90.485Y-194.7G85X90.485Y-195.9
G05
X100.195Y-195.9G85X100.195Y-194.7
G05
X105.375Y-195.899G85X105.375Y-194.701
G05
M30
